<?xml version="1.0" encoding="UTF-8" standalone="no"?>
<!-- Created with Inkscape (http://www.inkscape.org/) -->

<svg
   xmlns:dc="http://purl.org/dc/elements/1.1/"
   xmlns:cc="http://creativecommons.org/ns#"
   xmlns:rdf="http://www.w3.org/1999/02/22-rdf-syntax-ns#"
   xmlns:svg="http://www.w3.org/2000/svg"
   xmlns="http://www.w3.org/2000/svg"
   xmlns:sodipodi="http://sodipodi.sourceforge.net/DTD/sodipodi-0.dtd"
   xmlns:inkscape="http://www.inkscape.org/namespaces/inkscape"
   width="240mm"
   height="120mm"
   viewBox="0 0 240 120"
   version="1.1"
   id="svg8"
   inkscape:version="0.92.3 (2405546, 2018-03-11)"
   sodipodi:docname="l3f1.svg">
  <defs
     id="defs2" />
  <sodipodi:namedview
     id="base"
     pagecolor="#ffffff"
     bordercolor="#666666"
     borderopacity="1.0"
     inkscape:pageopacity="0.0"
     inkscape:pageshadow="2"
     inkscape:zoom="2.8125141"
     inkscape:cx="647.89084"
     inkscape:cy="182.72055"
     inkscape:document-units="mm"
     inkscape:current-layer="layer1"
     showgrid="false"
     showborder="true"
     width="200mm"
     showguides="true"
     inkscape:guide-bbox="true"
     inkscape:window-width="2866"
     inkscape:window-height="1889"
     inkscape:window-x="134"
     inkscape:window-y="55"
     inkscape:window-maximized="1">
    <inkscape:grid
       type="xygrid"
       id="grid815"
       units="mm"
       spacingx="10"
       spacingy="10"
       empspacing="4"
       dotted="false" />
  </sodipodi:namedview>
  <metadata
     id="metadata5">
    <rdf:RDF>
      <cc:Work
         rdf:about="">
        <dc:format>image/svg+xml</dc:format>
        <dc:type
           rdf:resource="http://purl.org/dc/dcmitype/StillImage" />
        <dc:title />
      </cc:Work>
    </rdf:RDF>
  </metadata>
  <g
     inkscape:label="Layer 1"
     inkscape:groupmode="layer"
     id="layer1"
     transform="translate(0,-177)">
    <path
       style="fill:none;stroke:#000000;stroke-width:0.26458332px;stroke-linecap:butt;stroke-linejoin:miter;stroke-opacity:1"
       d="m 72.77297,264.80428 c -0.272891,-0.34434 -0.627065,-0.057 -0.93128,-0.13304 -0.05823,-0.0145 -0.745876,-0.35985 -0.798243,-0.39912 -0.100343,-0.0753 -0.158522,-0.20155 -0.266078,-0.26608 -0.0067,-0.004 -0.779738,-0.25815 -0.798243,-0.26608 -0.182287,-0.0781 -0.346464,-0.19645 -0.532159,-0.26608 -0.214725,-0.0805 -1.016735,-0.22996 -1.197364,-0.26608 -0.443465,-0.0887 -0.885446,-0.18518 -1.330399,-0.26608 -0.0045,-8e-4 -1.595665,-0.26588 -1.596482,-0.26608 -0.2721,-0.068 -0.530172,-0.1836 -0.798243,-0.26609 -0.617143,-0.18988 -1.254479,-0.31498 -1.862561,-0.53215 -0.318058,-0.1136 -0.620855,-0.26609 -0.93128,-0.39913 -2.313877,-0.99166 0.566396,0.26432 -1.995604,-0.93128 -1.052214,-0.49103 -0.91535,-0.32364 -1.995601,-0.93128 -0.364638,-0.20511 -0.705578,-0.44995 -1.064324,-0.6652 -0.613166,-0.3679 -1.241708,-0.70955 -1.862561,-1.06432 -0.310427,-0.17739 -0.630531,-0.33882 -0.93128,-0.53216 -0.320897,-0.20629 -0.628909,-0.43261 -0.931283,-0.6652 -0.274532,-0.21118 -0.553328,-0.42029 -0.79824,-0.6652 -0.244914,-0.24491 -0.443468,-0.53216 -0.665202,-0.79824 -0.408773,-0.49053 -1.015304,-1.17811 -1.330402,-1.72953 -0.199408,-0.34896 -0.672031,-1.65904 -0.79824,-1.9956 -0.342072,-0.91219 -0.486211,-1.17404 -0.665199,-2.12864 -0.06589,-0.35141 -0.08579,-0.70992 -0.133041,-1.06432 -0.04144,-0.31083 -0.112183,-0.6184 -0.13304,-0.93128 -0.0236,-0.35399 0,-0.70955 0,-1.06432 0,-0.95339 -0.04401,-1.18441 0.13304,-2.12865 0.151927,-0.81027 0.351168,-1.36599 0.6652,-2.12864 0.166298,-0.40387 0.327805,-0.81135 0.532161,-1.19736 0.195747,-0.36975 0.460092,-0.69968 0.6652,-1.06432 0.194463,-0.34571 0.346575,-0.71377 0.532162,-1.06432 0.04998,-0.0944 1.056407,-1.90938 1.197361,-2.12865 0.20629,-0.32089 0.47593,-0.60006 0.6652,-0.93128 1.088609,-1.90506 -0.321795,-0.007 0.931283,-1.72952 0.167015,-0.22965 0.365143,-0.43555 0.532159,-0.6652 0.188092,-0.25862 0.340288,-0.54241 0.532161,-0.79824 0.380985,-0.50798 0.816378,-0.95547 1.197362,-1.46344 0.228891,-0.30519 0.432604,-0.62891 0.665199,-0.93129 0.21118,-0.27453 0.457385,-0.52115 0.665202,-0.79823 0.586637,-0.78219 1.028118,-1.65712 1.463443,-2.52777 0.13304,-0.26608 0.284702,-0.52364 0.399118,-0.79824 0.215749,-0.5178 0.340463,-1.06931 0.532162,-1.59648 0.08161,-0.22444 0.203245,-0.4348 0.266081,-0.6652 0.141951,-0.52049 0.135231,-1.07309 0.266081,-1.59649 0.06802,-0.27209 0.203012,-0.52494 0.266078,-0.79824 0.07051,-0.30554 0.08536,-0.62135 0.13304,-0.93128 0.05945,-0.38645 0.240364,-1.36946 0.266081,-1.72952 0.02212,-0.30964 -0.02212,-0.62164 0,-0.93128 0.02233,-0.31278 0.110699,-0.6185 0.133041,-0.93128 0.02212,-0.30964 0,-0.62085 0,-0.93128 0,-0.88694 0,-1.77387 0,-2.66081 0,-0.26608 -0.02209,-0.53308 0,-0.79824 0.02241,-0.26882 0.09202,-0.53162 0.13304,-0.79824 0.04768,-0.30993 0.04689,-0.62977 0.133041,-0.93128 0.09278,-0.32474 0.26608,-0.62085 0.399121,-0.93128 0.133038,-0.31043 0.240186,-0.63328 0.399119,-0.93128 0.196879,-0.36915 0.443468,-0.70955 0.665202,-1.06432 0.221734,-0.35478 0.428183,-0.71957 0.665199,-1.06432 0.251238,-0.36544 0.528857,-0.71205 0.798243,-1.06432 1.057939,-1.38347 0.750064,-0.99026 1.862561,-2.26169 0.564806,-0.64549 1.20845,-1.4287 1.862563,-1.9956 0.335121,-0.29044 0.709546,-0.53216 1.064321,-0.79824 0.354774,-0.26608 0.691999,-0.55733 1.064321,-0.79824 0.987729,-0.63912 1.577467,-0.81229 2.660803,-1.3304 1.692529,-0.80947 1.515004,-0.85978 3.326003,-1.46345 0.612564,-0.20418 1.247841,-0.33457 1.862564,-0.53216 0.627636,-0.20174 1.230463,-0.47791 1.862563,-0.6652 0.56728,-0.16808 1.153015,-0.26608 1.72952,-0.39912 0.576509,-0.13304 1.149353,-0.28308 1.729523,-0.39912 1.490708,-0.29814 3.001571,-0.46829 4.523365,-0.39912 0.48932,0.0222 0.97854,0.0638 1.463442,0.13304 5.29e-4,9e-5 2.657223,0.53148 2.660803,0.53216 0.487056,0.0928 0.981115,0.15124 1.463442,0.26608 0.758963,0.18071 1.776588,0.56103 2.527763,0.79824 0.441503,0.13943 0.895956,0.23906 1.330402,0.39912 0.409834,0.151 0.798243,0.35478 1.197361,0.53216 0.399122,0.17739 0.798243,0.35478 1.197362,0.53217 1.154387,0.51305 2.356087,0.97606 3.459047,1.59648 0.36463,0.20511 0.69968,0.46009 1.06432,0.6652 0.34571,0.19446 0.70955,0.35477 1.06432,0.53216 0.84498,0.42249 1.2059,0.57835 1.9956,1.06432 1.2301,0.75698 0.37486,0.27262 1.46344,1.06432 0.25863,0.18809 0.53962,0.34407 0.79825,0.53216 0.22964,0.16702 0.43555,0.36515 0.6652,0.53216 0.25862,0.18809 0.53961,0.34407 0.79824,0.53216 0.22964,0.16702 0.44346,0.35478 0.6652,0.53217 0.22173,0.17738 0.45413,0.3422 0.6652,0.53215 0.23308,0.20978 0.44347,0.44347 0.6652,0.66521 0.22173,0.22173 0.48076,0.41159 0.6652,0.6652 0.36674,0.50427 0.50923,1.14462 0.6652,1.72952 0.25736,0.96509 0.34223,1.23765 0.39912,2.26168 0.0467,0.84129 -0.0421,1.68623 0,2.52776 0.0222,0.44513 0.11079,0.88528 0.13304,1.33041 0.0221,0.44291 0,0.88693 0,1.3304 0,0.44347 0,0.88693 0,1.3304 0,1.28605 0,2.57211 0,3.85816 0,0.39913 -0.0221,0.79886 0,1.19737 0.0223,0.40096 0.11194,0.79634 0.13304,1.19736 0.0233,0.44285 -0.0464,0.88937 0,1.3304 0.0428,0.40661 0.19887,0.79407 0.26608,1.19736 0.066,0.39611 0.0459,0.80535 0.13304,1.19736 0.20982,0.9442 0.50771,1.41453 0.93129,2.26169 0.17738,0.35477 0.31213,0.73428 0.53215,1.06432 0.2268,0.34018 0.54283,0.61201 0.79825,0.93128 0.27703,0.34629 0.5078,0.7292 0.79824,1.06432 0.58759,0.67799 1.18729,1.15072 1.86256,1.72952 0.31043,0.26608 0.62231,0.53047 0.93128,0.79824 0.35624,0.30874 0.68719,0.64844 1.06432,0.93128 0.33469,0.25102 0.71957,0.42819 1.06432,0.6652 0.36544,0.25124 0.69889,0.54701 1.06432,0.79825 0.34476,0.23701 0.71308,0.43792 1.06432,0.6652 0.40273,0.26058 0.78806,0.54811 1.19737,0.79824 0.38959,0.23808 0.79824,0.44346 1.19736,0.6652 0.39912,0.22173 0.78898,0.46101 1.19736,0.6652 0.39066,0.19533 0.81135,0.3278 1.19736,0.53216 0.36975,0.19575 0.69458,0.46945 1.06432,0.6652 0.38601,0.20436 0.81669,0.31803 1.19736,0.53216 0.3325,0.18703 0.61039,0.45891 0.93128,0.6652 0.30076,0.19334 0.64526,0.31764 0.93129,0.53216 0.25086,0.18815 0.44346,0.44347 0.6652,0.6652 0.22173,0.22173 0.46663,0.42251 0.6652,0.6652 0.53921,0.65905 0.53609,0.87197 0.93128,1.59649 0.12382,0.22701 0.29212,0.42979 0.39912,0.6652 0.44229,0.97304 0.12666,0.55523 0.39912,1.46344 0.0686,0.22874 0.22336,0.43024 0.26608,0.6652 0.0476,0.26179 -0.0241,0.53325 0,0.79824 0.0991,1.0896 0.23443,0.24671 0.13304,1.46344 -0.0224,0.26882 -0.0887,0.53216 -0.13304,0.79824 -0.18612,1.1167 -0.0589,0.53887 -0.39912,1.72952 -0.24706,0.86473 -0.25586,1.04388 -0.6652,1.86257 -0.1599,0.31979 -0.37227,0.61149 -0.53216,0.93128 -0.52901,1.05802 -0.27903,0.90852 -0.93128,1.9956 -0.002,0.003 -1.32616,1.8562 -1.3304,1.86256 -0.23207,0.3481 -0.4178,0.72695 -0.6652,1.06432 -0.24179,0.32971 -0.53047,0.62232 -0.79825,0.93128 -1.1332,1.30755 -0.67912,0.81217 -1.86256,1.99561 -0.26608,0.26608 -0.52249,0.54219 -0.79824,0.79824 -0.34545,0.32077 -0.71969,0.60963 -1.06432,0.93128 -0.32094,0.29954 -0.62086,0.62085 -0.93128,0.93128 -0.35478,0.26608 -0.73058,0.50622 -1.06432,0.79824 -3.25735,2.85018 1.06059,-0.63083 -2.12865,1.99561 -0.39031,0.32143 -0.81822,0.59674 -1.19736,0.93128 -0.37621,0.33195 -0.69829,0.72117 -1.06432,1.06432 -0.34391,0.32242 -0.70955,0.62085 -1.06432,0.93128 -0.35477,0.31042 -0.70808,0.62254 -1.06432,0.93128 -0.30897,0.26777 -0.60158,0.55646 -0.93128,0.79824 -0.33738,0.24741 -0.71622,0.43313 -1.06432,0.6652 -0.31742,0.21161 -0.60416,0.46893 -0.93128,0.6652 -0.35615,0.21369 -1.55995,0.77569 -1.99561,0.93128 -0.30404,0.10859 -0.62085,0.17739 -0.93128,0.26608 -0.31043,0.0887 -0.6156,0.19844 -0.93128,0.26608 -0.30662,0.0657 -0.62085,0.0887 -0.93128,0.13304 -0.31043,0.0444 -0.6185,0.1107 -0.93128,0.13304 -0.64755,0.0463 -1.10604,0.0109 -1.72952,-0.13304 -0.31458,-0.0726 -0.6156,-0.19843 -0.93129,-0.26608 -0.95029,-0.20363 -0.86512,-0.006 -1.72952,-0.39912 -0.2354,-0.107 -0.43391,-0.28347 -0.6652,-0.39912 -0.2136,-0.1068 -0.44779,-0.16726 -0.6652,-0.26608 -0.27082,-0.1231 -0.52742,-0.27602 -0.79824,-0.39912 -0.21741,-0.0988 -0.44779,-0.16726 -0.6652,-0.26608 -1.15001,-0.52273 -0.43842,-0.23914 -1.46344,-0.79824 -0.26116,-0.14245 -0.53708,-0.25667 -0.79824,-0.39912 -0.22701,-0.12382 -0.44347,-0.26608 -0.6652,-0.39912 -0.22174,-0.13304 -0.45337,-0.25083 -0.6652,-0.39912 -0.23263,-0.16284 -0.44106,-0.35783 -0.66521,-0.53216 -0.175023,-0.13613 -0.357131,-0.26299 -0.532158,-0.39912 -0.224142,-0.17434 -0.435552,-0.36515 -0.665199,-0.53216 -0.258625,-0.18809 -0.539618,-0.34407 -0.79824,-0.53216 -0.229648,-0.16702 -0.428935,-0.37465 -0.665202,-0.53216 -0.297487,-0.19833 -0.626785,-0.34478 -0.931281,-0.53217 -0.850371,-0.5233 -0.655849,-0.49077 -1.463442,-0.93128 -0.261162,-0.14245 -0.532162,-0.26608 -0.79824,-0.39912 -0.266081,-0.13304 -0.523639,-0.2847 -0.798243,-0.39912 -0.258897,-0.10787 -0.532159,-0.17738 -0.79824,-0.26608 -0.532161,-0.17738 -1.06432,-0.35477 -1.596482,-0.53216 -0.266081,-0.0887 -0.534654,-0.17023 -0.79824,-0.26608 -0.224438,-0.0816 -0.436459,-0.19746 -0.665202,-0.26608 -0.216588,-0.065 -0.448612,-0.0681 -0.6652,-0.13304 -0.228743,-0.0686 -0.443468,-0.17739 -0.665202,-0.26608 -0.665199,-0.26608 -1.330402,-0.53216 -1.995601,-0.79824 -0.221734,-0.0887 -0.43646,-0.19746 -0.665202,-0.26608 -0.216588,-0.065 -0.448612,-0.0681 -0.6652,-0.13304 -0.228743,-0.0686 -0.434803,-0.20325 -0.665202,-0.26608 -0.260244,-0.071 -0.532842,-0.0848 -0.79824,-0.13304 -0.222478,-0.0404 -0.440198,-0.11054 -0.665202,-0.13304 -0.220634,-0.0221 -0.444376,0.0201 -0.6652,0 -0.268642,-0.0244 -0.532842,-0.0848 -0.798242,-0.13304 -0.222475,-0.0405 -0.440005,-0.11257 -0.6652,-0.13304 -0.264988,-0.0241 -0.533254,0.0241 -0.79824,0 -0.225197,-0.0205 -0.44046,-0.10807 -0.665202,-0.13304 -0.176303,-0.0196 -0.356142,0.022 -0.532159,0 -0.181436,-0.0227 -0.350436,-0.11285 -0.532162,-0.13304 -0.220377,-0.0245 -0.443468,0 -0.665202,0 -0.177385,0 -0.354772,0 -0.532159,0 -0.177387,0 -0.356145,-0.022 -0.532162,0 -0.181433,0.0227 -0.354772,0.0887 -0.532159,0.13304 -0.177387,0.0444 -0.354775,0.0887 -0.532162,0.13304 -0.530849,0.13271 -1.07038,0.2488 -1.596482,0.39912 -0.13484,0.0385 -0.260792,0.10998 -0.399119,0.13304 -0.131231,0.0219 -0.268666,-0.0261 -0.399121,0 -0.09724,0.0195 -0.169879,0.10899 -0.266081,0.13304 -0.08605,0.0215 -0.177387,0 -0.266081,0 -0.08869,0 -0.180033,0.0215 -0.266078,0 -0.0962,-0.024 -0.172009,-0.10168 -0.266081,-0.13304 -0.116285,-0.0388 -0.718108,0.0401 -0.798243,0 -0.05609,-0.0281 -0.08869,-0.0887 -0.13304,-0.13304"
       id="path8"
       inkscape:connector-curvature="0" />
    <path
       style="fill:none;stroke:#000000;stroke-width:0.26458332px;stroke-linecap:butt;stroke-linejoin:miter;stroke-opacity:1"
       d="m 111.22158,277.31005 c 0.13496,0.31622 0.13304,0.50281 0.13304,0.79824 0,0.0444 0.0198,0.0934 0,0.13304 -0.44124,0.44125 0.0627,-0.12543 -0.13304,0.26609 -0.0281,0.0561 -0.105,0.0769 -0.13304,0.13304 -0.0198,0.0397 0.0198,0.0934 0,0.13304 -0.028,0.0561 -0.105,0.0769 -0.13304,0.13304 -0.0199,0.0397 0.0314,0.10168 0,0.13304 -0.0314,0.0313 -0.0934,-0.0199 -0.13304,0 -0.3288,0.16439 0.0459,0.13304 -0.26608,0.13304 -0.0444,0 -0.0887,0 -0.13304,0 -0.0443,0 -0.10169,0.0314 -0.13304,0 -0.0314,-0.0314 0,-0.0887 0,-0.13304 0,-0.17739 0,-0.35478 0,-0.53216 0,-0.12491 -0.0254,-0.58897 0,-0.66521 0.0198,-0.0595 0.10499,-0.0769 0.13304,-0.13303 0.0532,-0.10644 -0.0532,-0.29269 0,-0.39913 0.0281,-0.0561 0.10499,-0.0769 0.13304,-0.13304 0.0198,-0.0397 -0.0314,-0.10168 0,-0.13304 0.0314,-0.0313 0.10168,0.0314 0.13304,0 0.0314,-0.0313 -0.0314,-0.10168 0,-0.13304 0.0314,-0.0314 0.0934,0.0199 0.13304,0 0.0561,-0.028 0.0769,-0.10499 0.13304,-0.13304 0.0793,-0.0397 0.20336,0.0627 0.26608,0 0.0314,-0.0314 -0.0314,-0.10168 0,-0.13304 0.0314,-0.0314 0.0887,0 0.13304,0 0.0443,0 0.0934,-0.0198 0.13304,0 0.0561,0.0281 0.0769,0.105 0.13304,0.13304 0.0397,0.0198 0.0934,-0.0198 0.13304,0 0.11219,0.0561 0.15389,0.20999 0.26608,0.26608 0.18351,0.0918 0.119,-0.16111 0.26608,0.13304 0.0198,0.0397 -0.0198,0.0934 0,0.13304 0.0281,0.0561 0.10499,0.077 0.13304,0.13304 0.0397,0.0793 -0.0397,0.18676 0,0.26609 0.028,0.0561 0.13304,0.0703 0.13304,0.13303 0,0.0627 -0.10499,0.0769 -0.13304,0.13304 -0.0397,0.0793 0.0397,0.18675 0,0.26608 -0.0281,0.0561 -0.10499,0.077 -0.13304,0.13305 -0.0198,0.0397 0.0198,0.0934 0,0.13304 -0.028,0.0561 -0.0887,0.0887 -0.13304,0.13304 -0.0444,0.0443 -0.077,0.10499 -0.13304,0.13304 -0.0397,0.0198 -0.10168,-0.0314 -0.13304,0 -0.0314,0.0314 0.0314,0.10168 0,0.13304 -0.0314,0.0313 -0.0934,-0.0199 -0.13304,0 -0.0561,0.028 -0.0769,0.10499 -0.13304,0.13304 -0.0405,0.0202 -0.33921,0 -0.39912,0 -0.0444,0 -0.10169,0.0313 -0.13304,0 -0.004,-0.004 0,-0.36686 0,-0.39912"
       id="path12"
       inkscape:connector-curvature="0" />
    <path
       style="fill:none;stroke:#000000;stroke-width:0.26458332px;stroke-linecap:butt;stroke-linejoin:miter;stroke-opacity:1"
       d="m 163.10724,198.68332 c 0.0452,-0.19172 0.4516,0.37288 0.6652,0.26608 0.0561,-0.0281 0.077,-0.105 0.13304,-0.13304 0.0397,-0.0198 0.0934,0.0198 0.13304,0 0.0561,-0.0281 0.0769,-0.105 0.13304,-0.13304 0.0568,-0.0284 0.61261,0 0.6652,0 0.0444,0 0.0887,0 0.13304,0 0.0444,0 0.0934,-0.0198 0.13304,0 0.11219,0.0561 0.1539,0.20998 0.26609,0.26608 0.0397,0.0198 0.0934,-0.0198 0.13304,0 0.0561,0.028 0.0887,0.0887 0.13304,0.13304 0.0443,0.0443 0.1132,0.0735 0.13303,0.13304 0.14709,0.44124 -0.0413,0.12385 -0.13303,0.39912 -0.0281,0.0841 0.0215,0.18003 0,0.26608 -0.0805,0.32203 -0.20033,0.2671 -0.39912,0.53216 -0.0595,0.0793 -0.078,0.18357 -0.13305,0.26608 -0.40631,0.60947 0.21623,-0.5655 -0.26608,0.39912 -0.0443,0.0887 -0.0629,0.19596 -0.13304,0.26608 -0.0701,0.0701 -0.19596,0.0629 -0.26608,0.13304 -0.0701,0.0701 -0.0629,0.19596 -0.13304,0.26608 -0.0701,0.0701 -0.18357,0.078 -0.26608,0.13304 -0.0522,0.0348 -0.0809,0.0982 -0.13304,0.13304 -0.0825,0.055 -0.18357,0.078 -0.26608,0.13304 -0.10436,0.0696 -0.16171,0.1965 -0.26608,0.26608 -0.0825,0.055 -0.18357,0.078 -0.26608,0.13304 -0.0522,0.0348 -0.0769,0.10499 -0.13304,0.13304 -0.0397,0.0198 -0.0934,-0.0198 -0.13304,0 -0.11219,0.0561 -0.15389,0.20999 -0.26608,0.26608 -0.0397,0.0198 -0.10168,-0.0314 -0.13304,0 -0.0314,0.0314 0.0314,0.10168 0,0.13304 -0.0314,0.0314 -0.13304,0.0443 -0.13304,0 0,-0.0443 0.10168,-0.0314 0.13304,0 0.0314,0.0314 -0.0314,0.10168 0,0.13304 0.0314,0.0314 0.0887,0 0.13304,0 0.26608,0 0.53216,0 0.79824,0 0.35478,0 0.70955,0 1.06432,0 0.0887,0 0.17739,0 0.26608,0 0.0887,0 0.18004,0.0215 0.26608,0 0.0962,-0.0241 0.16988,-0.10899 0.26609,-0.13304 0.086,-0.0215 0.17738,0 0.26608,0 0.31042,0 0.62085,0 0.93128,0"
       id="path24"
       inkscape:connector-curvature="0" />
    <path
       style="fill:none;stroke:#000000;stroke-width:0.26458332px;stroke-linecap:butt;stroke-linejoin:miter;stroke-opacity:1"
       d="m 101.11052,278.90654 c 0.17739,0.0443 0.34932,0.13304 0.53217,0.13304 0.0627,0 0.0735,-0.11321 0.13304,-0.13304 0.0841,-0.0281 0.17738,0 0.26608,0 0.26608,0 0.53216,0 0.79824,0 0.0887,0 0.18003,0.0215 0.26608,0 0.0962,-0.024 0.16988,-0.10899 0.26608,-0.13304 0.16938,-0.0423 0.49242,0.0432 0.6652,0 0.13605,-0.034 0.26161,-0.10554 0.39912,-0.13304 0.17394,-0.0348 0.35477,0 0.53216,0 0.53216,0 1.06432,0 1.59648,0 0.13304,0 0.26608,0 0.39912,0 0.13304,0 0.26789,0.0219 0.39912,0 0.13833,-0.0231 0.26161,-0.10554 0.39912,-0.13304 0.087,-0.0174 0.17739,0 0.26608,0 0.13304,0 0.26609,0 0.39913,0 0.0887,0 0.18003,0.0215 0.26607,0 0.0962,-0.0241 0.16988,-0.10899 0.26608,-0.13304 0.231,-0.0577 0.56726,0.0577 0.79825,0 0.0962,-0.0241 0.16988,-0.10899 0.26608,-0.13305 0.19916,-0.0498 0.58762,0.0421 0.79824,0 0.13751,-0.0275 0.2616,-0.10553 0.39912,-0.13304 0.087,-0.0174 0.17738,0 0.26608,0 0.13304,0 0.26866,0.0261 0.39912,0 0.0972,-0.0194 0.16884,-0.11359 0.26608,-0.13304 0.12912,-0.0258 0.90645,0 1.06432,0 0.0887,0 0.18004,0.0215 0.26608,0 0.0962,-0.0241 0.16988,-0.10899 0.26608,-0.13304 0.18122,-0.0453 0.63729,0.0537 0.79824,0 0.0595,-0.0198 0.0735,-0.1132 0.13304,-0.13303 0.16095,-0.0537 0.61702,0.0453 0.79824,0 0.0962,-0.024 0.17201,-0.10169 0.26608,-0.13304 0.088,-0.0293 0.66755,0 0.79824,0 0.51972,0 0.014,0.0397 0.53217,-0.13305 0.0421,-0.014 0.0887,0 0.13304,0 0.22173,0 0.44346,0 0.6652,0 0.0887,0 0.17911,0.0174 0.26608,0 0.13751,-0.0275 0.2616,-0.10553 0.39912,-0.13304 0.24636,-0.0493 0.68492,0.0493 0.93128,0 0.13751,-0.0275 0.2616,-0.10553 0.39912,-0.13304 0.087,-0.0174 0.18003,0.0215 0.26608,0 0.0962,-0.024 0.16988,-0.10899 0.26608,-0.13304 0.21511,-0.0538 0.44777,0.0435 0.6652,0 0.0972,-0.0194 0.16988,-0.10899 0.26608,-0.13304 0.0861,-0.0215 0.18003,0.0215 0.26608,0 0.0962,-0.024 0.16988,-0.10899 0.26608,-0.13304 0.0861,-0.0215 0.18004,0.0215 0.26608,0 0.0962,-0.024 0.16988,-0.10899 0.26608,-0.13304 0.21511,-0.0538 0.44778,0.0435 0.6652,0 0.0972,-0.0194 0.16988,-0.10899 0.26608,-0.13304 0.17209,-0.043 0.36007,0.043 0.53216,0 0.0962,-0.0241 0.16988,-0.10899 0.26609,-0.13304 0.086,-0.0215 0.17738,0 0.26607,0 0.26608,0 0.53217,0 0.79825,0 0.0887,0 0.17738,0 0.26607,0 0.0444,0 0.091,0.014 0.13304,0 0.0941,-0.0313 0.17201,-0.10168 0.26609,-0.13304 0.0751,-0.025 0.3117,0 0.39912,0 0.26608,0 0.53216,0 0.79824,0 0.0443,0 0.0887,0 0.13304,0 0.0443,0 0.0934,0.0199 0.13304,0 0.0561,-0.028 0.0769,-0.10499 0.13304,-0.13304 0.0397,-0.0198 0.0887,0 0.13304,0 0.0943,0 0.76384,0.0172 0.79824,0 0.0561,-0.0281 0.13304,-0.0703 0.13304,-0.13304 0,-0.0443 -0.10168,0.0314 -0.13304,0 -0.0314,-0.0314 0,-0.0887 0,-0.13304 0,-0.0443 0,-0.0887 0,-0.13304"
       id="path26"
       inkscape:connector-curvature="0" />
    <path
       style="fill:none;stroke:#000000;stroke-width:0.26458332px;stroke-linecap:butt;stroke-linejoin:miter;stroke-opacity:1"
       d="m 125.1908,273.58493 c -0.292,1.33996 0.48235,0.21627 0.6652,0.39912 0.0314,0.0314 -0.0314,0.10168 0,0.13304 0.0314,0.0314 0.0934,-0.0198 0.13304,0 0.0561,0.0281 0.0769,0.10499 0.13304,0.13304 0.0397,0.0198 0.0887,0 0.13304,0 0.0443,0.0444 0.0769,0.10499 0.13304,0.13304 0.0397,0.0198 0.10168,-0.0314 0.13304,0 0.27526,0.27526 -0.42064,-0.0108 0.13304,0.26608 0.0397,0.0198 0.0887,0 0.13304,0 0.0443,0.0444 0.0769,0.10499 0.13304,0.13304 0.0397,0.0199 0.0934,-0.0198 0.13304,0 0.0561,0.0281 0.0735,0.11321 0.13304,0.13304 0.0841,0.0281 0.17738,0 0.26608,0 0.0444,0 0.0934,-0.0198 0.13304,0 0.0561,0.0281 0.0769,0.10499 0.13304,0.13304 0.0793,0.0397 0.18675,-0.0397 0.26608,0 0.0561,0.0281 0.0769,0.10499 0.13304,0.13304 0.0397,0.0198 0.0934,-0.0198 0.13304,0 0.0561,0.028 0.0769,0.10499 0.13304,0.13304 0.0397,0.0198 0.0934,-0.0198 0.13304,0 0.0561,0.028 0.0887,0.0887 0.13304,0.13304 0.026,0.026 0.23092,0.1682 0.13304,0.26608 -0.0314,0.0314 -0.10168,-0.0314 -0.13304,0 -0.0314,0.0314 0.0314,0.10168 0,0.13304 -0.0314,0.0314 -0.10168,-0.0314 -0.13304,0 -0.0314,0.0314 0.0198,0.0934 0,0.13304 -0.028,0.0561 -0.0887,0.0887 -0.13304,0.13304 -0.13304,0.13304 -0.26608,0.26608 -0.39912,0.39912 -0.0443,0.0443 -0.0982,0.0809 -0.13304,0.13304 -0.055,0.0825 -0.078,0.18358 -0.13304,0.26608 0.0133,0.26357 -0.19596,0.0629 -0.26608,0.13304 -0.0701,0.0701 -0.0629,0.19596 -0.13304,0.26608 -0.0314,0.0314 -0.10168,-0.0313 -0.13304,0 -0.0314,0.0314 0.0198,0.0934 0,0.13304 -0.0424,0.0848 -0.56067,0.56067 -0.6652,0.6652 -0.0443,0.0444 -0.0887,0.0887 -0.13304,0.13304 -0.0443,0.0444 -0.0769,0.105 -0.13304,0.13305 -0.0397,0.0198 -0.10169,-0.0314 -0.13304,0 -0.27527,0.27526 0.42064,-0.0108 -0.13304,0.26608 -0.0397,0.0198 -0.10169,-0.0314 -0.13304,0 -0.0314,0.0313 0.0198,0.0934 0,0.13304 -0.028,0.0561 -0.105,0.0769 -0.13304,0.13304 -0.0199,0.0397 0.0443,0.13304 0,0.13304 -0.0443,0 0,-0.0887 0,-0.13304"
       id="path28"
       inkscape:connector-curvature="0" />
    <path
       style="fill:none;stroke:#000000;stroke-width:0.26458332px;stroke-linecap:butt;stroke-linejoin:miter;stroke-opacity:1"
       d="m 110.02422,264.13908 c -0.0443,0.17739 -0.13304,0.34931 -0.13304,0.53216 0,0.0627 0.10499,0.0769 0.13304,0.13304 0.0397,0.0793 -0.0397,0.18675 0,0.26608 0.028,0.0561 0.10499,0.0769 0.13304,0.13304 0.0202,0.0405 0,0.33921 0,0.39912 0,0.35477 0,0.70955 0,1.06432 0,0.0444 0,0.0887 0,0.13304 0,0.0444 -0.0198,0.0934 0,0.13304 0.19575,0.39151 0.13304,-0.20652 0.13304,0.39912 0,0.48782 0,0.97563 0,1.46344 0,0.13836 -0.0262,0.69359 0,0.79825 0.0241,0.0962 0.10899,0.16987 0.13304,0.26608 0.043,0.17209 -0.0561,0.36387 0,0.53216 0.0198,0.0595 0.1132,0.0735 0.13304,0.13304 0.028,0.0841 0,0.17738 0,0.26608 0,0.0887 0,0.17738 0,0.26608 0,0.26608 0,0.53216 0,0.79824 0,0.0887 0,0.17738 0,0.26608 0,0.0443 -0.014,0.091 0,0.13304 0.0314,0.0941 0.10168,0.172 0.13304,0.26608 0.014,0.0421 -0.014,0.091 0,0.13304 0.0314,0.0941 0.10168,0.17201 0.13304,0.26608 0.028,0.0841 -0.0281,0.18194 0,0.26608 0.0314,0.0941 0.10168,0.172 0.13304,0.26608 0.0373,0.11201 -0.0396,0.58599 0,0.6652 0.028,0.0561 0.11321,0.0735 0.13304,0.13304 0.0421,0.12621 -0.0421,0.27291 0,0.39912 0.0314,0.0941 0.10168,0.17201 0.13304,0.26608 0.0399,0.11974 -0.0399,0.27939 0,0.39912 0.0314,0.0941 0.10168,0.17201 0.13304,0.26608 0.0262,0.0785 0,0.59087 0,0.6652 0,0.0444 -0.0198,0.0934 0,0.13304 0.0281,0.0561 0.10499,0.077 0.13304,0.13304 0.0397,0.0793 -0.0397,0.18675 0,0.26608 0.028,0.0561 0.10499,0.077 0.13304,0.13304 0.0198,0.0397 -0.014,0.091 0,0.13304 0.0314,0.0941 0.10168,0.17201 0.13304,0.26608 0.0281,0.0842 -0.0397,0.18676 0,0.26609 0.0281,0.0561 0.10499,0.0769 0.13304,0.13304 0.0241,0.0481 0,0.57266 0,0.6652 0,0.17639 0,0.0897 0,0.26608 0,0.0443 0.0355,0.15964 0,0.13304 -0.20069,-0.15052 -0.35478,-0.35478 -0.53216,-0.53217"
       id="path34"
       inkscape:connector-curvature="0" />
    <path
       style="fill:none;stroke:#000000;stroke-width:0.26458332px;stroke-linecap:butt;stroke-linejoin:miter;stroke-opacity:1"
       d="m 107.09733,267.06596 c 0.17739,-0.17739 0.37545,-0.33627 0.53216,-0.53216 0.0277,-0.0346 -0.0198,-0.0934 0,-0.13304 0.028,-0.0561 0.0887,-0.0887 0.13304,-0.13304 0.0444,-0.0444 0.0887,-0.0887 0.13304,-0.13304 0.17739,-0.17739 0.35478,-0.35477 0.53217,-0.53216 0.0443,-0.0444 0.10499,-0.077 0.13303,-0.13304 0.0198,-0.0397 -0.0198,-0.0934 0,-0.13304 0.0798,-0.15965 0.3193,-0.23947 0.39912,-0.39912 0.0199,-0.0397 -0.0198,-0.0934 0,-0.13304 0.0561,-0.11219 0.20999,-0.15389 0.26609,-0.26608 0.0397,-0.0793 -0.0627,-0.20337 0,-0.26608 0.0313,-0.0314 0.0934,0.0198 0.13304,0 0.0739,-0.037 0.22318,-0.26608 0.26608,-0.26608 0.27684,0 0.0535,0.18657 0.13304,0.26608 0.0314,0.0314 0.10168,-0.0314 0.13304,0 0.0313,0.0314 -0.0199,0.0934 0,0.13304 0.27684,0.55368 -0.009,-0.14223 0.26608,0.13304 0.0314,0.0313 -0.0314,0.10168 0,0.13304 0.27526,0.27526 -0.0108,-0.42064 0.26608,0.13304 0.0198,0.0397 -0.0314,0.10168 0,0.13304 0.0314,0.0314 0.10168,-0.0314 0.13304,0 0.0314,0.0314 -0.0199,0.0934 0,0.13304 0.028,0.0561 0.10499,0.0769 0.13304,0.13304 0.0198,0.0397 -0.0199,0.0934 0,0.13304 0.0177,0.0353 0.36379,0.38146 0.39912,0.39912 0.0397,0.0198 0.0934,-0.0198 0.13304,0 0.13091,0.0655 0.40124,0.4667 0.53216,0.53216 0.0397,0.0198 0.10168,-0.0314 0.13304,0 0.0314,0.0314 -0.0314,0.10168 0,0.13304 0.0314,0.0314 0.0934,-0.0198 0.13304,0 0.11219,0.0561 0.15389,0.20999 0.26608,0.26608 0.35477,0 -0.0443,-0.0443 0.13304,0.13304 0.17739,0.17739 0.13304,-0.22173 0.13304,0.13304"
       id="path36"
       inkscape:connector-curvature="0" />
    <path
       style="fill:none;stroke:#000000;stroke-width:0.26458332px;stroke-linecap:butt;stroke-linejoin:miter;stroke-opacity:1"
       d="m 115.87798,272.91973 c -0.038,-0.62716 0.50841,0.15679 0.6652,0 0.0314,-0.0314 -0.0314,-0.10168 0,-0.13304 0.0701,-0.0701 0.19597,-0.0629 0.26608,-0.13304 0.0701,-0.0701 0.0629,-0.19596 0.13304,-0.26608 0.0701,-0.0701 0.19597,-0.0629 0.26609,-0.13304 0.0701,-0.0701 0.0629,-0.19597 0.13304,-0.26608 0.22612,-0.22613 0.55257,-0.32744 0.79824,-0.53216 0.14454,-0.12045 0.25626,-0.27668 0.39912,-0.39912 0.16835,-0.14431 0.36529,-0.25311 0.53216,-0.39912 0.18879,-0.1652 0.35477,-0.35478 0.53216,-0.53217 0.31043,-0.31042 0.62085,-0.62085 0.93128,-0.93128 0.17739,-0.17738 0.34337,-0.36696 0.53216,-0.53216 0.16687,-0.14601 0.36529,-0.2531 0.53216,-0.39912 0.1888,-0.16519 0.33414,-0.37814 0.53216,-0.53216 0.62629,-0.48711 0.77216,-0.35833 1.46344,-0.79824 0.23957,-0.15245 0.43556,-0.36514 0.6652,-0.53216 3.02124,-2.19726 -1.09953,0.8628 1.46345,-0.93128 0.23262,-0.16284 0.43257,-0.36932 0.6652,-0.53216 0.21184,-0.14829 0.44346,-0.26608 0.6652,-0.39912 0.44347,-0.26608 0.87831,-0.54709 1.3304,-0.79824 0.51932,-0.28852 1.08071,-0.50352 1.59648,-0.79824 0.27765,-0.15866 0.51221,-0.38915 0.79824,-0.53217 0.12543,-0.0627 0.27887,-0.0609 0.39912,-0.13304 0.10756,-0.0645 0.15853,-0.20154 0.26608,-0.26607 0.12025,-0.0722 0.26892,-0.081 0.39912,-0.13304 0.27192,-0.10877 0.53619,-0.2681 0.79824,-0.39913 0.0887,-0.0443 0.17201,-0.10168 0.26609,-0.13304 0.0421,-0.014 0.0934,0.0198 0.13304,0 0.0561,-0.028 0.0735,-0.1132 0.13304,-0.13304 0.0841,-0.028 0.18193,0.028 0.26607,0 0.0595,-0.0198 0.077,-0.10499 0.13305,-0.13304 0.0397,-0.0198 0.0934,0.0198 0.13304,0 0.0561,-0.028 0.0769,-0.10499 0.13304,-0.13304 0.0397,-0.0198 0.10168,0.0314 0.13304,0 0.0314,-0.0313 -0.0314,-0.10168 0,-0.13304 0.0314,-0.0313 0.0887,0 0.13304,0 0.26608,0 0.53216,0 0.79824,0 0.62085,0 1.2417,0 1.86256,0 0.14273,0 0.84334,0.0293 0.93128,0 0.0941,-0.0313 0.17201,-0.10168 0.26608,-0.13304 0.088,-0.0293 0.66755,0 0.79824,0 0.57651,0 1.15302,0 1.72952,0 0.61008,0 -0.14023,0.0281 0.6652,-0.13304 0.17395,-0.0348 0.35478,0 0.53217,0 0.1114,0 0.56402,-0.0253 0.6652,0 0.0962,0.024 0.172,0.10169 0.26608,0.13304 0.0421,0.014 0.0887,0 0.13304,0 0.0887,0 0.17738,0 0.26608,0 0.22173,0 0.44347,0 0.6652,0 0.0443,0 0.091,-0.014 0.13304,0 0.0941,0.0314 0.16988,0.10899 0.26608,0.13304 0.086,0.0215 0.18194,-0.028 0.26608,0 0.0595,0.0199 0.077,0.105 0.13304,0.13304 0.0397,0.0199 0.091,-0.014 0.13304,0 0.0941,0.0314 0.17201,0.10169 0.26608,0.13304 0.0421,0.014 0.0934,-0.0198 0.13304,0 0.0561,0.028 0.0735,0.11321 0.13304,0.13304 0.0841,0.028 0.18194,-0.028 0.26608,0 0.0595,0.0198 0.0769,0.105 0.13304,0.13304 0.0397,0.0198 0.0887,0 0.13304,0 0.19802,0 0.16981,-0.0198 0.39912,0.13304 0.44124,0.44124 -0.12543,-0.0627 0.26608,0.13304 0.0561,0.0281 0.077,0.105 0.13304,0.13305 0.0397,0.0198 0.0934,-0.0198 0.13304,0 0.0561,0.028 0.0769,0.10499 0.13304,0.13304 0.0793,0.0397 0.20337,-0.0627 0.26608,0 0.0314,0.0313 -0.0443,0.13304 0,0.13304 0.1644,0 0.13304,-0.18658 0.13304,-0.26608"
       id="path56"
       inkscape:connector-curvature="0" />
    <path
       style="fill:none;stroke:#000000;stroke-width:0.26458332px;stroke-linecap:butt;stroke-linejoin:miter;stroke-opacity:1"
       d="m 117.87359,267.8642 c -0.16829,0.23878 0.0841,0.54582 0,0.79824 -0.0198,0.0595 -0.11321,0.0736 -0.13305,0.13304 -0.028,0.0842 0.0215,0.18004 0,0.26608 -0.0241,0.0962 -0.10898,0.16988 -0.13303,0.26608 -0.0215,0.0861 0.028,0.18194 0,0.26609 -0.0199,0.0595 -0.0887,0.0887 -0.13304,0.13304 -0.0443,0.0887 -0.10899,0.16987 -0.13304,0.26607 -0.0215,0.0861 0.028,0.18194 0,0.26608 -0.0199,0.0595 -0.11321,0.0736 -0.13304,0.13305 -0.0203,0.0608 0.0296,0.47296 0,0.53216 -0.028,0.0561 -0.0887,0.0887 -0.13304,0.13304 0,0.0887 0.028,0.18194 0,0.26608 -0.0395,0.11841 -0.35965,0.2807 -0.39913,0.39912 -0.028,0.0841 0.028,0.18193 0,0.26608 -0.0397,0.11899 -0.20998,0.15389 -0.26608,0.26608 -0.0198,0.0397 0.014,0.091 0,0.13304 -0.32122,0.96366 0.0384,-0.20975 -0.26608,0.39912 -0.0202,0.0405 0,0.3392 0,0.39912 0,0.0444 0,0.0887 0,0.13304 0,0.0444 -0.0313,0.10168 0,0.13304 0.104,0.104 0.23145,-0.11572 0.26608,-0.13304 0.0793,-0.0397 0.18675,0.0397 0.26608,0 0.0561,-0.0281 0.0769,-0.10499 0.13304,-0.13304 0.0397,-0.0198 0.0887,0 0.13304,0 0.0443,-0.0444 0.0769,-0.10499 0.13305,-0.13304 0.0793,-0.0397 0.18193,0.0281 0.26608,0 0.0941,-0.0314 0.16987,-0.10899 0.26608,-0.13304 0.086,-0.0215 0.17738,0 0.26608,0 0.0887,0 0.17738,0 0.26608,0 0.71196,0 -0.30133,0.0281 0.6652,-0.13304 0.21871,-0.0365 0.44777,0.0435 0.6652,0 0.13751,-0.0275 0.2616,-0.10554 0.39912,-0.13304 0.087,-0.0174 0.17739,0 0.26608,0 0.17738,0 0.35477,0 0.53216,0 0.57651,0 1.15301,0 1.72952,0 0.0443,0 0.0934,0.0198 0.13304,0 0.12598,-0.063 0.21146,-0.35992 0.39912,-0.26608 0.76297,0.38148 1.50779,0.79824 2.26169,1.19736"
       id="path58"
       inkscape:connector-curvature="0" />
    <path
       style="fill:none;stroke:#000000;stroke-width:0.26458332px;stroke-linecap:butt;stroke-linejoin:miter;stroke-opacity:1"
       d="m 106.67947,277.38565 c -0.047,0.0627 -0.0941,0.12543 -0.14111,0.18815 -0.0157,0 -0.033,-0.007 -0.047,0 -0.0198,0.01 -0.0272,0.0371 -0.047,0.047 -0.014,0.007 -0.033,-0.007 -0.047,0 -0.0198,0.01 -0.0272,0.0371 -0.047,0.047 -0.014,0.007 -0.0359,-0.0111 -0.047,0 -0.0111,0.0111 0.007,0.033 0,0.047 -0.027,0.0539 -0.0981,0.0654 -0.14111,0.0941 -0.0184,0.0123 -0.0314,0.0314 -0.047,0.047 -0.0157,0.0157 -0.0347,0.0286 -0.047,0.047 -0.0194,0.0292 -0.0222,0.0693 -0.047,0.0941 -0.0248,0.0248 -0.0693,0.0222 -0.0941,0.047 -0.0248,0.0248 -0.026,0.066 -0.047,0.0941 -0.0399,0.0532 -0.10421,0.0858 -0.14111,0.14111 -0.0195,0.0292 -0.0222,0.0693 -0.047,0.0941 -0.0248,0.0248 -0.0693,0.0223 -0.0941,0.047 -0.0111,0.0111 0.005,0.0322 0,0.047 -0.0111,0.0333 -0.0276,0.0649 -0.047,0.0941 -0.0123,0.0184 -0.0272,0.0371 -0.047,0.047 -0.014,0.007 -0.04,-0.014 -0.047,0 0,0.26654 0.0314,0.0157 -0.047,0.0941 -0.0111,0.0111 0,0.0314 0,0.047 0,0.0784 0,0.15679 0,0.23518 0,0.0222 -0.002,0.23306 0,0.23519 0.0111,0.0111 0.033,-0.007 0.047,0 0.0463,0.0231 0.14186,0.165 0.18814,0.18814 0.014,0.007 0.0322,-0.005 0.047,0 0.17052,0.0568 0.0335,0.0223 0.14111,0.0941 0.0292,0.0194 0.0649,0.0276 0.0941,0.047 0.0184,0.0123 0.0314,0.0314 0.047,0.047 0.0314,0.0157 0.0649,0.0276 0.0941,0.047 0.0428,0.0285 0.0994,0.12026 0.14111,0.14111 0.014,0.007 0.0359,-0.0111 0.047,0 0.0248,0.0248 0.0222,0.0693 0.047,0.0941 0.0973,0.0973 -0.004,-0.14872 0.0941,0.047 0.0324,0.0649 -0.057,0.0421 0.047,0.0941 0.014,0.007 0.0359,-0.0111 0.047,0 0.0111,0.0111 -0.007,0.033 0,0.047 0.01,0.0198 0.0371,0.0272 0.047,0.047 0.014,0.028 -0.0222,0.0719 0,0.0941 0.0111,0.0111 0.033,-0.007 0.047,0 0.0198,0.01 0.0272,0.0371 0.047,0.047 0.0627,0.0313 0.047,-0.047 0.047,0.047"
       id="path82"
       inkscape:connector-curvature="0" />
    <path
       style="fill:none;stroke:#000000;stroke-width:0.26458332px;stroke-linecap:butt;stroke-linejoin:miter;stroke-opacity:1"
       d="m 116.1809,276.35084 c 0.0966,0.0377 -0.0828,0.16368 -0.047,0.23519 0.006,0.0125 0.12862,0.13486 0.14111,0.14111 0.014,0.007 0.033,-0.007 0.047,0 0.0198,0.01 0.0286,0.0347 0.047,0.047 0.0292,0.0194 0.0627,0.0314 0.0941,0.047 0.0627,0.0314 0.12543,0.0627 0.18815,0.0941 0.26649,0.13324 -0.0701,-0.0176 0.18814,0.047 0.034,0.008 0.0627,0.0314 0.0941,0.047 0.0314,0.0157 0.0649,0.0276 0.0941,0.047 0.0184,0.0123 0.026,0.04 0.047,0.047 0.0297,0.01 0.0643,-0.01 0.0941,0 0.021,0.007 0.0272,0.0371 0.047,0.047 0.014,0.007 0.033,-0.007 0.047,0 0.0198,0.01 0.0272,0.0371 0.047,0.047 0.014,0.007 0.033,-0.007 0.047,0 0.0397,0.0198 0.0544,0.0742 0.0941,0.0941 0.014,0.007 0.0359,-0.0111 0.047,0 0.0111,0.0111 -0.0111,0.036 0,0.047 0.0111,0.0111 0.0359,-0.0111 0.047,0 0.0111,0.0111 0,0.0314 0,0.047 0,0.0114 0.002,0.1396 0,0.14111 -0.0111,0.0111 -0.0359,-0.0111 -0.047,0 -0.0222,0.0222 0.0222,0.0719 0,0.0941 -0.0111,0.0111 -0.0359,-0.0111 -0.047,0 -0.0111,0.0111 0.0111,0.036 0,0.047 -0.0111,0.0111 -0.0359,-0.0111 -0.047,0 -0.0111,0.0111 0.007,0.033 0,0.047 -0.10764,0.21527 0.0195,-0.1996 -0.0941,0.14111 -0.005,0.0149 0.007,0.033 0,0.047 -0.0198,0.0397 -0.0742,0.0544 -0.0941,0.0941 -0.0416,0.0833 0.07,0.0161 -0.047,0.0941 -0.0292,0.0195 -0.0693,0.0223 -0.0941,0.047 -0.0111,0.0111 0.0111,0.036 0,0.047 -0.0248,0.0248 -0.0649,0.0276 -0.0941,0.047 -0.0184,0.0123 -0.0286,0.0347 -0.047,0.047 -0.0292,0.0195 -0.066,0.026 -0.0941,0.047 -0.0355,0.0266 -0.0586,0.0675 -0.0941,0.0941 -0.028,0.021 -0.0693,0.0222 -0.0941,0.047 -0.0248,0.0248 -0.0222,0.0693 -0.047,0.0941 -0.0248,0.0248 -0.066,0.026 -0.0941,0.047 -0.20345,0.20345 0.0125,0.007 -0.18815,0.14111 -0.0184,0.0123 -0.0314,0.0314 -0.047,0.047 -0.0157,0.0157 -0.0347,0.0286 -0.047,0.047 -0.0195,0.0292 -0.0223,0.0693 -0.047,0.0941 -0.0111,0.0111 -0.033,-0.007 -0.047,0 -0.19575,0.0979 0.0503,-0.003 -0.047,0.0941 -0.0111,0.0111 -0.0359,-0.0111 -0.047,0 -0.002,0.002 0,0.17087 0,0.18815"
       id="path84"
       inkscape:connector-curvature="0" />
    <ellipse
       style="fill:#000000;fill-opacity:0.06313728;stroke:#000000;stroke-width:0.21320258;stroke-dasharray:0.21320259, 1.06601295;stroke-opacity:1;marker-start:none;marker-end:none"
       id="path47"
       cx="112.41796"
       cy="278.27936"
       rx="12.945775"
       ry="12.757629" />
    <text
       xml:space="preserve"
       style="font-style:normal;font-weight:normal;font-size:10.58333302px;line-height:1.25;font-family:sans-serif;letter-spacing:0px;word-spacing:0px;fill:#000000;fill-opacity:1;stroke:none;stroke-width:0.26458332"
       x="119.28533"
       y="204.80788"
       id="text53"><tspan
         sodipodi:role="line"
         id="tspan51"
         x="119.28533"
         y="204.80788"
         style="stroke-width:0.26458332">$\Omega \subset \mathbb{R}^2$</tspan></text>
    <text
       xml:space="preserve"
       style="font-style:normal;font-weight:normal;font-size:10.58333302px;line-height:1.25;font-family:sans-serif;letter-spacing:0px;word-spacing:0px;fill:#000000;fill-opacity:1;stroke:none;stroke-width:0.26458332"
       x="110.63055"
       y="284.77042"
       id="text57"><tspan
         sodipodi:role="line"
         id="tspan55"
         x="110.63055"
         y="284.77042"
         style="stroke-width:0.26458332">x</tspan></text>
    <text
       xml:space="preserve"
       style="font-style:normal;font-weight:normal;font-size:10.58333302px;line-height:1.25;font-family:sans-serif;letter-spacing:0px;word-spacing:0px;fill:#000000;fill-opacity:1;stroke:none;stroke-width:0.26458332"
       x="123.23642"
       y="291.26151"
       id="text61"><tspan
         sodipodi:role="line"
         id="tspan59"
         x="123.23642"
         y="291.26151"
         style="stroke-width:0.26458332">B(x)</tspan></text>
    <text
       xml:space="preserve"
       style="font-style:normal;font-weight:normal;font-size:10.58333302px;line-height:1.25;font-family:sans-serif;letter-spacing:0px;word-spacing:0px;fill:#000000;fill-opacity:1;stroke:none;stroke-width:0.26458332"
       x="150.61183"
       y="263.03943"
       id="text65"><tspan
         sodipodi:role="line"
         id="tspan63"
         x="150.61183"
         y="263.03943"
         style="stroke-width:0.26458332">$y_2=\phi(y_1)$</tspan></text>
    <text
       xml:space="preserve"
       style="font-style:normal;font-weight:normal;font-size:10.58333302px;line-height:1.25;font-family:sans-serif;letter-spacing:0px;word-spacing:0px;fill:#000000;fill-opacity:1;stroke:none;stroke-width:0.26458332"
       x="129.91565"
       y="277.24454"
       id="text69"><tspan
         sodipodi:role="line"
         id="tspan67"
         x="129.91565"
         y="277.24454"
         style="stroke-width:0.26458332">$y_1$</tspan></text>
    <text
       xml:space="preserve"
       style="font-style:normal;font-weight:normal;font-size:10.58333302px;line-height:1.25;font-family:sans-serif;letter-spacing:0px;word-spacing:0px;fill:#000000;fill-opacity:1;stroke:none;stroke-width:0.26458332"
       x="107.90242"
       y="261.62833"
       id="text73"><tspan
         sodipodi:role="line"
         id="tspan71"
         x="107.90242"
         y="261.62833"
         style="stroke-width:0.26458332">$y_1$</tspan></text>
    <text
       xml:space="preserve"
       style="font-style:normal;font-weight:normal;font-size:10.58333302px;line-height:1.25;font-family:sans-serif;letter-spacing:0px;word-spacing:0px;fill:#000000;fill-opacity:1;stroke:none;stroke-width:0.26458332"
       x="104.79799"
       y="274.98676"
       id="text77"><tspan
         sodipodi:role="line"
         id="tspan75"
         x="104.79799"
         y="274.98676"
         style="stroke-width:0.26458332">$\mathcal{N}$</tspan></text>
  </g>
</svg>
