<?xml version="1.0" encoding="UTF-8" standalone="no"?>
<!-- Created with Inkscape (http://www.inkscape.org/) -->

<svg
   xmlns:dc="http://purl.org/dc/elements/1.1/"
   xmlns:cc="http://creativecommons.org/ns#"
   xmlns:rdf="http://www.w3.org/1999/02/22-rdf-syntax-ns#"
   xmlns:svg="http://www.w3.org/2000/svg"
   xmlns="http://www.w3.org/2000/svg"
   xmlns:sodipodi="http://sodipodi.sourceforge.net/DTD/sodipodi-0.dtd"
   xmlns:inkscape="http://www.inkscape.org/namespaces/inkscape"
   width="240mm"
   height="120mm"
   viewBox="0 0 240 120"
   version="1.1"
   id="svg8"
   inkscape:version="0.92.3 (2405546, 2018-03-11)"
   sodipodi:docname="l3f2.svg">
  <defs
     id="defs2" />
  <sodipodi:namedview
     id="base"
     pagecolor="#ffffff"
     bordercolor="#666666"
     borderopacity="1.0"
     inkscape:pageopacity="0.0"
     inkscape:pageshadow="2"
     inkscape:zoom="2.8125141"
     inkscape:cx="310.82145"
     inkscape:cy="182.72055"
     inkscape:document-units="mm"
     inkscape:current-layer="layer1"
     showgrid="false"
     showborder="true"
     width="200mm"
     showguides="true"
     inkscape:guide-bbox="true"
     inkscape:window-width="2866"
     inkscape:window-height="1889"
     inkscape:window-x="134"
     inkscape:window-y="55"
     inkscape:window-maximized="1">
    <inkscape:grid
       type="xygrid"
       id="grid815"
       units="mm"
       spacingx="10"
       spacingy="10"
       empspacing="4"
       dotted="false" />
  </sodipodi:namedview>
  <metadata
     id="metadata5">
    <rdf:RDF>
      <cc:Work
         rdf:about="">
        <dc:format>image/svg+xml</dc:format>
        <dc:type
           rdf:resource="http://purl.org/dc/dcmitype/StillImage" />
        <dc:title />
      </cc:Work>
    </rdf:RDF>
  </metadata>
  <g
     inkscape:label="Layer 1"
     inkscape:groupmode="layer"
     id="layer1"
     transform="translate(0,-177)">
    <path
       style="fill:none;stroke:#000000;stroke-width:0.26458332px;stroke-linecap:butt;stroke-linejoin:miter;stroke-opacity:1"
       d="m 62.3708,231.0544 c -0.486336,0.1171 -0.08606,0.45433 -0.188148,0.65852 -0.01402,0.0281 -0.06272,0 -0.09407,0 -0.03136,0 -0.06602,0.014 -0.09407,0 -0.312002,-0.31201 0.08869,0.0443 -0.188148,-0.0941 -0.03966,-0.0198 -0.05441,-0.0742 -0.09407,-0.0941 -0.02805,-0.014 -0.06433,0.01 -0.09407,0 -0.06652,-0.0222 -0.125434,-0.0627 -0.188148,-0.0941 -0.06272,-0.0314 -0.128021,-0.058 -0.188148,-0.0941 -0.09695,-0.0582 -0.181094,-0.13758 -0.28222,-0.18814 -0.640146,-0.32008 0.124508,0.20716 -0.658516,-0.28222 -0.132956,-0.0831 -0.239236,-0.20608 -0.376293,-0.28222 -0.147617,-0.082 -0.316638,-0.11827 -0.470369,-0.18815 -0.396258,-0.18012 -0.672409,-0.33382 -1.034809,-0.56444 -0.190772,-0.12141 -0.36912,-0.26236 -0.564443,-0.3763 -0.1817,-0.10599 -0.382741,-0.17623 -0.564441,-0.28222 -0.195321,-0.11394 -0.371862,-0.25778 -0.564441,-0.37629 -0.215313,-0.1325 -0.443204,-0.2438 -0.658516,-0.3763 -1.152581,-0.70928 0.05342,-0.0261 -1.222957,-0.84666 -0.212662,-0.13671 -0.443201,-0.24379 -0.658514,-0.3763 -0.192582,-0.11851 -0.371861,-0.25778 -0.564443,-0.37629 -0.21531,-0.1325 -0.443201,-0.24379 -0.658514,-0.37629 -0.192582,-0.11851 -0.371861,-0.25779 -0.564444,-0.3763 -0.623292,-0.38356 -1.293518,-0.68792 -1.88147,-1.12888 -0.195929,-0.14695 -0.368512,-0.32342 -0.564441,-0.47037 -0.180901,-0.13567 -0.389432,-0.2331 -0.564444,-0.37629 -0.171611,-0.14042 -0.298754,-0.32996 -0.470365,-0.47037 -0.0021,-0.002 -1.123355,-0.74857 -1.128885,-0.75259 -0.32477,-0.2362 -0.611751,-0.5223 -0.940736,-0.75259 -0.515123,-0.36059 -0.401,-0.17449 -0.846662,-0.56444 -0.133498,-0.11681 -0.234386,-0.26986 -0.376295,-0.3763 -0.112189,-0.0841 -0.262179,-0.10663 -0.376293,-0.18814 -0.21652,-0.15466 -0.360035,-0.3941 -0.564441,-0.56444 -0.08686,-0.0724 -0.202274,-0.1082 -0.282223,-0.18815 -0.07995,-0.0799 -0.115766,-0.19537 -0.188146,-0.28222 -0.08517,-0.10221 -0.188147,-0.18815 -0.282223,-0.28222 -0.156787,-0.15679 -0.313576,-0.31358 -0.470365,-0.47037 -0.08383,-0.0838 -0.292468,-0.29247 -0.376296,-0.37629 -0.06272,-0.0627 -0.117192,-0.13494 -0.188148,-0.18815 -0.05609,-0.0421 -0.132051,-0.052 -0.188145,-0.0941 -0.07096,-0.0532 -0.125434,-0.12543 -0.188148,-0.18814 -0.125431,-0.12543 -0.250865,-0.25087 -0.376296,-0.3763 -0.03135,-0.0314 -0.06271,-0.0627 -0.09407,-0.0941 -0.03136,-0.0314 -0.08005,-0.052 -0.09407,-0.0941 -0.01984,-0.0595 0,-0.12544 0,-0.18815 0,-0.0314 0.01402,-0.066 0,-0.0941 -0.01984,-0.0397 -0.07424,-0.0544 -0.09408,-0.0941 -0.01402,-0.028 0.01402,-0.066 0,-0.0941 -0.01984,-0.0397 -0.07424,-0.0544 -0.09407,-0.0941 -0.0024,-0.005 -0.0024,-0.2773 0,-0.28222 0.195755,-0.39151 -0.0065,0.10057 0.188148,-0.0941 0.02217,-0.0222 -0.02217,-0.0719 0,-0.0941 0.008,-0.008 0.235524,-0.0156 0.282221,0 0.06652,0.0222 0.121626,0.0719 0.188145,0.0941 0.02975,0.01 0.06272,0 0.09407,0 0.09407,0 0.188148,0 0.28222,0 0.06272,0 0.126649,-0.0123 0.188148,0 0.773481,0.25783 -0.198326,-0.0331 0.564441,0.0941 0.09781,0.0163 0.184055,0.08 0.282221,0.0941 0.124171,0.0178 0.251629,-0.0138 0.376295,0 1.266857,0.25338 -0.319788,-0.032 0.940734,0.0941 7.94e-4,7e-5 0.936773,0.18743 0.940737,0.18815 0.375333,0.0682 0.752589,0.12543 1.128884,0.18814 0.657408,0.10957 1.315011,0.19415 1.975546,0.28223 0.439576,0.0586 0.877454,0.12953 1.31703,0.18814 0.250597,0.0334 0.504682,0.0445 0.752589,0.0941 0.223856,0.0448 0.434136,0.14607 0.658516,0.18814 0.279093,0.0523 0.564441,0.0627 0.846661,0.0941 0.282221,0.0314 0.564441,0.0627 0.846662,0.0941 0.282223,0.0314 0.567025,0.0447 0.846664,0.0941 0.254648,0.0449 0.49794,0.14321 0.752588,0.18815 0.279636,0.0494 0.564441,0.0627 0.846662,0.0941 0.147394,0.0164 1.411187,0.15288 1.599252,0.18814 0.254154,0.0477 0.501725,0.12543 0.752589,0.18815 0.282221,0.0314 0.567026,0.0447 0.846662,0.0941 0.254648,0.0449 0.498435,0.14049 0.752588,0.18815 0.478888,0.0898 0.935337,0.0862 1.411105,0.18815 0.223221,0.0478 0.436073,0.13681 0.658514,0.18814 0.371716,0.0858 0.752589,0.12544 1.128884,0.18815 0.188148,0.0314 0.379394,0.0478 0.564441,0.0941 0.192405,0.0481 0.372039,0.14004 0.564441,0.18814 0.18505,0.0463 0.376296,0.0627 0.564444,0.0941 0.503272,0.0839 1.006901,0.17149 1.505177,0.28222 0.252426,0.0561 0.503955,0.11711 0.752589,0.18814 0.313158,0.0895 0.305607,0.12933 0.658513,0.18815 0.06186,0.0103 0.125434,0 0.188148,0 0.09408,0.0314 0.184986,0.0746 0.282221,0.0941 0.0615,0.0123 0.127304,-0.0152 0.188148,0 0.06802,0.017 0.120123,0.0771 0.188147,0.0941 0.121688,0.0304 0.254609,-0.0304 0.376293,0 0.06803,0.017 0.120124,0.0771 0.188148,0.0941 0.209997,0.0525 0.186021,-0.0307 0.376296,-0.0941 0.0792,-0.0264 0.414359,0.028 0.470368,0 0.03966,-0.0198 0.05441,-0.0742 0.09407,-0.0941 0.07526,-0.0376 0.206962,0.0376 0.28222,0 0.03967,-0.0198 0.05441,-0.0742 0.09407,-0.0941 0.02805,-0.014 0.06603,0.014 0.09408,0 0.03966,-0.0198 0.05441,-0.0742 0.09407,-0.0941 0.02805,-0.014 0.06603,0.014 0.09408,0 0.112887,-0.0564 0.169331,-0.22578 0.282221,-0.28222 0.166531,-0.0833 0.03214,0.13993 0.188145,-0.0941 0.0389,-0.0583 0.05518,-0.1298 0.09408,-0.18814 0.02461,-0.0369 0.06947,-0.0572 0.09407,-0.0941 0.11031,-0.16546 0.111654,-0.27914 0.188147,-0.47037 0.188148,-0.47036 0,0.18815 0.282221,-0.56444 0.0454,-0.12106 0.05319,-0.25363 0.09407,-0.37629 0.106801,-0.3204 0.260876,-0.62334 0.376295,-0.94074 0.224475,-0.6173 0.357148,-1.25959 0.564441,-1.88147 0.16945,-0.50835 0.386104,-0.99988 0.564444,-1.50518 0.09901,-0.28052 0.18321,-0.56613 0.28222,-0.84666 0.773351,-2.19116 -0.231849,0.78962 0.564441,-1.59925 0.09407,-0.28222 0.202599,-0.56003 0.282221,-0.84666 0.07738,-0.27856 0.11077,-0.56811 0.188147,-0.84667 0.407504,-1.46701 0.172797,-0.22082 0.564441,-1.78739 0.07756,-0.31024 0.114078,-0.62965 0.188148,-0.94074 0.187801,-0.78877 0.344818,-1.20686 0.564441,-1.97555 0.09822,-0.34378 0.169159,-0.69562 0.28222,-1.03481 0.106802,-0.3204 0.269494,-0.62033 0.376296,-0.94073 0.113062,-0.33919 0.169159,-0.69562 0.282221,-1.03481 0.106801,-0.3204 0.250862,-0.62716 0.376293,-0.94074 0.125433,-0.31358 0.245234,-0.62947 0.376295,-0.94073 0.119846,-0.28464 0.256448,-0.56203 0.376293,-0.84667 0.131062,-0.31126 0.250865,-0.62715 0.376296,-0.94073 0.125431,-0.31358 0.259538,-0.62383 0.376293,-0.94074 0.102844,-0.27914 0.1744,-0.5694 0.282223,-0.84666 0.111938,-0.28784 0.250862,-0.56444 0.376293,-0.84666 0.125431,-0.28222 0.250862,-0.56444 0.376296,-0.84667 0.250862,-0.56444 0.489582,-1.13443 0.752589,-1.69332 0.326236,-0.69326 0.384172,-0.76638 0.752589,-1.4111 0.250862,-0.43901 0.512868,-0.87184 0.752588,-1.31703 0.09973,-0.18522 0.181491,-0.37978 0.282221,-0.56445 0.08756,-0.16052 0.200448,-0.30682 0.28222,-0.47036 0.07552,-0.15104 0.106138,-0.32276 0.188148,-0.47037 0.07614,-0.13706 0.199123,-0.24334 0.282221,-0.3763 0.07432,-0.11892 0.11857,-0.25453 0.188147,-0.37629 0.05609,-0.0982 0.125431,-0.18815 0.188146,-0.28222 0.06272,-0.0941 0.117517,-0.19394 0.188148,-0.28222 0.110812,-0.13852 0.250862,-0.25087 0.376295,-0.3763 0.06271,-0.0627 0.117192,-0.13493 0.188145,-0.18814 0.05609,-0.0421 0.138568,-0.0445 0.188148,-0.0941 0.04958,-0.0496 0.03798,-0.14607 0.09407,-0.18815 0.07933,-0.0595 0.190153,-0.0572 0.282223,-0.0941 0.426305,-0.17052 0.01302,-0.009 0.28222,-0.18815 0.05834,-0.0389 0.120121,-0.0771 0.188148,-0.0941 0.01098,-0.003 0.461217,-0.003 0.470366,0 0.04207,0.014 0.05718,0.0695 0.09408,0.0941 0.05834,0.0389 0.129805,0.0552 0.188148,0.0941 0.147521,0.0984 0.117322,0.19923 0.188145,0.37629 0.02604,0.0651 0.06803,0.12305 0.09408,0.18815 0.0568,0.142 0.171927,0.52876 0.188146,0.65851 0.01556,0.12447 -0.01384,0.25163 0,0.3763 0.253373,1.26686 -0.03198,-0.31979 0.09408,0.94073 0.0159,0.15911 0.0796,0.31114 0.09407,0.47037 0.01704,0.18738 -0.01704,0.37707 0,0.56444 0.01447,0.15924 0.07816,0.31127 0.09408,0.47037 0.01561,0.15601 -0.01561,0.31436 0,0.47037 0.231944,1.15973 -0.01098,-0.21474 0.09407,0.94074 0.02522,0.2772 0.136435,0.75039 0.188148,1.03481 0.06824,0.37533 0.119904,0.75355 0.188145,1.12888 0.0286,0.15731 0.052,0.31611 0.09408,0.47037 0.05218,0.19133 0.140046,0.37204 0.188148,0.56444 0.04626,0.18505 0.04781,0.37939 0.09407,0.56444 0.413107,1.23932 -0.0028,-0.10623 0.282221,1.12888 0.125148,0.54231 0.218019,0.70857 0.376295,1.22296 0.200795,0.65259 0.388512,1.31582 0.564441,1.97555 0.133255,0.4997 0.257842,1.00175 0.376293,1.50517 0.06622,0.28142 0.110771,0.56811 0.188148,0.84667 0.07962,0.28663 0.2026,0.56002 0.282221,0.84666 0.240376,0.86535 0.324067,1.76871 0.564443,2.63406 0.07962,0.28663 0.2026,0.56003 0.282221,0.84666 0.122973,0.44271 0.280273,1.35531 0.376293,1.7874 0.05609,0.25243 0.128921,0.50088 0.188148,0.75259 0.06622,0.28142 0.12193,0.56524 0.188147,0.84666 0.05923,0.25171 0.140494,0.49844 0.188146,0.75259 0.300095,1.60051 -0.145159,-0.0975 0.282223,1.50518 0.204353,0.76633 0.458165,1.52171 0.752588,2.25776 0.125431,0.31358 0.239126,0.63212 0.376293,0.94074 0.05696,0.12815 0.125432,0.25086 0.188148,0.37629 0.06271,0.12544 0.118571,0.25454 0.188148,0.3763 0.112189,0.19633 0.275167,0.36219 0.376293,0.56444 0.04435,0.0887 0.04973,0.19353 0.09408,0.28222 0.220863,0.44173 0.141414,0.11836 0.28222,0.47037 0.03683,0.0921 0.04973,0.19353 0.09407,0.28222 0.01984,0.0397 0.06947,0.0572 0.09407,0.0941 0.09649,0.14473 0.09166,0.23156 0.188148,0.37629 0.02461,0.0369 0.06272,0.0627 0.09408,0.0941 0.09407,0.0941 0.188145,0.18815 0.282221,0.28222 0.03135,0.0314 0.07424,0.0544 0.09407,0.0941 0.01402,0.028 -0.02217,0.0719 0,0.0941 0.02217,0.0222 0.0719,-0.0222 0.09407,0 0.194643,0.19464 -0.297437,-0.008 0.09408,0.18815 0.02805,0.014 0.06603,-0.014 0.09407,0 0.03967,0.0198 0.05441,0.0742 0.09408,0.0941 0.07526,0.0376 0.20696,-0.0376 0.28222,0 0.03966,0.0199 0.05441,0.0742 0.09407,0.0941 0.05712,0.0286 0.507317,-0.0286 0.564441,0 0.03967,0.0198 0.05441,0.0742 0.09407,0.0941 0.05103,0.0255 0.350555,-0.0257 0.376293,0 0.02217,0.0222 -0.02217,0.0719 0,0.0941 0.02217,0.0222 0.06272,0 0.09408,0 0.03136,0 0.06602,0.014 0.09407,0 0.03966,-0.0198 0.05441,-0.0742 0.09407,-0.0941 0.0561,-0.0281 0.143801,0.0443 0.188148,0 0.02217,-0.0222 -0.02217,-0.0719 0,-0.0941 0.02217,-0.0222 0.06272,0 0.09408,0 0.03136,0 0.06271,0 0.09407,0 0.188148,0 0.376294,0 0.564441,0 0.06272,0 0.127305,0.0152 0.188148,0 0.06802,-0.017 0.120124,-0.0771 0.188148,-0.0941 0.06084,-0.0152 0.128648,0.0199 0.188145,0 0.04207,-0.014 0.052,-0.08 0.09408,-0.0941 0.0595,-0.0198 0.126648,0.0123 0.188147,0 0.09723,-0.0195 0.184984,-0.0746 0.282221,-0.0941 0.0615,-0.0123 0.126648,0.0123 0.188145,0 0.194474,-0.0389 0.368816,-0.15554 0.564444,-0.18814 0.0928,-0.0155 0.18943,0.0154 0.28222,0 0.0978,-0.0163 0.18602,-0.07 0.28222,-0.0941 0.15512,-0.0388 0.31428,-0.0594 0.47037,-0.0941 0.43863,-0.0975 0.87438,-0.20174 1.31703,-0.28222 0.37533,-0.0682 0.75183,-0.13014 1.12888,-0.18815 0.21916,-0.0337 0.44171,-0.0476 0.65852,-0.0941 0.22322,-0.0478 0.43413,-0.14608 0.65851,-0.18815 0.2791,-0.0523 0.56947,-0.0325 0.84666,-0.0941 0.29041,-0.0645 0.55898,-0.20652 0.84667,-0.28222 0.30926,-0.0814 0.63049,-0.11059 0.94074,-0.18815 0.3176,-0.0794 0.62488,-0.19608 0.94073,-0.28222 1.71805,-0.46856 0.53133,-0.0883 2.16369,-0.56444 1.22821,-0.35823 2.44219,-0.76543 3.66887,-1.12889 0.43777,-0.12971 0.88097,-0.24096 1.31703,-0.37629 0.94707,-0.29392 1.87848,-0.63631 2.82221,-0.94074 0.50027,-0.16137 1.00491,-0.30899 1.50518,-0.47036 0.94374,-0.30444 1.87515,-0.64682 2.82221,-0.94074 1.18713,-0.36842 1.35977,-0.38616 2.53999,-0.65852 1.56457,-0.36105 0.81133,-0.20738 2.25776,-0.47036 0.34494,-0.0627 0.69041,-0.12255 1.03481,-0.18815 0.31414,-0.0598 0.6253,-0.13558 0.94074,-0.18815 0.24937,-0.0416 0.50172,-0.0627 0.75259,-0.0941 0.25086,-0.0314 0.50026,-0.0783 0.75259,-0.0941 0.25037,-0.0156 0.50172,0 0.75258,0 0.40766,0 0.81531,0 1.22296,0 0.34494,0 0.68987,0 1.03481,0 0.0941,0 0.18943,-0.0154 0.28222,0 0.0978,0.0163 0.18441,0.0778 0.28222,0.0941 0.34802,0.058 0.2013,-0.0853 0.47037,0.0941 0.0391,0.0261 0.35947,0.34265 0.3763,0.3763 0.01,0.0196 0,0.47033 0,0.47036 -0.017,0.068 -0.0771,0.12013 -0.0941,0.18815 -0.0149,0.0595 -0.005,0.6221 0,0.65852 0.0183,0.12799 0.078,0.248 0.0941,0.37629 0.0156,0.12446 -0.0156,0.25183 0,0.3763 0.016,0.12829 0.0687,0.24951 0.0941,0.37629 0.0374,0.18704 0.0512,0.37858 0.0941,0.56444 0.10267,0.44489 0.26556,0.87409 0.3763,1.31703 0.0701,0.28048 0.11077,0.56811 0.18814,0.84666 0.0796,0.28664 0.20652,0.55898 0.28222,0.84667 0.0814,0.30926 0.1003,0.63325 0.18815,0.94073 0.10083,0.35292 0.26943,0.68368 0.3763,1.03481 0.11293,0.37107 0.18814,0.75259 0.28222,1.12888 0.12543,0.40766 0.25086,0.81531 0.37629,1.22296 0.25086,0.81531 0.50173,1.63061 0.75259,2.44592 0.12543,0.40765 0.26926,0.81009 0.37629,1.22295 0.68395,2.63809 -0.11139,0.0298 0.56445,2.53999 0.11088,0.41185 0.26541,0.81111 0.37629,1.22296 0.34219,1.27097 0.20602,1.12296 0.56444,2.35184 0.11106,0.38078 0.26523,0.7481 0.3763,1.12888 0.21235,0.72809 0.32449,1.44385 0.56444,2.16369 0.58082,1.74248 0.19884,0.13473 0.65851,1.88147 0.0736,0.27959 0.10657,0.56931 0.18815,0.84667 0.0756,0.25703 0.1975,0.49841 0.28222,0.75259 0.42822,1.28466 -0.0453,0.0636 0.37629,1.22295 0.0577,0.1587 0.13963,0.30862 0.18815,0.47037 0.046,0.15315 0.0594,0.31428 0.0941,0.47037 0.028,0.12621 0.0758,0.2483 0.0941,0.37629 0.0133,0.0931 -0.0184,0.18998 0,0.28222 0.0138,0.0688 0.068,0.12305 0.0941,0.18815 0.0368,0.0921 0.07,0.18602 0.0941,0.28222 0.008,0.0304 0,0.0627 0,0.0941 0.0314,0.0627 0.0719,0.12162 0.0941,0.18814 0.01,0.0297 -0.014,0.066 0,0.0941 0.0198,0.0397 0.0742,0.0544 0.0941,0.0941 0.014,0.0281 0,0.0627 0,0.0941 0,0.0372 0.0201,0.43019 0,0.47037 -0.0251,0.0503 -0.23269,0.2327 -0.28222,0.28222 -0.0627,0.0627 -0.11719,0.13493 -0.18814,0.18815 -0.0561,0.0421 -0.12544,0.0627 -0.18815,0.0941 -0.12543,0.0627 -0.25086,0.12543 -0.3763,0.18815 -0.12543,0.0627 -0.24498,0.13891 -0.37629,0.18815 -0.12106,0.0454 -0.25364,0.0532 -0.37629,0.0941 -0.1602,0.0534 -0.30746,0.14372 -0.47037,0.18815 -0.18402,0.0502 -0.3763,0.0627 -0.56444,0.0941 -0.18815,0.0314 -0.37562,0.0671 -0.56444,0.0941 -0.50055,0.0715 -1.00574,0.10928 -1.50518,0.18814 -0.3463,0.0547 -0.68988,0.12544 -1.03481,0.18815 -0.34494,0.0627 -0.69159,0.11664 -1.03481,0.18815 -1.61558,0.33658 -0.84651,0.20154 -2.44591,0.65851 -0.46808,0.13374 -0.94618,0.23201 -1.41111,0.3763 -0.44522,0.13817 -0.87181,0.33219 -1.31703,0.47037 -0.92986,0.28857 -1.88966,0.47282 -2.82221,0.75258 -0.4749,0.14247 -0.93757,0.32341 -1.4111,0.47037 -0.87212,0.27066 -1.75853,0.49318 -2.63406,0.75259 -1.28112,0.37959 -1.14255,0.39784 -2.44592,0.65852 -0.37407,0.0748 -0.7561,0.10711 -1.12888,0.18814 -0.34937,0.0759 -0.687,0.19941 -1.03481,0.28223 -0.31109,0.0741 -0.62781,0.12226 -0.94074,0.18814 -0.5658,0.11912 -1.13237,0.23606 -1.69332,0.3763 -0.44294,0.11073 -0.88064,0.24202 -1.31703,0.37629 -0.18956,0.0583 -0.37311,0.13596 -0.56444,0.18815 -0.30852,0.0841 -0.6305,0.11059 -0.94074,0.18815 -0.0962,0.0241 -0.18441,0.0778 -0.28222,0.0941 -0.0928,0.0154 -0.18997,-0.0184 -0.28222,0 -0.17027,-0.0567 -0.17496,0.15239 -0.28222,0.18815 -0.0595,0.0198 -0.12865,-0.0198 -0.18815,0 -0.0421,0.014 -0.0544,0.0742 -0.0941,0.0941 -0.0561,0.028 -0.13206,-0.0281 -0.18815,0 -0.0397,0.0198 -0.0544,0.0742 -0.0941,0.0941 -0.0593,0.0297 -0.41102,-0.0297 -0.47037,0 -0.0397,0.0198 -0.0544,0.0742 -0.0941,0.0941 -0.028,0.014 -0.0627,0 -0.0941,0 -0.0627,0 -0.12543,0 -0.18815,0 -0.2195,0 -0.43901,0 -0.65851,0 -0.0941,0 -0.18943,-0.0155 -0.28222,0 -0.0978,0.0163 -0.18441,0.0778 -0.28222,0.0941 -0.0928,0.0155 -0.18943,-0.0155 -0.28222,0 -0.0978,0.0163 -0.18441,0.0778 -0.28222,0.0941 -0.44143,0.0736 -0.14984,-0.12393 -0.65852,0.0941 -0.10392,0.0445 -0.18109,0.13758 -0.28222,0.18814 -0.0887,0.0444 -0.20479,0.0321 -0.28222,0.0941 -0.0883,0.0706 -0.11577,0.19536 -0.18815,0.28222 -0.17034,0.20441 -0.39128,0.36242 -0.56444,0.56444 -0.42541,0.49631 -0.16251,0.27248 -0.56444,0.84666 -0.46828,0.66898 -0.32041,0.27849 -0.75259,1.03481 -0.13915,0.24352 -0.24507,0.50471 -0.37629,0.75259 -0.34418,0.65012 -0.64792,1.10414 -0.94074,1.7874 -0.14458,0.33736 -0.24255,0.69301 -0.3763,1.03481 -0.14854,0.37962 -0.33228,0.74533 -0.47036,1.12888 -0.14447,0.4013 -0.24631,0.81674 -0.3763,1.22296 -0.45198,1.41246 -0.32328,0.87993 -0.75259,2.35184 -0.10011,0.34323 -0.17381,0.69411 -0.28222,1.03481 -0.51195,1.609 -0.22135,0.45773 -0.75258,1.97555 -0.10816,0.309 -0.16905,0.63353 -0.28223,0.94073 -0.10676,0.2898 -0.25086,0.56444 -0.37629,0.84666 -0.12543,0.28222 -0.24479,0.56722 -0.37629,0.84667 -1.14368,2.43031 0.35265,-0.79939 -0.7526,1.4111 -0.10679,0.2136 -0.17541,0.44491 -0.28222,0.65852 -0.11306,0.22612 -0.25643,0.43591 -0.37629,0.65851 -0.0997,0.18521 -0.18815,0.3763 -0.28222,0.56444 -0.09408,0.18815 -0.181494,0.37977 -0.282221,0.56444 -0.08756,0.16052 -0.200451,0.30683 -0.282223,0.47037 -0.07552,0.15104 -0.106138,0.32275 -0.188145,0.47037 -0.07614,0.13706 -0.199123,0.24334 -0.282221,0.37629 -0.07433,0.11892 -0.11857,0.25454 -0.188147,0.3763 -0.112189,0.19633 -0.27517,0.36219 -0.376296,0.56444 -0.04435,0.0887 -0.04305,0.19719 -0.09407,0.28222 -0.09127,0.15211 -0.269862,0.23438 -0.376295,0.37629 -0.04207,0.0561 -0.04449,0.13857 -0.09407,0.18815 -0.04958,0.0496 -0.138565,0.0445 -0.188148,0.0941 -0.04958,0.0496 -0.04449,0.13856 -0.09407,0.18814 -0.04958,0.0496 -0.129804,0.0552 -0.188147,0.0941 -0.0369,0.0246 -0.05717,0.0695 -0.09407,0.0941 -0.05834,0.0389 -0.129805,0.0552 -0.188148,0.0941 -0.0369,0.0246 -0.05717,0.0695 -0.09407,0.0941 -0.05834,0.0389 -0.132054,0.052 -0.188148,0.0941 -0.07096,0.0532 -0.117192,0.13493 -0.188148,0.18815 -0.05609,0.0421 -0.125431,0.0627 -0.188148,0.0941 -0.125431,0.0627 -0.246086,0.13607 -0.376293,0.18815 -0.09207,0.0368 -0.190151,0.0572 -0.282221,0.0941 -0.0651,0.026 -0.118983,0.0825 -0.188147,0.0941 -0.123725,0.0206 -0.252124,-0.0177 -0.376296,0 -0.09817,0.014 -0.184407,0.0778 -0.282221,0.0941 -0.09279,0.0155 -0.188145,0 -0.28222,0 -0.125431,0 -0.25183,0.0156 -0.376293,0 -0.341564,-0.0427 -0.445892,-0.12887 -0.752589,-0.28222 -0.313346,-0.15667 -0.551354,-0.26365 -0.846664,-0.47037 -0.164491,-0.11514 -0.307983,-0.2582 -0.470368,-0.37629 -0.182875,-0.133 -0.38354,-0.24062 -0.564441,-0.3763 -0.135308,-0.10148 -1.147228,-0.9649 -1.222957,-1.03481 -0.195517,-0.18048 -0.369459,-0.38338 -0.564441,-0.56444 -0.244269,-0.22682 -0.516882,-0.42281 -0.752589,-0.65851 -0.472532,-0.47254 -0.905875,-1.07846 -1.317029,-1.59925 -0.639046,-0.80946 -0.975874,-1.15216 -1.505178,-2.06963 -0.245279,-0.42514 -0.439012,-0.87802 -0.658516,-1.31703 -0.219506,-0.43901 -0.451821,-0.87184 -0.658516,-1.31703 -0.201134,-0.43321 -0.376293,-0.87801 -0.564441,-1.31702 -0.188148,-0.43902 -0.376296,-0.87803 -0.564441,-1.31704 -0.188148,-0.43901 -0.364289,-0.88336 -0.564444,-1.31703 -0.176299,-0.38198 -0.376293,-0.75259 -0.564441,-1.12888 -0.188147,-0.37629 -0.362984,-0.75954 -0.56444,-1.12888 -0.441757,-0.80989 -0.637247,-1.0276 -1.128885,-1.7874 -0.160708,-0.24837 -0.295423,-0.51403 -0.470368,-0.75259 -0.170966,-0.23314 -0.377696,-0.43782 -0.564441,-0.65852 -0.1582,-0.18696 -0.297188,-0.39126 -0.470368,-0.56444 -0.02614,-0.0261 -0.940975,-0.78695 -1.03481,-0.84666 -0.177466,-0.11294 -0.384064,-0.17399 -0.564441,-0.28222 -0.26889,-0.16134 -0.486674,-0.39825 -0.752588,-0.56444 -0.684083,-0.42755 -0.0631,0.0133 -0.752589,-0.28222 -0.103921,-0.0445 -0.174961,-0.1524 -0.282221,-0.18815 -0.08925,-0.0298 -0.188147,0 -0.28222,0 -0.09408,0 -0.188148,0 -0.282223,0 -0.219504,0 -0.43901,0 -0.658514,0 -0.06272,0 -0.125431,0 -0.188147,0 -0.03136,0 -0.06603,-0.014 -0.09407,0 -0.03967,0.0198 -0.05441,0.0742 -0.09408,0.0941 -0.02863,0.0143 -0.239853,0 -0.282221,0 -0.22062,0 0.04435,0.0222 -0.188148,-0.0941 -0.02109,-0.0105 -0.353938,0 -0.376293,0 -0.125431,0 -0.253299,-0.0246 -0.376295,0 -0.09724,0.0195 -0.184407,0.0778 -0.282221,0.0941 -0.09279,0.0155 -0.189092,-0.0133 -0.28222,0 -0.127992,0.0183 -0.247793,0.0798 -0.376293,0.0941 -0.155832,0.0173 -0.314357,-0.0156 -0.470369,0 -0.159102,0.0159 -0.313052,0.0655 -0.470368,0.0941 -0.187666,0.0341 -0.375917,0.0651 -0.564441,0.0941 -0.438311,0.0674 -0.877453,0.12953 -1.317032,0.18814 -0.250598,0.0334 -0.503214,0.0525 -0.752589,0.0941 -0.315436,0.0526 -0.627158,0.12543 -0.940737,0.18814 -0.627155,0.12543 -1.257797,0.23455 -1.88147,0.3763 -0.37823,0.086 -0.749861,0.19982 -1.128885,0.28222 -0.342587,0.0745 -0.695571,0.0997 -1.034809,0.18814 -0.383804,0.10013 -0.746924,0.26935 -1.128882,0.3763 -2.444183,0.68437 -0.03526,-0.11123 -2.351841,0.56444 -0.380783,0.11106 -0.748099,0.26523 -1.128882,0.37629 -1.174332,0.34252 -1.03251,0.20452 -2.163694,0.56445 -0.349755,0.11128 -0.685054,0.265 -1.034809,0.37629 -0.340704,0.10841 -0.689874,0.18815 -1.034809,0.28222 -0.344937,0.0941 -0.689875,0.18815 -1.034809,0.28222 -0.689875,0.18815 -1.382065,0.368 -2.069621,0.56444 -0.629579,0.17988 -1.254313,0.3763 -1.881471,0.56445 -0.313579,0.0941 -0.631732,0.17407 -0.940737,0.28222 -0.318772,0.11157 -0.623826,0.25953 -0.940736,0.37629 -0.55829,0.20569 -1.132271,0.36642 -1.693326,0.56444 -0.505293,0.17834 -0.996831,0.39499 -1.505177,0.56444 -0.433147,0.14439 -0.880642,0.24203 -1.31703,0.3763 -0.189555,0.0583 -0.372038,0.14004 -0.564441,0.18815 -0.185047,0.0463 -0.38042,0.0439 -0.564443,0.0941 -0.162917,0.0444 -0.308621,0.13962 -0.470366,0.18815 -0.153151,0.0459 -0.314283,0.0594 -0.470368,0.0941 -0.252426,0.0561 -0.503955,0.11711 -0.752589,0.18815 -0.09535,0.0272 -0.190151,0.0572 -0.28222,0.0941 -0.0651,0.026 -0.120124,0.0771 -0.188148,0.0941 -0.06084,0.0152 -0.125431,0 -0.188148,0 -0.188148,0 -0.376296,0 -0.564441,0 -0.03136,0 -0.0719,0.0222 -0.09407,0 -0.02217,-0.0222 -0.02217,-0.0719 0,-0.0941 0.02217,-0.0222 0.0719,0.0222 0.09407,0 0.02217,-0.0222 -0.01402,-0.066 0,-0.0941 0.01984,-0.0397 0.06947,-0.0572 0.09407,-0.0941 0.03889,-0.0583 0.052,-0.13205 0.09407,-0.18814 0.133041,-0.17739 0.326067,-0.30202 0.470368,-0.47037 0.10204,-0.11904 0.178975,-0.2583 0.282224,-0.3763 0.116808,-0.13349 0.263964,-0.239 0.376293,-0.37629 2.64e-4,-5.3e-4 0.938908,-1.31454 0.940736,-1.31703 0.185439,-0.25287 0.376293,-0.50173 0.564441,-0.75259 0.219506,-0.28222 0.446426,-0.55883 0.658516,-0.84666 0.800558,-1.08648 0.547643,-0.85813 1.411103,-1.97555 0.572008,-0.74024 1.221345,-1.41889 1.7874,-2.16369 0.300006,-0.39475 0.55154,-0.82455 0.846662,-1.22296 0.638442,-0.8619 1.337101,-1.67809 1.975545,-2.53998 0.321125,-0.43352 0.609516,-0.89118 0.940737,-1.31703 0.327848,-0.42152 0.716955,-0.79386 1.034809,-1.22296 0.310647,-0.41938 0.538734,-0.89566 0.846662,-1.31703 0.289007,-0.39548 0.64435,-0.73891 0.940736,-1.12889 0.514448,-0.74309 1.049666,-1.53643 1.59925,-2.25776 0.758188,-0.99512 0.704078,-0.78438 1.317033,-1.7874 1.601919,-2.62132 -0.627296,0.76133 1.034809,-1.50518 0.174942,-0.23856 0.310396,-0.50374 0.470368,-0.75259 0.122277,-0.19021 0.250862,-0.37629 0.376293,-0.56444 0.125431,-0.18814 0.24062,-0.38354 0.376296,-0.56444 0.146947,-0.19593 0.334515,-0.36066 0.470368,-0.56444 0.116684,-0.17503 0.176229,-0.38274 0.282221,-0.56444 0.113937,-0.19533 0.250862,-0.3763 0.376293,-0.56445 0.250864,-0.37629 0.48659,-0.76313 0.752588,-1.12888 0.1181,-0.16238 0.261152,-0.30587 0.376296,-0.47037 1.139741,-1.6282 -0.660225,0.75479 0.658516,-0.94073 0.192516,-0.24753 0.360365,-0.5145 0.564441,-0.75259 0.08658,-0.10101 0.197051,-0.18002 0.282221,-0.28222 0.07238,-0.0869 0.125431,-0.18815 0.188148,-0.28222 0.06271,-0.0941 0.129976,-0.18527 0.188145,-0.28222 0.07215,-0.12026 0.110357,-0.25961 0.188148,-0.3763 0.0492,-0.0738 0.125431,-0.12543 0.188147,-0.18815 0.09407,-0.0941 0.188148,-0.18814 0.282221,-0.28222 0.03136,-0.0314 0.07424,-0.0544 0.09407,-0.0941 0.01402,-0.0281 -0.02217,-0.0719 0,-0.0941 0.02217,-0.0222 0.0719,0.0222 0.09407,0 0.02217,-0.0222 -0.02217,-0.0719 0,-0.0941 0.02217,-0.0222 0.06271,0 0.09407,0 0.234358,0 0.188148,0.11171 0.188148,0.28222"
       id="path8"
       inkscape:connector-curvature="0" />
    <path
       style="fill:none;stroke:#000000;stroke-width:0.26458332px;stroke-linecap:butt;stroke-linejoin:miter;stroke-opacity:1"
       d="m 34.995381,264.73275 c 0.125431,-0.0627 0.240245,-0.15413 0.376293,-0.18815 0.0011,-2.6e-4 -0.0097,0.2725 0,0.28223 0.02217,0.0222 0.0719,-0.0222 0.09407,0 0.02217,0.0222 -0.01402,0.066 0,0.0941 0.01984,0.0397 0.07424,0.0544 0.09407,0.0941 0.01402,0.0281 -0.01402,0.066 0,0.0941 0.215268,0.43054 -0.03899,-0.3992 0.188148,0.28222 0.09334,0.28004 -0.222755,-0.19302 0.09407,0.28222 0.02461,0.0369 0.06947,0.0572 0.09407,0.0941 0.07779,0.11669 0.104005,0.26411 0.188148,0.3763 0.05322,0.0709 0.142515,0.11209 0.188148,0.18815 0.05102,0.085 0.04306,0.19718 0.09407,0.28222 0.04563,0.076 0.132741,0.11888 0.188147,0.18814 0.141259,0.17658 0.235035,0.38787 0.376296,0.56444 0.05541,0.0693 0.132739,0.11889 0.188145,0.18815 0.07063,0.0883 0.108202,0.20227 0.188148,0.28222 0.07995,0.0799 0.202274,0.1082 0.282221,0.18815 0.07995,0.0799 0.117517,0.19393 0.188148,0.28222 0.576064,0.57606 -0.118994,-0.15866 0.28222,0.37629 0.05322,0.071 0.125431,0.12544 0.188148,0.18815 0.03136,0.0314 0.07424,0.0544 0.09407,0.0941 0.01402,0.028 -0.01402,0.066 0,0.0941 0.01225,0.0245 0.167614,0.11461 0.09408,0.18815 -0.06921,0.0692 -0.169781,-0.0757 -0.188148,-0.0941"
       id="path10"
       inkscape:connector-curvature="0" />
    <path
       style="fill:none;stroke:#000000;stroke-width:0.26458332px;stroke-linecap:butt;stroke-linejoin:miter;stroke-opacity:1"
       d="m 37.535368,263.60387 c -5.29e-4,0.23647 -0.143378,0.43466 -0.188148,0.65851 -0.0123,0.0615 0.01984,0.12866 0,0.18815 -0.01402,0.0421 -0.07424,0.0544 -0.09407,0.0941 -0.01865,0.0373 0.01923,0.263 0,0.28223 -0.02217,0.0222 -0.0719,-0.0222 -0.09408,0 -0.02217,0.0222 0.01402,0.066 0,0.0941 -0.01984,0.0397 -0.07424,0.0544 -0.09407,0.0941 -0.01402,0.0281 0.01402,0.066 0,0.0941 -0.143441,0.28688 -0.07458,-0.17206 -0.188148,0.28222 -0.01521,0.0608 0.01521,0.1273 0,0.18814 -0.03401,0.13606 -0.136065,0.24609 -0.188148,0.3763 -0.03683,0.0921 -0.05725,0.19015 -0.09407,0.28222 -0.02604,0.0651 -0.06803,0.12304 -0.09407,0.18815 -0.110294,0.27573 -0.171929,0.57093 -0.282223,0.84666 -0.02604,0.0651 -0.06803,0.12304 -0.09407,0.18815 -0.232494,0.58123 0.03247,0.0291 -0.188148,0.47037 -0.09407,0.18814 -0.188145,0.37629 -0.28222,0.56444 -0.03136,0.0627 -0.05518,0.1298 -0.09407,0.18814 -0.02461,0.0369 -0.08005,0.052 -0.09407,0.0941 -0.01984,0.0595 0.01521,0.1273 0,0.18814 -0.113567,0.45428 -0.0447,-0.005 -0.188145,0.28223 -0.01402,0.028 0.01402,0.066 0,0.0941 -0.01984,0.0397 -0.07424,0.0544 -0.09408,0.0941 -0.01402,0.0281 0,0.0627 0,0.0941 0,0.0314 0,0.0627 0,0.0941"
       id="path12"
       inkscape:connector-curvature="0" />
    <path
       style="fill:none;stroke:#000000;stroke-width:0.26458332px;stroke-linecap:butt;stroke-linejoin:miter;stroke-opacity:1"
       d="m 40.451651,267.55496 c 0.2058,0.5382 0.387188,-0.0886 0.56444,0 0.03966,0.0198 0.05441,0.0742 0.09407,0.0941 0.129762,0.0649 0.08415,-0.11392 0.188148,0.0941 0.01402,0.0281 -0.02217,0.0719 0,0.0941 0.194641,0.19464 -0.0076,-0.29744 0.188148,0.0941 0.0503,0.10059 -0.0503,0.0875 0,0.18814 0.01984,0.0397 0.07424,0.0544 0.09407,0.0941 0.01159,0.0232 0.0068,0.44987 0,0.47036 -0.01402,0.0421 -0.07424,0.0544 -0.09407,0.0941 -0.04435,0.0887 -0.04306,0.19719 -0.09408,0.28222 -0.09127,0.15211 -0.265481,0.23778 -0.376294,0.37629 -0.07063,0.0883 -0.117517,0.19394 -0.188147,0.28222 -0.05541,0.0693 -0.125431,0.12543 -0.188148,0.18815 -0.06271,0.0627 -0.117192,0.13493 -0.188145,0.18815 -0.0561,0.0421 -0.138568,0.0445 -0.188148,0.0941 -0.006,0.006 -0.176467,0.35877 -0.188148,0.3763 -0.02461,0.0369 -0.06272,0.0627 -0.09407,0.0941 -0.03136,0.0314 -0.05441,0.0742 -0.09408,0.0941 -0.02805,0.014 -0.0719,-0.0222 -0.09407,0 -0.02217,0.0222 0.02217,0.0719 0,0.0941 -0.04181,0.0418 -0.177694,-0.0732 -0.09408,0.0941 0.06529,0.13058 0.167389,0.0941 0.282223,0.0941 0.658514,0 1.31703,0 1.975546,0 0.04236,0 0.25359,-0.0143 0.282221,0 0.03966,0.0198 0.05441,0.0743 0.09407,0.0941 0.05609,0.028 0.188148,-0.0627 0.188148,0 0,0.0444 -0.07424,0.0544 -0.09407,0.0941 -0.01402,0.0281 0.0099,0.0643 0,0.0941 -0.02217,0.0665 -0.06271,0.12543 -0.09407,0.18814"
       id="path14"
       inkscape:connector-curvature="0" />
    <path
       style="fill:none;stroke:#000000;stroke-width:0.26458332px;stroke-linecap:butt;stroke-linejoin:miter;stroke-opacity:1"
       d="m 17.403616,250.71579 c 0.125432,0.0314 0.256251,0.0461 0.376295,0.0941 0.06482,0.0259 0.210435,0.23436 0.282221,0.28222 0.05834,0.0389 0.125431,0.0627 0.188147,0.0941 0.06272,0.0627 0.117192,0.13493 0.188147,0.18815 0.05609,0.0421 0.132053,0.052 0.188147,0.0941 0.07095,0.0532 0.125432,0.12543 0.188148,0.18814 0.06272,0.0627 0.125431,0.12543 0.188147,0.18815 0.125431,0.12543 0.250863,0.25086 0.376294,0.37629 0.06272,0.0627 0.132741,0.11889 0.188147,0.18815 0.07063,0.0883 0.1082,0.20227 0.188148,0.28222 0.07995,0.0799 0.195364,0.11577 0.28222,0.18815 0.203259,0.16938 0.26711,0.30098 0.470368,0.47037 0.240898,0.20075 0.516597,0.35795 0.752589,0.56444 0.133498,0.11681 0.242798,0.25948 0.376295,0.37629 0.117996,0.10325 0.258298,0.17898 0.376294,0.28222 0.133497,0.11681 0.243714,0.25845 0.376294,0.3763 0.150072,0.13339 0.320298,0.2429 0.470368,0.37629 0.132581,0.11785 0.236274,0.26739 0.376295,0.3763 0.14433,0.11225 0.326038,0.16996 0.470368,0.28222 0.140021,0.1089 0.236274,0.26739 0.376294,0.37629 0.14433,0.11226 0.320575,0.17737 0.470368,0.28222 0.164493,0.11515 0.300971,0.2685 0.470368,0.3763 0.177469,0.11293 0.386974,0.16928 0.564442,0.28222 0.169397,0.1078 0.313579,0.25086 0.470368,0.37629 0.156789,0.12543 0.313579,0.25087 0.470369,0.3763 0.502558,0.40204 1.028811,0.78989 1.505178,1.22295 0.164068,0.14916 0.298754,0.32996 0.470368,0.47037 0.175009,0.14319 0.38354,0.24062 0.564441,0.3763 0.195929,0.14694 0.376293,0.31357 0.564441,0.47036 1.6871,1.40592 -0.420738,-0.34424 1.034809,0.84667 0.189553,0.15509 0.368512,0.32342 0.564441,0.47037 0.361802,0.27134 0.767085,0.48123 1.128884,0.75258 0.19593,0.14695 0.368512,0.32342 0.564441,0.47037 0.762,0.5715 0.366885,0.18109 1.128885,0.75259 0.771472,0.57861 0.329925,0.33402 1.034809,0.84666 0.182875,0.133 0.381566,0.2433 0.564441,0.3763 0.522914,0.3803 0.982263,0.84265 1.505177,1.22296 0.182875,0.13299 0.381567,0.24329 0.564444,0.37629 0.162383,0.1181 0.313576,0.25086 0.470366,0.37629 0.313578,0.25087 0.627157,0.50173 0.940736,0.75259 0.15679,0.12543 0.307983,0.2582 0.470369,0.3763 0.182874,0.133 0.381566,0.24329 0.56444,0.37629 0.324771,0.2362 0.615969,0.51639 0.940737,0.75259 0.182875,0.133 0.389432,0.2331 0.564441,0.37629 0.171614,0.14041 0.298757,0.32996 0.470368,0.47037 0.175012,0.14319 0.389433,0.2331 0.564444,0.3763 0.171611,0.14041 0.313576,0.31357 0.470365,0.47036 0.188148,0.18815 0.3683,0.38465 0.564444,0.56445 0.180538,0.16549 0.38322,0.30562 0.564441,0.47036 0.164071,0.14916 0.298757,0.32996 0.470368,0.47037 0.175012,0.14319 0.383543,0.24062 0.564441,0.3763 0.195932,0.14694 0.374891,0.31528 0.564441,0.47036 0.310803,0.2543 0.642247,0.48395 0.940737,0.75259 0.696309,0.62668 0.25582,0.28425 0.846664,0.94074 0.296664,0.32963 0.627155,0.62716 0.940734,0.94073 0.156789,0.15679 0.313579,0.31358 0.470368,0.47037 0.156789,0.15679 0.298757,0.32996 0.470368,0.47037 0.175012,0.14319 0.396365,0.22503 0.564441,0.3763 0.149246,0.13431 0.234318,0.32838 0.376296,0.47036 0.141978,0.14198 0.321122,0.24198 0.470368,0.3763 1.421281,1.27915 -0.400672,-0.3066 0.846662,0.94073 0.14198,0.14198 0.32839,0.23432 0.470368,0.3763 0.141978,0.14198 0.242898,0.3203 0.376296,0.47037 0.117848,0.13258 0.258445,0.24371 0.376293,0.37629 0.133397,0.15007 0.242898,0.3203 0.376295,0.47037 0.117848,0.13258 0.258445,0.24371 0.376293,0.37629 0.133398,0.15007 0.242898,0.3203 0.376296,0.47037 0.235699,0.26516 0.534779,0.47255 0.752589,0.75259 0.88424,1.13688 -0.274545,-0.13215 0.564441,0.84666 0.08658,0.10101 0.195638,0.18121 0.28222,0.28222 0.208016,0.18184 0.297678,0.45129 0.470369,0.65852 0.08517,0.1022 0.197051,0.18001 0.28222,0.28222 0.07238,0.0869 0.115766,0.19536 0.188148,0.28222 0.141949,0.17034 0.331851,0.29722 0.470368,0.47037 0.07063,0.0883 0.117517,0.19393 0.188148,0.28222 0.05541,0.0693 0.125431,0.12543 0.188145,0.18815 0.125431,0.12543 0.250865,0.25086 0.376296,0.37629 0.06271,0.0627 0.125431,0.12543 0.188148,0.18815 0.06271,0.0627 0.117192,0.13493 0.188145,0.18814 0.05609,0.0421 0.132054,0.052 0.188148,0.0941 0.07096,0.0532 0.125431,0.12543 0.188148,0.18815 0.125431,0.12543 0.250862,0.25086 0.376293,0.37629 0.03136,0.0314 0.06272,0.0627 0.09408,0.0941 0.03136,0.0314 0.07424,0.0544 0.09407,0.0941 0.01402,0.028 0,0.0627 0,0.0941 0.03136,0.0314 0.07424,0.0544 0.09407,0.0941 0.02805,0.0561 -0.04435,0.14379 0,0.18814 0.125434,0.12543 0.09408,-0.15679 0.09408,0.0941"
       id="path34"
       inkscape:connector-curvature="0" />
    <path
       style="fill:none;stroke:#000000;stroke-width:0.26458332px;stroke-linecap:butt;stroke-linejoin:miter;stroke-opacity:1"
       d="m 58.890077,281.57193 c -0.0269,0.44346 0.359499,-0.11087 0.470365,0 0.02217,0.0222 -0.02217,0.0719 0,0.0941 0.02217,0.0222 0.0719,-0.0222 0.09408,0 0.02217,0.0222 -0.01402,0.066 0,0.0941 0.04169,0.0834 0.225129,0.19659 0.282221,0.28223 0.07779,0.11668 0.104005,0.2641 0.188148,0.37629 0.05322,0.071 0.134929,0.11719 0.188145,0.18815 0.123301,0.1644 0.09329,0.28064 0.188148,0.47037 0.101126,0.20225 0.287221,0.3566 0.376296,0.56444 0.05093,0.11883 0.04314,0.25745 0.09407,0.37629 0.110432,0.16565 0.209902,0.28957 0.282221,0.47037 0.03683,0.0921 0.06272,0.18815 0.09408,0.28222 0.03136,0.0941 0.07463,0.18498 0.09407,0.28222 0.0123,0.0615 -0.0123,0.12665 0,0.18815 0.01945,0.0972 0.07463,0.18498 0.09407,0.28222 0.0123,0.0615 0,0.12543 0,0.18815 0,0.0627 0.01521,0.1273 0,0.18814 -0.01701,0.068 -0.07706,0.12013 -0.09407,0.18815 -0.01521,0.0608 0.01521,0.12731 0,0.18815 -0.01701,0.068 -0.06272,0.12543 -0.09407,0.18814 -0.09265,0.1853 -0.205312,0.37217 -0.282221,0.56445 -0.05421,0.13551 -0.0936,0.3443 -0.188147,0.47037 -0.05322,0.071 -0.134933,0.11719 -0.188148,0.18814 -0.08414,0.11219 -0.104005,0.26411 -0.188148,0.3763 -0.05322,0.0709 -0.13493,0.11719 -0.188148,0.18814 -0.04207,0.0561 -0.04449,0.13857 -0.09407,0.18815 -0.04958,0.0496 -0.132053,0.052 -0.188148,0.0941 -0.07095,0.0532 -0.118887,0.13273 -0.188145,0.18814 -0.346741,0.27739 -0.177265,0.10636 -0.470368,0.28222 -0.141489,0.0849 -0.422955,0.2914 -0.564444,0.3763 -0.220617,0.13237 -0.201133,0.0804 -0.470365,0.18814 -0.0651,0.026 -0.123045,0.068 -0.188148,0.0941 -0.09207,0.0368 -0.190151,0.0572 -0.282221,0.0941 -0.0651,0.026 -0.121628,0.0719 -0.188147,0.0941 -0.02975,0.01 -0.06433,-0.01 -0.09407,0 -0.681416,0.22714 0.148315,-0.0271 -0.282223,0.18815 -0.02805,0.014 -0.06602,-0.014 -0.09407,0 -0.03966,0.0199 -0.05441,0.0742 -0.09407,0.0941 -0.02805,0.014 -0.06603,-0.014 -0.09408,0 -0.03966,0.0198 -0.06271,0.0627 -0.09407,0.0941 -0.03136,0.0314 -0.07424,0.0544 -0.09407,0.0941 -0.0053,0.0105 -0.0053,0.45987 0,0.47037 0.01982,0.0397 0.08005,0.052 0.09407,0.0941 0.01984,0.0595 0,0.12543 0,0.18815 0,0.0627 0,0.12543 0,0.18815"
       id="path36"
       inkscape:connector-curvature="0" />
    <path
       style="fill:none;stroke:#000000;stroke-width:0.26458332px;stroke-linecap:butt;stroke-linejoin:miter;stroke-opacity:1"
       d="m 22.765812,281.28971 c -0.627157,-0.47037 0.156789,0.47036 0,0.47036 -0.03136,0 0,-0.0627 0,-0.0941 0,-0.12543 -0.08869,-0.2876 0,-0.37629 0.168867,-0.16887 0.45981,-0.14975 0.658515,-0.28223 0.12597,-0.084 0.311191,-0.5717 0.376294,-0.65851 0.106433,-0.14191 0.259485,-0.2428 0.376295,-0.37629 0.103246,-0.118 0.171354,-0.26543 0.282221,-0.3763 0.110867,-0.11087 0.259108,-0.17805 0.376294,-0.28222 0.165726,-0.14731 0.305555,-0.32204 0.470368,-0.47037 0.149245,-0.13432 0.314967,-0.24914 0.470368,-0.37629 0.60263,-0.49306 1.199016,-0.99525 1.787399,-1.50518 0.2519,-0.21831 0.5089,-0.43107 0.752589,-0.65851 0.226939,-0.21182 0.424894,-0.4541 0.658514,-0.65852 0.269073,-0.23544 0.57759,-0.42308 0.846664,-0.65852 0.500612,-0.43803 0.912309,-0.97099 1.411102,-1.4111 0.268094,-0.23655 0.586306,-0.41347 0.846664,-0.65851 0.274968,-0.2588 0.485587,-0.57966 0.752589,-0.84667 0.235706,-0.2357 0.509852,-0.43005 0.752588,-0.65851 0.29064,-0.27354 0.564441,-0.56444 0.846662,-0.84666 0.533085,-0.53309 1.066167,-1.06617 1.599253,-1.59926 0.28222,-0.28222 0.556495,-0.57261 0.846661,-0.84666 0.549039,-0.51854 1.159319,-0.97117 1.693325,-1.50517 0.267002,-0.26701 0.485587,-0.57966 0.752589,-0.84667 0.297082,-0.29708 1.26759,-1.10155 1.59925,-1.4111 1.823104,-1.8231 -0.471387,0.43772 1.317033,-1.22296 0.227478,-0.21123 0.431035,-0.44728 0.658513,-0.65851 0.423709,-0.39345 0.893323,-0.73544 1.317032,-1.12889 0.227479,-0.21123 0.431036,-0.44728 0.658514,-0.65851 0.423709,-0.39345 0.893323,-0.73544 1.317032,-1.12889 0.227478,-0.21123 0.431036,-0.44728 0.658514,-0.65851 0.211854,-0.19672 0.446079,-0.36835 0.658516,-0.56444 0.195516,-0.18048 0.368924,-0.38397 0.564441,-0.56444 0.212436,-0.1961 0.446079,-0.36835 0.658516,-0.56445 0.195516,-0.18047 0.3683,-0.38464 0.564441,-0.56444 0.180538,-0.16549 0.391263,-0.29719 0.564441,-0.47036 0.17318,-0.17318 0.29719,-0.39127 0.470368,-0.56445 0.141978,-0.14198 0.32839,-0.23431 0.470368,-0.37629 0.141978,-0.14198 0.234315,-0.32839 0.376296,-0.47037 0.141978,-0.14198 0.320297,-0.2429 0.470366,-0.37629 0.132582,-0.11785 0.242797,-0.25949 0.376295,-0.3763 0.117997,-0.10324 0.250862,-0.18815 0.376293,-0.28222 0.125434,-0.0941 0.245841,-0.19525 0.376296,-0.28222 0.705083,-0.47006 0.219038,-0.11172 0.846662,-0.47037 0.196331,-0.11219 0.36219,-0.27517 0.564443,-0.37629 0.08869,-0.0444 0.190151,-0.0573 0.282221,-0.0941 0.192733,-0.0771 0.367659,-0.21662 0.56444,-0.28222 0.02975,-0.01 0.06603,0.014 0.09407,0 0.07933,-0.0397 0.108818,-0.14848 0.188148,-0.18814 0.05609,-0.028 0.143801,0.0443 0.188148,0 0.02217,-0.0222 -0.02217,-0.0719 0,-0.0941 0.02217,-0.0222 0.0719,0.0222 0.09407,0 0.194644,-0.19464 -0.297436,0.008 0.09408,-0.18814 0.02804,-0.014 0.08005,0.028 0.09407,0 0.02805,-0.0561 -0.01984,-0.12866 0,-0.18815 0.01402,-0.0421 0.06947,-0.0572 0.09407,-0.0941 0.07779,-0.11669 0.125434,-0.25087 0.188148,-0.3763"
       id="path42"
       inkscape:connector-curvature="0" />
    <path
       style="fill:none;stroke:#000000;stroke-width:0.26458332px;stroke-linecap:butt;stroke-linejoin:miter;stroke-opacity:1"
       d="m 55.315278,248.64617 c -0.188148,0.15678 -0.376293,0.31357 -0.564441,0.47036 -0.06272,0.0314 -0.129805,0.0552 -0.188148,0.0941 -0.0738,0.0492 -0.108818,0.14848 -0.188148,0.18814 -0.05609,0.028 -0.143798,-0.0443 -0.188145,0 -0.06488,0.0649 0.06958,0.17591 0.09407,0.18815 0.05609,0.028 0.128651,-0.0198 0.188148,0 0.06652,0.0222 0.12012,0.0771 0.188147,0.0941 0.121685,0.0304 0.254606,-0.0304 0.376293,0 0.06802,0.017 0.125431,0.0627 0.188148,0.0941 0.09407,0.0314 0.184984,0.0746 0.282221,0.0941 0.502578,0.10052 -0.21172,-0.17876 0.470368,0.0941 0.0651,0.026 0.119391,0.0803 0.188148,0.0941 0.09225,0.0184 0.189426,-0.0154 0.28222,0 0.267431,0.0446 0.251021,0.10041 0.470369,0.18815 0.184139,0.0737 0.380301,0.11449 0.564441,0.18815 0.0651,0.026 0.123044,0.068 0.188147,0.0941 0.09207,0.0368 0.193527,0.0497 0.282221,0.0941 0.03966,0.0198 0.06271,0.0627 0.09407,0.0941 0.03136,0.0314 0.06272,0.0627 0.09407,0.0941 0.06731,0.0673 0.128677,0.0843 0.09407,0.18815 -0.02529,0.0759 -0.2364,0.50335 -0.28222,0.56444 -0.05322,0.0709 -0.118891,0.13274 -0.188148,0.18815 -0.271642,0.21731 -0.268465,0.12391 -0.470368,0.37629 -0.07063,0.0883 -0.108199,0.20227 -0.188148,0.28222 -0.07995,0.0799 -0.202271,0.1082 -0.282221,0.18815 -0.07995,0.0799 -0.117517,0.19393 -0.188145,0.28222 -0.05541,0.0693 -0.125433,0.12543 -0.188148,0.18815 -0.219506,0.2195 -0.439009,0.43901 -0.658516,0.65851 -0.06271,0.0627 -0.138948,0.11435 -0.188148,0.18815 -0.03889,0.0583 -0.05518,0.1298 -0.09407,0.18814 -0.02461,0.0369 -0.07424,0.0544 -0.09407,0.0941 -0.01402,0.0281 0.02217,0.0719 0,0.0941 -0.02217,0.0222 -0.0719,-0.0222 -0.09408,0 -0.02217,0.0222 0.02217,0.0719 0,0.0941 -0.02217,0.0222 -0.0719,-0.0222 -0.09407,0 -0.02217,0.0222 0,0.0627 0,0.0941 0,0.0314 -0.01402,0.066 0,0.0941 0.01984,0.0397 0.06272,0.0627 0.09407,0.0941"
       id="path44"
       inkscape:connector-curvature="0" />
    <path
       style="fill:none;stroke:#000000;stroke-width:0.26458332px;stroke-linecap:butt;stroke-linejoin:miter;stroke-opacity:1"
       d="m 38.005736,255.32539 c -0.09407,0.12543 -0.171354,0.26543 -0.28222,0.3763 -0.02217,0.0222 -0.06272,0 -0.09407,0 -0.180383,0 -0.145645,0.0425 -0.282221,-0.0941 -0.03136,-0.0314 -0.06272,-0.0627 -0.09407,-0.0941 -0.06272,0 -0.135967,0.0348 -0.188148,0 -0.05834,-0.0389 -0.05518,-0.12981 -0.09407,-0.18815 -0.02461,-0.0369 -0.05718,-0.0695 -0.09408,-0.0941 -0.116684,-0.0778 -0.264104,-0.10401 -0.376293,-0.18815 -0.494477,-0.37085 0.174228,-0.008 -0.470368,-0.37629 -0.121762,-0.0696 -0.254535,-0.11857 -0.376296,-0.18815 -0.09817,-0.0561 -0.186344,-0.12822 -0.282221,-0.18815 -0.360584,-0.22536 -0.533513,-0.29043 -0.846661,-0.56444 -0.266996,-0.23362 -0.501727,-0.50173 -0.752589,-0.75259 -0.156789,-0.15679 -0.322037,-0.30555 -0.470368,-0.47037 -0.134321,-0.14924 -0.249148,-0.31496 -0.376296,-0.47036 -0.155088,-0.18956 -0.313579,-0.3763 -0.470368,-0.56444 -0.156789,-0.18815 -0.304874,-0.38391 -0.470368,-0.56445 -0.179795,-0.19614 -0.376293,-0.37629 -0.564441,-0.56444 -0.15679,-0.2195 -0.296125,-0.45259 -0.470369,-0.65851 -0.17187,-0.20313 -0.402209,-0.35354 -0.56444,-0.56445 -0.154144,-0.20038 -0.232389,-0.45065 -0.376294,-0.65851 -0.139408,-0.20137 -0.323421,-0.36851 -0.470368,-0.56444 -0.135675,-0.1809 -0.250864,-0.3763 -0.376296,-0.56444 -0.125431,-0.18815 -0.257783,-0.37187 -0.376293,-0.56445 -0.265001,-0.43062 -0.48759,-0.8864 -0.752588,-1.31702 -0.118512,-0.19259 -0.27517,-0.3622 -0.376296,-0.56445 -0.119819,-0.23963 -0.168921,-0.5098 -0.28222,-0.75259 -0.106913,-0.22909 -0.256435,-0.43591 -0.376296,-0.65851 -0.38263,-0.7106 -0.206613,-0.44767 -0.564441,-1.22296 -0.40659,-0.88094 -0.136966,-0.2511 -0.564441,-1.03481 -0.100729,-0.18467 -0.188147,-0.37629 -0.282221,-0.56444 -0.06272,-0.12543 -0.131192,-0.24815 -0.188147,-0.37629 -0.658824,-1.48236 0.176414,0.37636 -0.282221,-0.84667 -0.04924,-0.13131 -0.138907,-0.24498 -0.188147,-0.37629 -0.0454,-0.12106 -0.05855,-0.25198 -0.09407,-0.3763 -0.02724,-0.0953 -0.06272,-0.18814 -0.09407,-0.28222 -0.03136,-0.0941 -0.06272,-0.18814 -0.09407,-0.28222 -0.03136,-0.0941 -0.07777,-0.1844 -0.09407,-0.28222 -0.01546,-0.0928 0.01845,-0.18997 0,-0.28222 -0.0275,-0.13751 -0.154134,-0.24024 -0.188147,-0.37629 -0.02282,-0.0913 0.02975,-0.19298 0,-0.28222 -0.02217,-0.0665 -0.0719,-0.12163 -0.09407,-0.18815 -0.01983,-0.0595 0.02805,-0.13205 0,-0.18815 -0.01983,-0.0397 -0.07424,-0.0544 -0.09407,-0.0941 -0.01701,-0.034 0,-0.40494 0,-0.47037"
       id="path50"
       inkscape:connector-curvature="0" />
    <text
       xml:space="preserve"
       style="font-style:normal;font-weight:normal;font-size:10.58333302px;line-height:1.25;font-family:sans-serif;letter-spacing:0px;word-spacing:0px;fill:#000000;fill-opacity:1;stroke:none;stroke-width:0.26458332"
       x="150.61183"
       y="224.65739"
       id="text72"><tspan
         sodipodi:role="line"
         id="tspan70"
         x="150.61183"
         y="224.65739"
         style="stroke-width:0.26458332">Lip domain</tspan></text>
    <ellipse
       style="fill:#000000;fill-opacity:0.06313728;stroke:#000000;stroke-width:0.14044082;stroke-dasharray:0.14044083, 0.70220416;stroke-opacity:1;marker-start:none;marker-end:none"
       id="path41"
       cx="37.911659"
       cy="267.55499"
       rx="16.086586"
       ry="15.428108" />
    <text
       xml:space="preserve"
       style="font-style:normal;font-weight:normal;font-size:10.58333302px;line-height:1.25;font-family:sans-serif;letter-spacing:0px;word-spacing:0px;fill:#000000;fill-opacity:1;stroke:none;stroke-width:0.26458332"
       x="98.118767"
       y="197.56421"
       id="text45"><tspan
         sodipodi:role="line"
         id="tspan43"
         x="98.118767"
         y="197.56421"
         style="stroke-width:0.26458332">$\Omega$</tspan></text>
    <text
       xml:space="preserve"
       style="font-style:normal;font-weight:normal;font-size:10.58333302px;line-height:1.25;font-family:sans-serif;letter-spacing:0px;word-spacing:0px;fill:#000000;fill-opacity:1;stroke:none;stroke-width:0.26458332"
       x="21.448782"
       y="233.59439"
       id="text49"><tspan
         sodipodi:role="line"
         id="tspan47"
         x="21.448782"
         y="233.59439"
         style="stroke-width:0.26458332">$y_2=\phi (y_1)$</tspan></text>
    <text
       xml:space="preserve"
       style="font-style:normal;font-weight:normal;font-size:10.58333302px;line-height:1.25;font-family:sans-serif;letter-spacing:0px;word-spacing:0px;fill:#000000;fill-opacity:1;stroke:none;stroke-width:0.26458332"
       x="58.513779"
       y="252.03282"
       id="text53"><tspan
         sodipodi:role="line"
         id="tspan51"
         x="58.513779"
         y="252.03282"
         style="stroke-width:0.26458332">$y_2$</tspan></text>
    <text
       xml:space="preserve"
       style="font-style:normal;font-weight:normal;font-size:10.58333302px;line-height:1.25;font-family:sans-serif;letter-spacing:0px;word-spacing:0px;fill:#000000;fill-opacity:1;stroke:none;stroke-width:0.26458332"
       x="61.524136"
       y="291.54373"
       id="text57"><tspan
         sodipodi:role="line"
         id="tspan55"
         x="61.524136"
         y="291.54373"
         style="stroke-width:0.26458332">$y_1$</tspan></text>
  </g>
</svg>
