<?xml version="1.0" encoding="UTF-8" standalone="no"?>
<!-- Created with Inkscape (http://www.inkscape.org/) -->

<svg
   xmlns:dc="http://purl.org/dc/elements/1.1/"
   xmlns:cc="http://creativecommons.org/ns#"
   xmlns:rdf="http://www.w3.org/1999/02/22-rdf-syntax-ns#"
   xmlns:svg="http://www.w3.org/2000/svg"
   xmlns="http://www.w3.org/2000/svg"
   xmlns:sodipodi="http://sodipodi.sourceforge.net/DTD/sodipodi-0.dtd"
   xmlns:inkscape="http://www.inkscape.org/namespaces/inkscape"
   width="240mm"
   height="120mm"
   viewBox="0 0 240 120"
   version="1.1"
   id="svg8"
   inkscape:version="0.92.3 (2405546, 2018-03-11)"
   sodipodi:docname="l2f1.svg">
  <defs
     id="defs2" />
  <sodipodi:namedview
     id="base"
     pagecolor="#ffffff"
     bordercolor="#666666"
     borderopacity="1.0"
     inkscape:pageopacity="0.0"
     inkscape:pageshadow="2"
     inkscape:zoom="1.9887478"
     inkscape:cx="284.27627"
     inkscape:cy="196.9427"
     inkscape:document-units="mm"
     inkscape:current-layer="layer1"
     showgrid="false"
     showborder="true"
     width="200mm"
     showguides="true"
     inkscape:guide-bbox="true"
     inkscape:window-width="2866"
     inkscape:window-height="1889"
     inkscape:window-x="134"
     inkscape:window-y="55"
     inkscape:window-maximized="1">
    <inkscape:grid
       type="xygrid"
       id="grid815"
       units="mm"
       spacingx="10"
       spacingy="10"
       empspacing="4"
       dotted="false" />
  </sodipodi:namedview>
  <metadata
     id="metadata5">
    <rdf:RDF>
      <cc:Work
         rdf:about="">
        <dc:format>image/svg+xml</dc:format>
        <dc:type
           rdf:resource="http://purl.org/dc/dcmitype/StillImage" />
        <dc:title />
      </cc:Work>
    </rdf:RDF>
  </metadata>
  <g
     inkscape:label="Layer 1"
     inkscape:groupmode="layer"
     id="layer1"
     transform="translate(0,-177)">
    <path
       style="fill:none;stroke:#000000;stroke-width:0.26458332px;stroke-linecap:butt;stroke-linejoin:miter;stroke-opacity:1"
       d="m 34.058283,251.50026 c 0.77642,-0.57939 1.066787,-0.53216 1.862561,-0.53216 0.08869,0 0.203366,-0.0627 0.26608,0 0.06272,0.0627 0,0.17739 0,0.26608 0,0.0887 0.03967,0.18675 0,0.26608 -0.05609,0.11219 -0.209986,0.15389 -0.26608,0.26608 -0.03966,0.0793 0.06272,0.20337 0,0.26608 -0.06272,0.0627 -0.203364,-0.0627 -0.266079,0 -0.0086,0.009 0,0.73371 0,0.79824 0,0.88694 0,1.77387 0,2.66081 0,0.2378 0.04239,1.24561 0,1.3304 -0.0561,0.11219 -0.209986,0.15389 -0.266081,0.26608 -0.07933,0.15866 0.07933,0.3735 0,0.53216 -0.05609,0.11219 -0.209986,0.15389 -0.26608,0.26608 -0.04049,0.081 0,0.67841 0,0.79824 0,0.0887 0,0.17739 0,0.26608 0,0.0887 -0.06272,0.20337 0,0.26608 0.06272,0.0627 0.18675,-0.0397 0.26608,0 0.112189,0.0561 0.15389,0.20999 0.266081,0.26608 0.08098,0.0405 0.678408,0 0.79824,0 0.532162,0 1.064321,0 1.596483,0 1.153014,0 2.306029,0 3.459043,0 0.403553,0 1.771396,0.0595 2.128642,0 0.276659,-0.0461 0.521584,-0.21997 0.798243,-0.26608 0.262458,-0.0437 0.532159,0 0.79824,0 0.798242,0 1.596482,0 2.394722,0 0.354775,0 0.712288,0.044 1.064324,0 0.362868,-0.0454 0.701452,-0.22072 1.06432,-0.26608 0.352034,-0.044 0.712288,0.044 1.064321,0 0.362868,-0.0454 0.700866,-0.2257 1.064321,-0.26608 0.440756,-0.049 0.889648,0.049 1.330402,0 0.363455,-0.0404 0.700865,-0.22569 1.064321,-0.26608 0.440756,-0.049 0.886936,0 1.330401,0 0.886937,0 1.77387,0 2.660804,0 0.532162,0 1.066506,0.0482 1.596482,0 0.450393,-0.0409 0.880396,-0.22108 1.330402,-0.26608 0.882534,-0.0882 1.777511,0.0803 2.660804,0 0.537284,-0.0488 1.059195,-0.21723 1.596482,-0.26608 0.441645,-0.0401 0.886934,0 1.330402,0 0.532159,0 1.064321,0 1.59648,0 0.532162,0 1.066509,0.0482 1.596482,0 0.450393,-0.0409 0.88001,-0.22514 1.330402,-0.26608 0.529976,-0.0482 1.064321,0 1.596483,0 0.443468,0 0.886933,0 1.330401,0 1.507789,0 3.015578,0 4.523365,0 2.03995,0 4.079898,0 6.119849,0 0.443466,0 0.886934,0 1.330402,0 0.532159,0 1.066159,-0.0442 1.59648,0 0.537638,0.0448 1.058846,0.22128 1.596482,0.26608 0.530323,0.0442 1.064321,0 1.596483,0 1.507789,0 3.015578,0 4.523364,0 0.443468,0 0.889138,-0.0441 1.330402,0 0.450006,0.045 0.880009,0.22513 1.330402,0.26608 1.059952,0.0964 2.132319,-0.0884 3.192969,0 0.53763,0.0448 1.05884,0.22128 1.59648,0.26608 0.53032,0.0442 1.06432,0 1.59648,0 0.53216,0 1.06432,0 1.59648,0 1.50779,0 3.01558,0 4.52337,0 4.0799,0 8.1598,0 12.23969,0 1.15302,0 2.30603,0 3.45905,0 0.53216,0 1.06616,0.0442 1.59648,0 0.53764,-0.0448 1.05857,-0.2247 1.59648,-0.26608 1.23805,-0.0952 2.48657,0.0885 3.72512,0 0.62557,-0.0447 1.23701,-0.2214 1.86257,-0.26608 0.61927,-0.0442 1.24171,0 1.86256,0 0.62085,0 1.24171,0 1.86256,0 1.59648,0 3.19297,0 4.78945,0 1.59648,0 3.19296,0 4.78944,0 0.53216,0 1.06433,0 1.59649,0 0.53216,0 1.0665,-0.0482 1.59648,0 0.45039,0.0409 0.8804,0.22108 1.3304,0.26608 0.88253,0.0883 1.77827,-0.0882 2.6608,0 0.90001,0.09 1.7608,0.44216 2.66081,0.53216 0.44126,0.0441 0.88913,-0.0441 1.3304,0 0.45,0.045 0.88039,0.22108 1.3304,0.26608 0.44127,0.0441 0.88693,0 1.3304,0 0.44347,0.0887 0.88092,0.21614 1.3304,0.26608 0.35261,0.0392 0.70955,0 1.06432,0 0.44347,0 0.88694,0 1.33041,0 0.35477,0 0.71171,-0.0392 1.06432,0 0.44948,0.0499 0.88039,0.22108 1.3304,0.26608 0.44126,0.0441 0.88914,-0.0441 1.3304,0 0.45001,0.045 0.88092,0.21614 1.3304,0.26608 0.35261,0.0392 0.71172,-0.0392 1.06432,0 0.44949,0.0499 0.8804,0.22108 1.3304,0.26608 0.44127,0.0441 0.88694,0 1.33041,0 0.35477,0 0.70954,0 1.06432,0 1.59648,0 3.19296,0 4.78944,0 0.44347,0 0.88965,-0.049 1.33041,0 0.36345,0.0404 0.70086,0.2257 1.06432,0.26608 0.88151,0.0979 1.77929,-0.0979 2.6608,0 0.36346,0.0404 0.70145,0.22072 1.06432,0.26608 0.35204,0.044 0.70955,0 1.06432,0 0.35478,0 0.70955,0 1.06433,0 0.44346,0 0.88964,-0.049 1.3304,0 0.36345,0.0404 0.70145,0.22072 1.06432,0.26608 0.35203,0.044 0.71229,-0.044 1.06432,0 0.72573,0.0907 1.4029,0.44145 2.12864,0.53216 0.61606,0.077 1.24795,-0.0878 1.86256,0 0.36202,0.0517 0.70361,0.20597 1.06432,0.26608 0.17498,0.0292 0.35478,0 0.53217,0 0.26607,0 0.53216,0 0.79824,0 0.17738,0 0.35822,-0.0348 0.53216,0 0.27502,0.055 0.52614,0.19806 0.79824,0.26609 0.086,0.0215 0.17739,0 0.26608,0 0.35477,0 0.70955,0 1.06432,0 0.17739,0 0.35477,0 0.53216,0 0.17739,0 0.36388,0.0561 0.53216,0 0.119,-0.0397 0.15389,-0.20999 0.26608,-0.26609 0.16724,-0.0836 0.89708,0.0836 1.06432,0 0.11219,-0.0561 0.15389,-0.20998 0.26608,-0.26608 0.15866,-0.0793 0.3735,0.0793 0.53216,0 0.11219,-0.0561 0.15389,-0.20998 0.26608,-0.26608 0.0793,-0.0397 0.18675,0.0397 0.26608,0 0.11219,-0.0561 0.1539,-0.20998 0.26608,-0.26608 0.0793,-0.0397 0.20337,0.0627 0.26609,0 0.0627,-0.0627 -0.0397,-0.18675 0,-0.26608 0.0561,-0.11219 0.20998,-0.15389 0.26608,-0.26608 0.0722,-0.14434 -0.0728,-0.99151 0,-1.06432 0.0627,-0.0627 0.20336,0.0627 0.26607,0 0.0863,-0.0863 -0.0844,-1.16152 0,-1.3304 0.1122,-0.22438 0.45284,-0.29417 0.53217,-0.53216 0.0561,-0.16828 -0.0561,-0.36388 0,-0.53216 0.0397,-0.119 0.22641,-0.14709 0.26608,-0.26608 0.0561,-0.16829 -0.0561,-0.36388 0,-0.53216 0.0397,-0.119 0.22641,-0.14709 0.26608,-0.26608 0.0561,-0.16829 0,-0.35478 0,-0.53216 0,-0.0887 -0.0397,-0.18675 0,-0.26608 0.0561,-0.11219 0.22641,-0.14709 0.26608,-0.26608 0.0406,-0.12181 0,-1.18189 0,-1.33041 0,-0.17738 -0.0561,-0.36387 0,-0.53216 0.0397,-0.11899 0.22641,-0.14708 0.26608,-0.26608 0.0561,-0.16828 0,-0.35477 0,-0.53216 0,-0.0887 -0.0397,-0.18675 0,-0.26608 0.0561,-0.11219 0.20998,-0.15389 0.26608,-0.26608 0.0397,-0.0793 0,-0.17738 0,-0.26608 0,-0.0887 0,-0.17739 0,-0.26608"
       id="path10"
       inkscape:connector-curvature="0" />
    <path
       style="fill:none;stroke:#000000;stroke-width:0.26458332px;stroke-linecap:butt;stroke-linejoin:miter;stroke-opacity:1"
       d="m 35.122604,270.92413 c -0.620856,0 -1.241708,0 -1.862564,0 -0.08869,0 -0.203364,-0.0627 -0.266078,0 -0.06272,0.0627 0.06271,0.20336 0,0.26608 -0.06272,0.0627 -0.203367,-0.0627 -0.266081,0 -0.06272,0.0627 0,0.17738 0,0.26608 -0.08869,0 -0.186751,-0.0397 -0.266081,0 -0.588317,0.29416 -0.08257,0.16514 -0.266081,0.53216 -0.112188,0.22437 -0.41997,0.30778 -0.532159,0.53216 -0.03967,0.0793 0.03966,0.18675 0,0.26608 -0.05609,0.11219 -0.209986,0.15389 -0.266081,0.26608 -0.03967,0.0793 0.03966,0.18675 0,0.26608 -0.05609,0.11219 -0.209986,0.15389 -0.266081,0.26608 -0.03966,0.0793 0.02805,0.18194 0,0.26608 -0.305744,0.91723 -0.26608,0.1971 -0.26608,0.79824 0,0.0887 -0.03966,0.18675 0,0.26608 0.05609,0.11219 0.209986,0.15389 0.26608,0.26608 0.03967,0.0793 -0.03966,0.18675 0,0.26608 0.05609,0.11219 0.177388,0.17739 0.266081,0.26608 0.08869,0.0887 0.15389,0.20999 0.266081,0.26608 0.158658,0.0793 0.373499,-0.0793 0.532159,0 0.112189,0.0561 0.14065,0.26608 0.266081,0.26608 0.125431,0 0.153892,-0.20998 0.266081,-0.26608 0.07933,-0.0397 0.186751,0.0397 0.266081,0 0.112189,-0.0561 0.15389,-0.20998 0.266078,-0.26608 0.367022,-0.18351 0.238003,0.32224 0.532162,-0.26608 0.03966,-0.0793 -0.02805,-0.18194 0,-0.26608 0.06272,-0.18815 0.203364,-0.34401 0.266081,-0.53216 0.05609,-0.16828 -0.0561,-0.36388 0,-0.53216 0.06271,-0.18815 0.203364,-0.34401 0.266081,-0.53216 0.07139,-0.21417 -0.08502,-0.89429 0,-1.06432 0.05609,-0.11219 0.209984,-0.15389 0.266078,-0.26608 0.03967,-0.0793 -0.03294,-0.18373 0,-0.26608 0.147312,-0.36828 0.886936,-0.88694 0.532162,-1.06432 -0.501727,-0.25087 -1.057119,0.37805 -1.596483,0.53216 -0.170561,0.0487 -0.354774,0 -0.532159,0"
       id="path12"
       inkscape:connector-curvature="0" />
    <path
       style="fill:none;stroke:#000000;stroke-width:0.26458332px;stroke-linecap:butt;stroke-linejoin:miter;stroke-opacity:1"
       d="m 205.6801,271.98845 c -0.35478,0.35477 -0.78602,0.64686 -1.06433,1.06432 -0.0984,0.14759 0.0561,0.36387 0,0.53216 -0.0397,0.11899 -0.22641,0.14708 -0.26608,0.26608 -0.11219,0.33657 0.0861,0.72014 0,1.06432 -0.0481,0.1924 -0.20336,0.34402 -0.26608,0.53216 -0.028,0.0841 0,0.17739 0,0.26608 0,0.21784 0.0575,1.15801 0,1.3304 -0.0627,0.18815 -0.21798,0.33976 -0.26608,0.53217 -0.0645,0.25813 0.0841,0.54581 0,0.79824 -0.0627,0.18814 -0.20336,0.34401 -0.26608,0.53216 -0.0561,0.16828 0.0793,0.3735 0,0.53216 -0.0561,0.11218 -0.20998,0.15389 -0.26608,0.26608 -0.0793,0.15866 0.0793,0.3735 0,0.53216 -0.0561,0.11219 -0.20998,0.15389 -0.26608,0.26608 -0.0528,0.1055 0.0544,0.74384 0,0.79824 -0.35477,0.35477 -0.26608,-0.44347 -0.26608,0.26608"
       id="path14"
       inkscape:connector-curvature="0" />
    <path
       style="fill:none;stroke:#000000;stroke-width:0.26458332px;stroke-linecap:butt;stroke-linejoin:miter;stroke-opacity:1"
       d="m 35.654765,260.28091 c 0.177385,-0.35477 0.294169,-0.747 0.532159,-1.06432 0.05322,-0.0709 0.186751,0.0397 0.266081,0 1.107364,-0.55368 -0.284448,0.0184 0.266081,-0.53216 0.06271,-0.0627 0.186751,0.0397 0.266081,0 0.123214,-0.0616 0.907828,-0.90783 1.064321,-1.06432 0.79824,-0.79824 1.59648,-1.59648 2.394722,-2.39472 0.177388,-0.17739 0.354775,-0.35478 0.53216,-0.53216 0.08869,-0.0887 0.196503,-0.16172 0.26608,-0.26609 0.110012,-0.16501 0.125844,-0.39192 0.266081,-0.53215 0.140237,-0.14024 0.367144,-0.15607 0.532162,-0.26609 0.109313,-0.0729 0.725366,-0.68892 0.79824,-0.79824 0.110011,-0.16501 0.15607,-0.36714 0.266081,-0.53216 0.405916,-0.60887 0.210621,0.16638 0.532159,-0.79824 0.02805,-0.0841 -0.06271,-0.20336 0,-0.26608 0.140237,-0.14024 0.367146,-0.15607 0.532162,-0.26608 0.112781,-0.0752 0.743196,-0.68815 0.79824,-0.79824 0.03967,-0.0793 -0.03966,-0.18675 0,-0.26608 0.0561,-0.11219 0.177387,-0.17739 0.266081,-0.26608 0.08869,-0.0887 0.161716,-0.1965 0.26608,-0.26608 0.165016,-0.11001 0.367144,-0.15607 0.532162,-0.26608 0.307015,-0.20468 0.491226,-0.59357 0.79824,-0.79824 0.165015,-0.11001 0.367144,-0.15607 0.532162,-0.26608 0.174807,-0.11654 0.654227,-0.75024 0.79824,-0.79824 0.168283,-0.0561 0.363876,0.0561 0.532162,0 0.144012,-0.048 0.623432,-0.6817 0.79824,-0.79824 0.165015,-0.11001 0.367143,-0.15607 0.532161,-0.26608 0.104365,-0.0696 0.147085,-0.22642 0.266079,-0.26608 0.168285,-0.0561 0.363876,0.0561 0.532161,0 0.118994,-0.0397 0.161716,-0.19651 0.266081,-0.26609 0.165016,-0.11001 0.367144,-0.15607 0.532159,-0.26608 0.174808,-0.11654 0.65423,-0.75023 0.798243,-0.79824 0.168283,-0.0561 0.373499,0.0793 0.532159,0 0.07933,-0.0397 -0.03966,-0.18675 0,-0.26608 0.05609,-0.11219 0.177387,-0.17738 0.266081,-0.26608 0.08869,-0.0887 0.153892,-0.20998 0.266081,-0.26608 0.07933,-0.0397 0.186751,0.0397 0.266081,0 0.224377,-0.11219 0.307781,-0.41997 0.532159,-0.53216 0.07933,-0.0397 0.186751,0.0397 0.266081,0 0.224379,-0.11219 0.323429,-0.39301 0.532161,-0.53216 0.165016,-0.11001 0.367144,-0.15607 0.532159,-0.26608 0.208733,-0.13915 0.307782,-0.41997 0.532162,-0.53216 0.07933,-0.0397 0.186751,0.0397 0.266081,0 0.224377,-0.11219 0.307782,-0.41997 0.532159,-0.53216 0.07933,-0.0397 0.186751,0.0397 0.266081,0 0.112189,-0.0561 0.153892,-0.20999 0.266081,-0.26608 0.07933,-0.0397 0.186751,0.0397 0.266081,0 0.112188,-0.0561 0.153889,-0.20999 0.266078,-0.26608 0.07933,-0.0397 0.186751,0.0397 0.266081,0 0.112188,-0.0561 0.153892,-0.20999 0.266081,-0.26608 0.07933,-0.0397 0.186751,0.0397 0.266081,0 0.112188,-0.0561 0.153889,-0.20999 0.26608,-0.26608 0.07933,-0.0397 0.186749,0.0397 0.266079,0 0.112191,-0.0561 0.153892,-0.20999 0.266081,-0.26608 0.09622,-0.0481 1.145333,0 1.330401,0 0.532162,0 1.064321,0 1.596483,0 0.08869,0 0.177387,0 0.266081,0 0.08869,0 0.186751,-0.0397 0.266078,0 0.112191,0.0561 0.153892,0.20998 0.266081,0.26608 0.07933,0.0397 0.186751,-0.0397 0.266081,0 0.112188,0.0561 0.153892,0.20998 0.266081,0.26608 0.212862,0.10643 0.585377,-0.10643 0.79824,0 0.112191,0.0561 0.153892,0.20998 0.26608,0.26608 0.15866,0.0793 0.373502,-0.0793 0.532162,0 0.112189,0.0561 0.15389,0.20999 0.266078,0.26608 0.07933,0.0397 0.186751,-0.0397 0.266081,0 0.112189,0.0561 0.153892,0.20998 0.266081,0.26608 0.07933,0.0397 0.203364,-0.0627 0.266081,0 0.06271,0.0627 -0.06272,0.20336 0,0.26608 0.125431,0.12543 0.373502,-0.0793 0.532159,0 0.112191,0.0561 0.153892,0.20999 0.266081,0.26608 0.07933,0.0397 0.186751,-0.0397 0.266081,0 0.112188,0.0561 0.153892,0.20999 0.266081,0.26608 0.15866,0.0793 0.406728,-0.12543 0.532159,0 0.06272,0.0627 -0.03966,0.18675 0,0.26608 0.553683,1.10736 -0.01836,-0.28445 0.532162,0.26608 0.06272,0.0627 -0.03966,0.18675 0,0.26608 0.05609,0.11219 0.177387,0.17739 0.26608,0.26608 0.08869,0.0887 0.15389,0.20999 0.266081,0.26608 0.709547,0 -0.08869,-0.0887 0.266078,0.26608 0.550532,0.55053 -0.02151,-0.84128 0.532162,0.26608 0.03966,0.0793 -0.06272,0.20337 0,0.26608 0.06272,0.0627 0.203364,-0.0627 0.266081,0 0.06271,0.0627 -0.03967,0.18675 0,0.26608 0.112189,0.22438 0.419971,0.30779 0.532159,0.53217 0.03967,0.0793 -0.06271,0.20336 0,0.26607 0.06272,0.0627 0.186751,-0.0397 0.266081,0 1.107363,0.55369 -0.284448,-0.0184 0.266081,0.53217 0.06272,0.0627 0.203364,-0.0627 0.266081,0 0.06271,0.0627 -0.06272,0.20336 0,0.26608 0.06271,0.0627 0.186751,-0.0397 0.266081,0 0.261829,0.13091 0.802489,0.9334 1.064321,1.06432 0.07933,0.0397 0.18675,-0.0397 0.266078,0 0.123216,0.0616 0.907828,0.90782 1.064323,1.06432 0.08869,0.0887 0.15389,0.20998 0.266078,0.26608 0.07933,0.0397 0.203367,-0.0627 0.266081,0 0.06272,0.0627 -0.06271,0.20336 0,0.26608 0.06272,0.0627 0.203364,-0.0627 0.266081,0 0.125431,0.12543 -0.125431,0.40673 0,0.53216 0.06272,0.0627 0.203364,-0.0627 0.266081,0 0.125431,0.12543 -0.125431,0.40673 0,0.53216 0.06271,0.0627 0.203364,-0.0627 0.266081,0 0.06271,0.0627 -0.06272,0.20336 0,0.26608 0.06271,0.0627 0.203364,-0.0627 0.266078,0 0.06272,0.0627 -0.03966,0.18675 0,0.26608 0.112191,0.22438 0.419973,0.30778 0.532162,0.53216 0.03966,0.0793 -0.06272,0.20337 0,0.26608 0.06272,0.0627 0.203364,-0.0627 0.266081,0 0.06271,0.0627 -0.06272,0.20337 0,0.26608 0.06271,0.0627 0.203364,-0.0627 0.266081,0 0.06271,0.0627 -0.06272,0.20337 0,0.26608 0.06271,0.0627 0.203364,-0.0627 0.266078,0 0.06272,0.0627 -0.06271,0.20337 0,0.26608 0.06272,0.0627 0.203367,-0.0627 0.266081,0 0.06272,0.0627 -0.03966,0.18675 0,0.26608 0.112188,0.22438 0.419973,0.30778 0.532162,0.53216 0.03966,0.0793 -0.03967,0.18676 0,0.26608 0.112188,0.22438 0.41997,0.30779 0.532159,0.53216 0.03967,0.0793 -0.03966,0.18676 0,0.26609 0.553683,1.10736 -0.01836,-0.28446 0.532161,0.26608 0.06272,0.0627 -0.03966,0.18675 0,0.26607 0.112189,0.22438 0.419971,0.30779 0.532162,0.53217 0.03966,0.0793 -0.03967,0.18675 0,0.26608 0.112189,0.22437 0.419971,0.30778 0.532159,0.53216 0.03967,0.0793 -0.06271,0.20336 0,0.26608 0.550529,0.55053 -0.02151,-0.84129 0.532162,0.26608 0.03966,0.0793 -0.03967,0.18675 0,0.26608 0.05609,0.11219 0.209984,0.15389 0.266081,0.26608 0.03966,0.0793 -0.03967,0.18675 0,0.26608 0.159647,0.31929 0.63859,0.47894 0.79824,0.79824 0.03966,0.0793 -0.03967,0.18675 0,0.26608 0.159647,0.3193 0.638593,0.47894 0.79824,0.79824 0.03967,0.0793 -0.06271,0.20337 0,0.26608 0.06272,0.0627 0.203366,-0.0627 0.266081,0 0.06272,0.0627 -0.06271,0.20337 0,0.26608 0.550529,0.55053 -0.02151,-0.84128 0.532161,0.26608 0.03966,0.0793 -0.03967,0.18675 0,0.26608 0.05609,0.11219 0.209984,0.15389 0.266079,0.26608 0.03967,0.0793 -0.03966,0.18675 0,0.26608 0.112191,0.22438 0.419973,0.30779 0.532161,0.53216 0.03967,0.0793 -0.06271,0.20337 0,0.26608 0.06272,0.0627 0.203364,-0.0627 0.266081,0 0.140237,0.14024 0.15607,0.36715 0.266081,0.53217 0.06958,0.10436 0.209984,0.15389 0.266078,0.26608 0.03967,0.0793 -0.03966,0.18674 0,0.26607 0.112192,0.22438 0.419973,0.30779 0.532162,0.53217 0.03967,0.0793 -0.03966,0.18675 0,0.26608 0.112189,0.22437 0.419971,0.30778 0.532162,0.53216 0.07933,0.15866 -0.07933,0.3735 0,0.53216 0.112188,0.22438 0.393007,0.32343 0.532159,0.53216 0.110011,0.16502 0.15607,0.36714 0.266081,0.53216 0.06958,0.10436 0.209986,0.15389 0.266081,0.26608 0.03966,0.0793 -0.03967,0.18675 0,0.26608 0.05609,0.11219 0.209986,0.15389 0.266081,0.26608 0.03966,0.0793 -0.03967,0.18675 0,0.26608 0.112188,0.22438 0.41997,0.30778 0.532159,0.53216 0.03967,0.0793 -0.06271,0.20337 0,0.26608 0.06272,0.0627 0.18675,-0.0397 0.26608,0 0.58832,0.29416 0.08257,0.16514 0.266081,0.53216 0.05609,0.11219 0.177388,0.17739 0.266081,0.26608 0.140081,0.14008 0.65613,0.72719 0.79824,0.79824 0.07933,0.0397 0.203364,-0.0627 0.266081,0 0.06271,0.0627 -0.06272,0.20337 0,0.26608 0.06271,0.0627 0.203364,-0.0627 0.266081,0 0.06271,0.0627 -0.06272,0.20337 0,0.26608 0.06271,0.0627 0.203364,-0.0627 0.266078,0 0.06272,0.0627 -0.06271,0.20337 0,0.26609 0.06272,0.0627 0.186751,-0.0397 0.266081,0 0.112189,0.0561 0.153892,0.20998 0.266081,0.26608 0.07933,0.0397 0.203364,-0.0627 0.266081,0 0.06271,0.0627 -0.06272,0.20336 0,0.26607 0.06271,0.0627 0.186751,-0.0397 0.266081,0 0.112188,0.0561 0.153889,0.20999 0.266078,0.26609 0.07933,0.0397 0.186751,-0.0397 0.266081,0 0.112188,0.0561 0.153892,0.20998 0.266081,0.26608 0.07933,0.0397 0.18675,-0.0397 0.26608,0 0.224378,0.11218 0.307782,0.41997 0.53216,0.53216 0.07933,0.0397 0.18675,-0.0397 0.26608,0 0.112189,0.0561 0.153893,0.20998 0.266081,0.26608 0.15866,0.0793 0.406728,-0.12544 0.532162,0 0.06271,0.0627 -0.06272,0.20336 0,0.26608 0.125431,0.12543 0.373499,-0.0793 0.532159,0 0.112189,0.0561 0.153892,0.20998 0.266081,0.26608 0.15866,0.0793 0.373502,-0.0793 0.532159,0 0.112191,0.0561 0.153892,0.20998 0.266081,0.26608 0.212865,0.10643 0.585377,-0.10644 0.798243,0 0.112188,0.0561 0.153889,0.20998 0.266078,0.26608 0.0688,0.0344 1.407885,0 1.596482,0 0.532162,0 1.064321,0 1.596479,0 0.11984,0 0.71727,0.0405 0.79824,0 0.1122,-0.0561 0.1539,-0.20999 0.26608,-0.26608 0.0793,-0.0397 0.18676,0.0397 0.26609,0 0.11218,-0.0561 0.15389,-0.20999 0.26608,-0.26608 0.0793,-0.0397 0.18675,0.0397 0.26608,0 1.10736,-0.55368 -0.28445,0.0184 0.26608,-0.53216 0.0627,-0.0627 0.18675,0.0397 0.26608,0 0.31929,-0.15965 0.47894,-0.6386 0.79824,-0.79824 0.0793,-0.0397 0.18675,0.0397 0.26608,0 0.23584,-0.11792 0.55602,-0.63677 0.79824,-0.79824 0.16502,-0.11002 0.39192,-0.12585 0.53216,-0.26608 0.0627,-0.0627 -0.0627,-0.20337 0,-0.26609 0.14024,-0.14023 0.36715,-0.15607 0.53216,-0.26608 0.30702,-0.20467 0.49123,-0.59356 0.79824,-0.79824 0.16502,-0.11001 0.36715,-0.15607 0.53216,-0.26608 0.20873,-0.13915 0.35478,-0.35477 0.53216,-0.53216 0.35478,-0.35477 0.70955,-0.70955 1.06433,-1.06432 0.26607,-0.26608 0.53215,-0.53216 0.79824,-0.79824 0.0887,-0.0887 0.1965,-0.16172 0.26608,-0.26608 0.11001,-0.16502 0.15607,-0.36714 0.26608,-0.53216 0.13915,-0.20873 0.41997,-0.30778 0.53216,-0.53216 0.0397,-0.0793 0,-0.17739 0,-0.26608 0.0887,-0.17739 0.15607,-0.36715 0.26608,-0.53216 0.20467,-0.30702 0.59356,-0.49123 0.79824,-0.79824 0.11001,-0.16502 0.15607,-0.36715 0.26608,-0.53216 0.13915,-0.20874 0.393,-0.32344 0.53216,-0.53217 0.11001,-0.16501 0.15607,-0.36714 0.26608,-0.53216 0.13915,-0.20873 0.41997,-0.30778 0.53216,-0.53216 0.0397,-0.0793 -0.0397,-0.18675 0,-0.26608 0.0561,-0.11219 0.1965,-0.16171 0.26608,-0.26608 0.11001,-0.16501 0.12584,-0.39192 0.26608,-0.53216 0.14024,-0.14023 0.36714,-0.15607 0.53216,-0.26608 0.30702,-0.20468 0.49123,-0.59356 0.79824,-0.79824 0.16502,-0.11001 0.39193,-0.12584 0.53216,-0.26608 0.14024,-0.14024 0.15607,-0.36715 0.26608,-0.53216 0.0696,-0.10437 0.19651,-0.16172 0.26608,-0.26608 0.11001,-0.16502 0.12585,-0.39193 0.26608,-0.53216 0.64626,-0.64626 0.39072,0.0791 0.79824,-0.53216 0.25851,-0.38776 0.16612,-0.55421 0.53217,-0.79824 0.16501,-0.11001 0.39192,-0.12585 0.53216,-0.26608 0.14023,-0.14024 0.15607,-0.36715 0.26608,-0.53216 0.0696,-0.10437 0.1965,-0.16172 0.26608,-0.26609 0.11001,-0.16501 0.12584,-0.39192 0.26608,-0.53215 0.14024,-0.14024 0.36714,-0.15607 0.53216,-0.26609 0.36605,-0.24403 0.27366,-0.41048 0.53216,-0.79824 0.0696,-0.10436 0.17739,-0.17738 0.26608,-0.26608 0.17041,-0.1704 0.89832,-0.81532 1.06432,-1.06432 0.11001,-0.16502 0.15607,-0.36714 0.26608,-0.53216 0.26102,-0.39153 0.8033,-0.67279 1.06432,-1.06432 0.11001,-0.16502 0.12585,-0.39192 0.26608,-0.53216 0.14024,-0.14024 0.36715,-0.15607 0.53216,-0.26608 0.30702,-0.20468 0.49123,-0.59357 0.79824,-0.79824 0.16502,-0.11001 0.36715,-0.15607 0.53216,-0.26608 0.24222,-0.16148 0.56241,-0.68032 0.79825,-0.79824 0.0793,-0.0397 0.18674,0.0397 0.26607,0 0.23584,-0.11792 0.55603,-0.63677 0.79825,-0.79824 0.16501,-0.11001 0.36714,-0.15607 0.53216,-0.26608 0.30701,-0.20468 0.49122,-0.59357 0.79824,-0.79825 0.16501,-0.11001 0.36714,-0.15607 0.53216,-0.26607 0.10436,-0.0696 0.16171,-0.19651 0.26608,-0.26609 0.16501,-0.11001 0.36714,-0.15607 0.53216,-0.26608 0.20873,-0.13915 0.29417,-0.45283 0.53216,-0.53216 0.16829,-0.0561 0.36388,0.0561 0.53216,0 0.23799,-0.0793 0.32343,-0.39301 0.53216,-0.53216 0.134,-0.58622 0.54738,-0.14065 0.79824,-0.26608 0.22438,-0.11219 0.32343,-0.39301 0.53216,-0.53216 0.16502,-0.11001 0.36715,-0.15607 0.53216,-0.26608 0.10437,-0.0696 0.1539,-0.20998 0.26609,-0.26608 0.0793,-0.0397 0.18675,0.0397 0.26608,0 0.11218,-0.0561 0.14708,-0.22641 0.26607,-0.26608 0.16829,-0.0561 0.35478,0 0.53217,0 0.0887,0 0.18675,0.0397 0.26608,0 0.11219,-0.0561 0.15389,-0.20999 0.26608,-0.26608 0.0793,-0.0397 0.18675,0.0397 0.26608,0 0.11219,-0.0561 0.14708,-0.22642 0.26608,-0.26608 0.16828,-0.0561 0.35477,0 0.53216,0 0.0887,0 0.18675,0.0397 0.26608,0 0.11219,-0.0561 0.15389,-0.20999 0.26608,-0.26608 0.0793,-0.0397 0.18675,0.0397 0.26608,0 0.11219,-0.0561 0.15389,-0.20999 0.26608,-0.26608 0.15866,-0.0793 0.3735,0.0793 0.53216,0 0.11219,-0.0561 0.15389,-0.20999 0.26608,-0.26608 0.0688,-0.0344 1.40788,0 1.59648,0 0.44347,0 0.88694,0 1.3304,0 0.0887,0 0.17739,0 0.26608,0 0.0887,0 0.18676,-0.0397 0.26609,0 0.11218,0.0561 0.15388,0.20998 0.26607,0.26608 0.0793,0.0397 0.18675,-0.0397 0.26608,0 0.1122,0.0561 0.1539,0.20999 0.26609,0.26608 0.0793,0.0397 0.20336,-0.0627 0.26608,0 0.0627,0.0627 -0.0627,0.20336 0,0.26608 0.0627,0.0627 0.18675,-0.0397 0.26608,0 0.11219,0.0561 0.15389,0.20998 0.26608,0.26608 0.0793,0.0397 0.18675,-0.0397 0.26608,0 0.11219,0.0561 0.15389,0.20999 0.26608,0.26608 0.0793,0.0397 0.18675,-0.0397 0.26608,0 0.11219,0.0561 0.15389,0.20999 0.26608,0.26608 0.0793,0.0397 0.18675,-0.0397 0.26608,0 0.11219,0.0561 0.15389,0.20999 0.26608,0.26608 0.0793,0.0397 0.20336,-0.0627 0.26608,0 0.55053,0.55053 -0.84128,-0.0215 0.26608,0.53216 0.36702,0.18351 0.238,-0.32224 0.53216,0.26608 0.0397,0.0793 -0.0627,0.20337 0,0.26608 0.0627,0.0627 0.18675,-0.0397 0.26608,0 0.26183,0.13092 0.80249,0.93341 1.06432,1.06432 0.0793,0.0397 0.18675,-0.0397 0.26608,0 0.11219,0.0561 0.17739,0.17739 0.26608,0.26608 0.1565,0.1565 0.94111,1.00272 1.06432,1.06433 0.0793,0.0397 0.18675,-0.0397 0.26608,0 0.12322,0.0616 0.90783,0.90782 1.06432,1.06432 0.0887,0.0887 0.1539,0.20998 0.26609,0.26608 0.0793,0.0397 0.18675,-0.0397 0.26608,0 0.11219,0.0561 0.15389,0.20998 0.26608,0.26608 0.0793,0.0397 0.18675,-0.0397 0.26608,0 0.11219,0.0561 0.17738,0.17738 0.26608,0.26608 0.0887,0.0887 0.20998,0.15389 0.26608,0.26608 0.0397,0.0793 -0.0397,0.18675 0,0.26608 0.12227,0.24454 0.99702,0.86242 1.06432,1.06432 0.0561,0.16828 -0.0561,0.36388 0,0.53216 0.0397,0.11899 0.17739,0.17739 0.26608,0.26608 0.0887,0.0887 0.17739,0.17739 0.26608,0.26608 0.26608,0.26608 0.53216,0.53216 0.79824,0.79824 0.17739,0.17739 0.39301,0.32343 0.53216,0.53216 0.50407,-0.0303 0.17739,0.62086 0.26608,0.79824 0.0561,0.11219 0.1965,0.16172 0.26608,0.26608 0.11001,0.16502 0.15607,0.36715 0.26608,0.53216 0.0696,0.10437 0.20999,0.1539 0.26608,0.26608 0.0397,0.0793 -0.0397,0.18676 0,0.26609 0.0561,0.11218 0.19651,0.16171 0.26608,0.26608 0.89613,1.34418 0.002,0.006 0.26608,0.79824 0.64245,1.92733 -0.0767,-0.41951 0.53216,0.79824 0.0397,0.0793 -0.0281,0.18194 0,0.26608 0.0627,0.18814 0.15607,0.36714 0.26608,0.53216 0.0696,0.10436 0.22642,0.14708 0.26609,0.26608 0.0561,0.16828 -0.0561,0.36388 0,0.53216 0.0793,0.23799 0.41997,0.30778 0.53215,0.53216 0.0397,0.0793 0,0.17739 0,0.26608 0.0887,0.17739 0.15607,0.36715 0.26608,0.53216 0.13916,0.20873 0.41998,0.30778 0.53217,0.53216 0.0397,0.0793 0,0.17739 0,0.26608 0.0887,0.17739 0.15607,0.36715 0.26607,0.53216 0.0696,0.10437 0.19651,0.16172 0.26609,0.26608 0.11001,0.16502 0.15607,0.36715 0.26608,0.53216 0.13915,0.20873 0.45283,0.29417 0.53216,0.53216 0.0561,0.16829 -0.0561,0.36388 0,0.53217 0.0397,0.11899 0.1965,0.16171 0.26608,0.26608 0.11001,0.16501 0.15607,0.36714 0.26608,0.53216 0.0696,0.10436 0.1965,0.16171 0.26608,0.26608 0.11001,0.16501 0.15607,0.36714 0.26608,0.53216 0.0696,0.10436 0.1965,0.16171 0.26608,0.26608 0.11001,0.16501 0.15607,0.36714 0.26608,0.53216 0.22582,0.33874 0.81842,0.73646 1.06432,1.06432 0.119,0.15866 0.15607,0.36714 0.26608,0.53216 0.0696,0.10437 0.1965,0.16171 0.26608,0.26608 0.11001,0.16502 0.14709,0.3735 0.26608,0.53216 0.22578,0.30104 0.58951,0.48515 0.79824,0.79824 0.11001,0.16502 0.15607,0.36715 0.26608,0.53216 0.13916,0.20873 0.39301,0.32343 0.53216,0.53216 0.11001,0.16502 0.15607,0.36715 0.26608,0.53216 0.26102,0.39153 0.8033,0.6728 1.06433,1.06432 0.11,0.16502 0.15607,0.36715 0.26607,0.53217 0.13916,0.20873 0.41998,0.30778 0.53217,0.53216 0.0397,0.0793 -0.0397,0.18675 0,0.26608 0.15964,0.31929 0.63859,0.47894 0.79824,0.79824 0.0397,0.0793 0,0.17739 0,0.26608 0.0887,0.0887 0.20998,0.15389 0.26608,0.26608 0.0397,0.0793 -0.0397,0.18675 0,0.26608 0.29416,0.58832 0.16514,0.0826 0.53216,0.26608 0.11219,0.0561 0.17739,0.17739 0.26608,0.26608 0.0887,0.0887 0.20998,0.15389 0.26608,0.26608 0.0397,0.0793 -0.0397,0.18675 0,0.26608 0.0561,0.11219 0.17739,0.17739 0.26608,0.26608 0.0887,0.0887 0.15389,0.20999 0.26608,0.26608 0.0793,0.0397 0.20336,-0.0627 0.26608,0 0.55053,0.55053 -0.84128,-0.0215 0.26608,0.53216 0.0793,0.0397 0.18675,-0.0397 0.26608,0 0.11219,0.0561 0.15389,0.20999 0.26608,0.26608 0.0793,0.0397 0.18675,-0.0397 0.26608,0 0.11219,0.0561 0.15389,0.20999 0.26608,0.26608 0.0793,0.0397 0.18675,-0.0397 0.26608,0 0.11219,0.0561 0.15389,0.20999 0.26608,0.26608 0.21287,0.10643 0.58538,-0.10643 0.79824,0 0.11219,0.0561 0.15389,0.20999 0.26608,0.26608 0.081,0.0405 0.67841,0 0.79824,0 0.79824,0 1.59649,0 2.39473,0 0.62085,0 1.24171,0 1.86256,0 0.17739,0 0.35477,0 0.53216,0 0.0887,0 0.18675,0.0397 0.26608,0 0.11219,-0.0561 0.15389,-0.20998 0.26608,-0.26608 0.16724,-0.0836 0.89708,0.0836 1.06432,0 0.11219,-0.0561 0.15389,-0.20998 0.26608,-0.26608 0.0793,-0.0397 0.17739,0 0.26608,0 0.17739,0 0.36388,0.0561 0.53216,0 0.119,-0.0397 0.1539,-0.20998 0.26608,-0.26608 0.1184,-0.0592 0.94262,0.0406 1.06432,0 0.119,-0.0397 0.1539,-0.20998 0.26609,-0.26608 0.0793,-0.0397 0.18675,0.0397 0.26608,0 0.11219,-0.0561 0.14708,-0.22641 0.26608,-0.26608 0.16828,-0.0561 0.36387,0.0561 0.53216,0 0.11899,-0.0397 0.15389,-0.20998 0.26608,-0.26608 0.0793,-0.0397 0.18675,0.0397 0.26608,0 1.21774,-0.60887 -1.12909,0.11028 0.79824,-0.53216 0.0841,-0.0281 0.18675,0.0397 0.26608,0 0.11219,-0.0561 0.14708,-0.22642 0.26608,-0.26608 0.16828,-0.0561 0.36388,0.0561 0.53216,0 0.119,-0.0397 0.14709,-0.22642 0.26608,-0.26608 0.16828,-0.0561 0.36388,0.0561 0.53216,0 0.119,-0.0397 0.16172,-0.1965 0.26608,-0.26608 0.134,-0.58622 0.54738,-0.14065 0.79824,-0.26608 0.22438,-0.11219 0.30778,-0.41997 0.53216,-0.53216 0.0793,-0.0397 0.18675,0.0397 0.26608,0 0.11219,-0.0561 0.15389,-0.20999 0.26608,-0.26608 0.0793,-0.0397 0.18675,0.0397 0.26608,0 0.11219,-0.0561 0.15389,-0.20999 0.26609,-0.26608 0.0793,-0.0397 0.20336,0.0627 0.26607,0 0.55054,-0.55053 -0.84128,0.0215 0.26608,-0.53216 0.0793,-0.0397 0.18676,0.0397 0.26609,0 0.22438,-0.11219 0.30778,-0.41997 0.53216,-0.53216 0.0793,-0.0397 0.18675,0.0397 0.26608,0 0.11219,-0.0561 0.15389,-0.20999 0.26608,-0.26608 0.0793,-0.0397 0.18675,0.0397 0.26608,0 1.10736,-0.55368 -0.28445,0.0184 0.26608,-0.53217 0.0627,-0.0627 0.18675,0.0397 0.26608,0 0.11219,-0.0561 0.15389,-0.20998 0.26608,-0.26607 0.0793,-0.0397 0.20336,0.0627 0.26608,0 0.0627,-0.0627 -0.0627,-0.20337 0,-0.26608 0.0627,-0.0627 0.18675,0.0397 0.26608,0 0.22438,-0.11219 0.29417,-0.45284 0.53216,-0.53217 0.16828,-0.0561 0.36388,0.0561 0.53216,0 0.119,-0.0397 0.15389,-0.20998 0.26608,-0.26608 0.0793,-0.0397 0.18675,0.0397 0.26608,0 0.11219,-0.0561 0.16171,-0.1965 0.26608,-0.26608 0.96652,-0.64435 0.18816,0.0779 0.79824,-0.53216 0.0887,-0.0887 0.17739,-0.17738 0.26608,-0.26608 0.0887,-0.0887 0.15389,-0.20998 0.26608,-0.26608 0.0793,-0.0397 0.17739,0 0.26608,0 0.17739,-0.0887 0.36715,-0.15607 0.53216,-0.26608 0.20873,-0.13915 0.32343,-0.393 0.53216,-0.53216 0.16502,-0.11001 0.36715,-0.15607 0.53216,-0.26608 0.10437,-0.0696 0.1539,-0.20998 0.26609,-0.26608 0.0793,-0.0397 0.18675,0.0397 0.26608,0 0.22437,-0.11219 0.30778,-0.41997 0.53216,-0.53216 0.0793,-0.0397 0.18675,0.0397 0.26608,0 0.11218,-0.0561 0.15389,-0.20999 0.26608,-0.26608 0.0793,-0.0397 0.18675,0.0397 0.26608,0 0.0509,-0.0254 1.03885,-1.01339 1.06432,-1.06432 0.0397,-0.0793 -0.0627,-0.20337 0,-0.26608 0.0627,-0.0627 0.18675,0.0397 0.26608,0 0.11219,-0.0561 0.15389,-0.20999 0.26608,-0.26608 0.0793,-0.0397 0.18675,0.0397 0.26608,0 0.22438,-0.11219 0.30778,-0.41997 0.53216,-0.53216 0.0793,-0.0397 0.20336,0.0627 0.26608,0 0.0627,-0.0627 -0.0397,-0.18675 0,-0.26608 0.29416,-0.58832 0.16514,-0.0826 0.53216,-0.26608 0.11219,-0.0561 0.15389,-0.20999 0.26608,-0.26609 0.0793,-0.0397 0.20337,0.0627 0.26608,0 0.0627,-0.0627 -0.0627,-0.20336 0,-0.26607 0.0627,-0.0627 0.18675,0.0397 0.26608,0 0.11219,-0.0561 0.15389,-0.20999 0.26608,-0.26608 0.0793,-0.0397 0.18675,0.0397 0.26608,0 0.11219,-0.0561 0.15389,-0.20999 0.26608,-0.26609 0.0793,-0.0397 0.20337,0.0627 0.26608,0 0.0627,-0.0627 -0.0627,-0.20336 0,-0.26608 0.0627,-0.0627 0.20337,0.0627 0.26608,0 0.0627,-0.0627 -0.0627,-0.20336 0,-0.26608 0.0627,-0.0627 0.18675,0.0397 0.26608,0 0.11219,-0.0561 0.1539,-0.20998 0.26608,-0.26608 0.0793,-0.0397 0.20337,0.0627 0.26608,0 0.0627,-0.0627 -0.0627,-0.20336 0,-0.26608 0.0627,-0.0627 0.17739,0 0.26609,0 0.0887,0 0.17738,0 0.26608,0"
       id="path16"
       inkscape:connector-curvature="0" />
    <path
       style="fill:none;stroke:#000000;stroke-width:0.26458332px;stroke-linecap:butt;stroke-linejoin:miter;stroke-opacity:1"
       d="m 19.423864,236.0676 c 0,5.14422 0,10.28844 0,15.43266 0,0.44347 0,0.88694 0,1.3304 0,0.0887 0,0.17739 0,0.26608 0,0.0887 0.03967,0.18675 0,0.26608 -0.05609,0.11219 -0.209986,0.1539 -0.26608,0.26608 -0.01485,0.0297 -0.01485,1.30071 0,1.33041 0.05609,0.11218 0.209985,0.15389 0.26608,0.26608 0.05275,0.10549 -0.0544,0.74384 0,0.79824 0.06272,0.0627 0.26608,-0.0887 0.26608,0 0,0.12543 -0.209985,0.15389 -0.26608,0.26608 -0.03966,0.0793 0.03967,0.18675 0,0.26608 -0.328796,0.65759 -0.26608,-0.0919 -0.26608,0.53216"
       id="path18"
       inkscape:connector-curvature="0" />
    <path
       style="fill:none;stroke:#000000;stroke-width:0.26458332px;stroke-linecap:butt;stroke-linejoin:miter;stroke-opacity:1"
       d="m 14.102257,241.92137 c 0.354774,0.0887 1.153015,-0.0887 1.064322,0.26608 -0.08869,0.35478 -1.012605,0.0959 -1.064322,-0.26608 -0.08414,-0.58899 0.503052,-1.0799 0.798241,-1.59648 0.352991,-0.61774 0.123541,-0.0618 0.532161,-0.26608 0.235837,-0.11792 0.556024,-0.63677 0.798241,-0.79824 0.165016,-0.11001 0.367145,-0.15607 0.532161,-0.26608 0.104365,-0.0696 0.161715,-0.19651 0.26608,-0.26608 0.165016,-0.11001 0.367145,-0.15607 0.532161,-0.26608 0.104365,-0.0696 0.177387,-0.17739 0.26608,-0.26608 0.26608,-0.26609 0.532161,-0.53217 0.798241,-0.79824 0.882477,-0.88248 -0.125431,0.25086 0.266081,-0.53217 0.553681,-1.10736 -0.01837,0.28445 0.53216,-0.26608 0.06272,-0.0627 -0.03966,-0.18675 0,-0.26608 0.0561,-0.11219 0.209986,-0.15389 0.26608,-0.26608 0.03966,-0.0793 -0.06272,-0.20336 0,-0.26608 0.06272,-0.0627 0.203365,0.0627 0.266081,0 0.06272,-0.0627 -0.06272,-0.20336 0,-0.26608 0.06272,-0.0627 0.177387,0 0.26608,0 0.08869,0 0.186751,-0.0397 0.26608,0 0.11219,0.0561 0.153892,0.20999 0.266081,0.26608 0.07933,0.0397 0.203364,-0.0627 0.26608,0 0.06272,0.0627 -0.06272,0.20337 0,0.26608 0.55053,0.55053 -0.02152,-0.84128 0.532161,0.26608 0.03967,0.0793 0,0.17739 0,0.26608 0.08869,0.17739 0.156069,0.36715 0.26608,0.53216 0.06958,0.10437 0.226415,0.14709 0.26608,0.26609 0.05609,0.16828 -0.05609,0.36387 0,0.53215 0.03966,0.119 0.209986,0.1539 0.266081,0.26609 0.03966,0.0793 -0.03966,0.18675 0,0.26608 0.159648,0.31929 0.638592,0.47894 0.798241,0.79824 0.03966,0.0793 -0.03966,0.18675 0,0.26608 0.05609,0.11219 0.209985,0.15389 0.26608,0.26608 0.03966,0.0793 -0.03966,0.18675 0,0.26608 0.0561,0.11219 0.209986,0.15389 0.26608,0.26608 0.01485,0.0297 0.01485,1.3007 0,1.3304 -0.05609,0.11219 -0.177387,0.17739 -0.26608,0.26608"
       id="path20"
       inkscape:connector-curvature="0" />
    <path
       style="fill:none;stroke:#000000;stroke-width:0.26458332px;stroke-linecap:butt;stroke-linejoin:miter;stroke-opacity:1"
       d="m 16.368807,224.93962 c -0.03136,-0.12543 -0.09407,-0.247 -0.09407,-0.37629 0,-0.0444 0.07424,-0.0544 0.09407,-0.0941 0.02805,-0.0561 -0.04435,-0.1438 0,-0.18815 0.02217,-0.0222 0.0719,0.0222 0.09407,0 0.02217,-0.0222 -0.01402,-0.066 0,-0.0941 0.01983,-0.0397 0.07424,-0.0544 0.09407,-0.0941 0.01402,-0.0281 -0.01402,-0.066 0,-0.0941 0.03966,-0.0793 0.138949,-0.11435 0.188147,-0.18814 0.0389,-0.0584 0.05518,-0.12981 0.09407,-0.18815 0.08628,-0.12942 0.145129,-0.0968 0.282221,-0.18815 0.0369,-0.0246 0.05718,-0.0695 0.09407,-0.0941 0.05995,-0.04 0.503422,-0.26697 0.564442,-0.28222 0.06084,-0.0152 0.125431,0 0.188147,0 0.06272,0 0.125432,0 0.188147,0 0.09407,0 0.188148,0 0.282221,0 0.06272,0 0.127304,-0.0152 0.188147,0 0.06802,0.017 0.125432,0.0627 0.188148,0.0941 0.430078,0.21504 -0.09724,-0.0583 0.470368,0.28222 0.06012,0.0361 0.132052,0.052 0.188147,0.0941 0.232249,0.17418 0.404725,0.51301 0.564441,0.75258 0.187714,0.28157 0.367759,0.57131 0.564442,0.84667 0.09113,0.12758 0.191089,0.2487 0.282221,0.37629 0.131432,0.18401 0.231533,0.39073 0.376294,0.56444 0.170341,0.20441 0.376295,0.3763 0.564442,0.56444 0.188147,0.18815 0.360033,0.39411 0.564441,0.56444 0.08686,0.0724 0.202274,0.10821 0.282221,0.18815 0.07995,0.08 0.115767,0.19537 0.188147,0.28222 0.08517,0.10221 0.188148,0.18815 0.282221,0.28222 0.06272,0.0627 0.125432,0.12543 0.188147,0.18815 0.06272,0.0627 0.125432,0.12543 0.188148,0.18815 0.06272,0.0627 0.13274,0.11889 0.188147,0.18815 0.07063,0.0883 0.117518,0.19393 0.188147,0.28222 0.08311,0.10388 0.208424,0.17152 0.282221,0.28222 0.0389,0.0583 0.05518,0.1298 0.09407,0.18815 0.144081,0.21612 0.05373,-0.0403 0.28222,0.18814 0.04958,0.0496 0.05518,0.12981 0.09407,0.18815 0.0246,0.0369 0.07424,0.0544 0.09407,0.0941 0.01402,0.0281 -0.02217,0.0719 0,0.0941 0.02217,0.0222 0.06271,0 0.09407,0"
       id="path26"
       inkscape:connector-curvature="0" />
    <path
       style="fill:none;stroke:#000000;stroke-width:0.26458332px;stroke-linecap:butt;stroke-linejoin:miter;stroke-opacity:1"
       d="m 22.953959,220.70631 c 0.401381,0.30103 0.376294,0.12543 0.376294,0.37629 0,0.0314 0.0099,0.0643 0,0.0941 -0.02217,0.0665 -0.0719,0.12163 -0.09407,0.18815 -0.07918,0.23754 0.191071,-0.098 -0.09407,0.28222 -0.443094,0.5908 0.08413,-0.29701 -0.376294,0.47037 -0.03608,0.0601 -0.058,0.12802 -0.09407,0.18815 -0.05817,0.0969 -0.125431,0.18814 -0.188147,0.28222 -0.06272,0.0941 -0.115766,0.19536 -0.188147,0.28222 -0.08517,0.1022 -0.204893,0.17396 -0.282221,0.28222 -0.08151,0.11411 -0.106636,0.26218 -0.188147,0.3763 -0.07733,0.10825 -0.197051,0.18001 -0.282221,0.28222 -0.07238,0.0868 -0.122431,0.19021 -0.188147,0.28222 -0.09113,0.12758 -0.199123,0.24333 -0.282221,0.37629 -0.07432,0.11892 -0.125431,0.25086 -0.188147,0.3763 -0.125432,0.25086 -0.237141,0.50906 -0.376295,0.75258 -0.05609,0.0982 -0.143609,0.1783 -0.188147,0.28222 -0.05093,0.11884 -0.04868,0.25524 -0.09407,0.3763 -0.04924,0.13131 -0.132906,0.2474 -0.188148,0.37629 -0.09667,0.22556 -0.11995,0.41983 -0.188147,0.65852 -0.02724,0.0953 -0.07777,0.18441 -0.09407,0.28222 -0.01546,0.0928 0.01845,0.18997 0,0.28222 -0.0275,0.13751 -0.154135,0.24024 -0.188148,0.37629 -0.02002,0.0801 0.027,0.41637 0,0.47037 -0.01983,0.0397 -0.07424,0.0544 -0.09407,0.0941 -0.01701,0.034 0,0.40493 0,0.47037"
       id="path28"
       inkscape:connector-curvature="0" />
    <path
       style="fill:none;stroke:#000000;stroke-width:0.26458332px;stroke-linecap:butt;stroke-linejoin:miter;stroke-opacity:1"
       d="m 62.558945,239.23881 c -0.109519,-0.33184 0.350962,0.30755 0.470368,0.18814 0.02217,-0.0222 -0.02217,-0.0719 0,-0.0941 0.02217,-0.0222 0.06603,0.014 0.09408,0 0.03966,-0.0198 0.05441,-0.0742 0.09407,-0.0941 0.02805,-0.014 0.0719,0.0222 0.09407,0 0.04958,-0.0496 0.05518,-0.12981 0.09407,-0.18815 0.02461,-0.0369 0.06271,-0.0627 0.09407,-0.0941 0.03136,-0.0314 0.05718,-0.0695 0.09407,-0.0941 0.05834,-0.0389 0.132054,-0.052 0.188148,-0.0941 0.141909,-0.10644 0.224187,-0.28503 0.376296,-0.3763 0.08503,-0.051 0.199713,-0.0391 0.28222,-0.0941 0.110697,-0.0738 0.180018,-0.19705 0.282221,-0.28222 0.08686,-0.0724 0.190217,-0.12243 0.28222,-0.18815 0.25517,-0.18226 0.491675,-0.3905 0.752589,-0.56444 0.152138,-0.10142 0.320574,-0.17736 0.470368,-0.28222 0.164492,-0.11515 0.309737,-0.25582 0.470369,-0.37629 0.215799,-0.16186 0.444703,-0.3059 0.658516,-0.47037 0.194122,-0.14933 0.365146,-0.32802 0.564441,-0.47037 0.240726,-0.17195 0.508812,-0.30277 0.752588,-0.47037 0.258403,-0.17765 0.489318,-0.39409 0.752589,-0.56444 0.271055,-0.17539 0.57118,-0.30202 0.846662,-0.47037 0.289422,-0.17687 0.557241,-0.38757 0.846664,-0.56444 0.275481,-0.16835 0.56444,-0.31358 0.846661,-0.47037 0.28222,-0.15679 0.560967,-0.32 0.846664,-0.47037 0.310242,-0.16328 0.634262,-0.3001 0.940734,-0.47036 0.258601,-0.14367 0.497604,-0.32038 0.752589,-0.47037 0.812847,-0.47815 1.659712,-0.88697 2.445914,-1.41111 0.448892,-0.29926 0.863213,-0.64899 1.317029,-0.94073 0.212665,-0.13671 0.450655,-0.23239 0.658517,-0.3763 0.366434,-0.25368 0.674372,-0.58452 1.034809,-0.84666 0.182875,-0.133 0.379193,-0.24662 0.564441,-0.37629 0.462899,-0.32403 0.348662,-0.28502 0.846664,-0.65852 0.180898,-0.13567 0.387868,-0.23503 0.564441,-0.37629 0.06926,-0.0554 0.125431,-0.12543 0.188148,-0.18815 0.210319,-0.21032 0.188147,-0.0994 0.188147,-0.28222 0,-0.13842 0.02217,-0.0719 -0.09408,-0.18815"
       id="path30"
       inkscape:connector-curvature="0" />
    <path
       style="fill:none;stroke:#000000;stroke-width:0.26458332px;stroke-linecap:butt;stroke-linejoin:miter;stroke-opacity:1"
       d="m 64.440418,234.44105 c -0.125431,0.0314 -0.260651,0.0363 -0.376295,0.0941 -0.02805,0.014 0.01402,0.066 0,0.0941 -0.01982,0.0397 -0.08005,0.052 -0.09407,0.0941 -0.02975,0.0892 0.02975,0.19298 0,0.28223 -0.02217,0.0665 -0.06803,0.12304 -0.09407,0.18814 -0.03683,0.0921 -0.05725,0.19015 -0.09407,0.28222 -0.08774,0.21935 -0.143573,0.20294 -0.188148,0.47037 -0.01548,0.0928 0.01548,0.18943 0,0.28222 -0.04457,0.26743 -0.100406,0.25102 -0.188145,0.47037 -0.07366,0.18414 -0.125431,0.37629 -0.188148,0.56444 -0.03136,0.0941 -0.07777,0.18441 -0.09407,0.28222 -0.01548,0.0928 0.01844,0.18998 0,0.28222 -0.02347,0.11734 -0.250561,0.40705 -0.282223,0.47037 -0.04435,0.0887 -0.06272,0.18815 -0.09407,0.28222 -0.03136,0.0941 -0.07777,0.18441 -0.09407,0.28222 -0.02577,0.15466 0.03803,0.31826 0,0.47037 -0.01701,0.068 -0.09407,0.11803 -0.09407,0.18815 0,0.0701 0.0719,0.12162 0.09407,0.18815 0.0099,0.0297 -0.01402,0.066 0,0.0941 0.0081,0.0161 0.270534,0.27832 0.282221,0.28222 0.0595,0.0198 0.125431,0 0.188148,0 0.125431,0 0.253298,0.0246 0.376293,0 0.06876,-0.0138 0.11939,-0.0803 0.188148,-0.0941 0.09225,-0.0185 0.188147,0 0.28222,0 0.498851,0 0.06915,0.0297 0.564441,-0.0941 0.298241,-0.0746 0.556948,-0.0916 0.846664,-0.18814 0.320402,-0.10681 0.627158,-0.25087 0.940734,-0.3763 0.156789,-0.0627 0.319331,-0.11263 0.470368,-0.18815 0.163544,-0.0818 0.310534,-0.19342 0.470369,-0.28222 0.122589,-0.0681 0.250864,-0.12543 0.376295,-0.18815 0.125431,-0.0627 0.244986,-0.1389 0.376293,-0.18814 0.12106,-0.0454 0.251979,-0.0586 0.376296,-0.0941 0.190693,-0.0545 0.376293,-0.12543 0.564441,-0.18814 0.09407,-0.0314 0.184983,-0.0746 0.28222,-0.0941 0.122997,-0.0246 0.250862,0 0.376296,0 0.06271,0 0.125431,0 0.188145,0 0.06272,0 0.127305,-0.0152 0.188148,0 0.06802,0.017 0.121626,0.0719 0.188148,0.0941 0.05904,0.0197 0.300561,0 0.376293,0"
       id="path34"
       inkscape:connector-curvature="0" />
    <path
       style="fill:none;stroke:#000000;stroke-width:0.26458332px;stroke-linecap:butt;stroke-linejoin:miter;stroke-opacity:1"
       d="m 85.230683,223.34037 c -0.198324,0.1246 0.04958,0.32162 0,0.47037 -0.02217,0.0665 -0.06803,0.12304 -0.09407,0.18814 -0.03683,0.0921 -0.06272,0.18815 -0.09407,0.28222 -0.06272,0.12544 -0.132906,0.2474 -0.188148,0.3763 -0.08098,0.18894 -0.140409,0.46756 -0.188148,0.65851 -0.0556,0.22239 -0.164261,0.63169 -0.188148,0.84667 -0.01384,0.12466 0.01773,0.25212 0,0.37629 -0.01402,0.0982 -0.08005,0.18406 -0.09407,0.28222 -0.07561,0.52929 0.02011,0.21475 0.09407,0.65851 0.01548,0.0928 -0.01844,0.18998 0,0.28223 0.01376,0.0687 0.07707,0.12012 0.09408,0.18814 0.03846,0.15385 -0.07154,0.19942 0.09407,0.28222 0.02805,0.014 0.06272,0 0.09407,0 0.06272,0 0.127304,0.0152 0.188148,0 0.06802,-0.017 0.125431,-0.0627 0.188148,-0.0941 0.06272,-0.0314 0.133395,-0.0503 0.188147,-0.0941 0.103886,-0.0831 0.180018,-0.19705 0.282221,-0.28222 0.08686,-0.0724 0.195363,-0.11577 0.28222,-0.18815 0.102204,-0.0852 0.188148,-0.18815 0.282221,-0.28222 0.09408,-0.0941 0.197051,-0.18002 0.28222,-0.28222 0.07238,-0.0869 0.115769,-0.19537 0.188148,-0.28222 0.670399,-0.6704 -0.05352,0.0904 0.470368,-0.56444 0.05541,-0.0693 0.132742,-0.11889 0.188148,-0.18815 0.15136,-0.1892 0.184518,-0.27497 0.282221,-0.47037 0.03136,-0.0627 0.05518,-0.12981 0.09407,-0.18815 0.02461,-0.0369 0.08005,-0.052 0.09408,-0.0941 0.01984,-0.0595 -0.01984,-0.12865 0,-0.18815 0.01402,-0.0421 0.08005,-0.052 0.09407,-0.0941 0.01984,-0.0595 -0.01984,-0.12865 0,-0.18815 0.01402,-0.0421 0.07424,-0.0544 0.09407,-0.0941 0.01402,-0.0281 -0.03136,-0.0941 0,-0.0941 0.03136,0 0.0099,0.0643 0,0.0941 -0.02217,0.0665 -0.0719,0.12162 -0.09407,0.18815 -0.0099,0.0297 0.0099,0.0643 0,0.0941 -0.04435,0.13304 -0.154136,0.24024 -0.188148,0.37629 -0.01521,0.0608 0.01521,0.12731 0,0.18815 -0.01701,0.068 -0.08032,0.11939 -0.09407,0.18815 -0.01844,0.0922 0.01844,0.18997 0,0.28222 -0.01376,0.0687 -0.08032,0.11939 -0.09408,0.18815 -0.03075,0.15374 0,0.31357 0,0.47036 0,0.0941 0,0.18815 0,0.28222 0,0.0627 -0.01521,0.12731 0,0.18815 0.01701,0.068 0.06272,0.12543 0.09408,0.18815 0.125431,0.25086 0.03136,0.15679 0.28222,0.28222 0.06272,0.0314 0.121626,0.0719 0.188148,0.0941 0.02975,0.01 0.06433,-0.01 0.09407,0 0.06652,0.0222 0.120123,0.0771 0.188147,0.0941 0.06084,0.0152 0.125431,0 0.188148,0 0.03136,0 0.06602,0.014 0.09407,0 0.03966,-0.0198 0.05441,-0.0742 0.09407,-0.0941 0.276841,-0.13842 -0.123855,0.21793 0.188147,-0.0941"
       id="path36"
       inkscape:connector-curvature="0" />
    <path
       style="fill:none;stroke:#000000;stroke-width:0.26458332px;stroke-linecap:butt;stroke-linejoin:miter;stroke-opacity:1"
       d="m 93.226942,219.01298 c -0.310158,0.11119 -0.04351,0.31868 -0.09408,0.47037 -0.227136,0.68141 0.02712,-0.14832 -0.188147,0.28222 -0.01402,0.0281 0.01402,0.066 0,0.0941 -0.01984,0.0397 -0.07424,0.0544 -0.09407,0.0941 -0.04435,0.0887 -0.05724,0.19015 -0.09407,0.28222 -0.166531,0.41632 -0.03215,-0.0756 -0.188147,0.47037 -0.03552,0.12431 -0.05319,0.25363 -0.09408,0.37629 -0.0534,0.1602 -0.139623,0.30862 -0.188145,0.47037 -0.04594,0.15315 -0.04813,0.31722 -0.09407,0.47037 -0.04852,0.16174 -0.143714,0.30745 -0.188145,0.47036 -0.05019,0.18403 -0.06507,0.37592 -0.09408,0.56445 -0.03226,0.20972 -0.133995,0.9883 -0.188147,1.22295 -0.05133,0.22245 -0.140314,0.4353 -0.188146,0.65852 -0.208626,0.97359 -0.01945,0.32748 -0.09407,1.22296 -0.125005,1.50005 -0.09407,-0.36613 -0.09407,1.12888 0,0.18814 0,0.37629 0,0.56444 0,0.15679 -0.01561,0.31436 0,0.47037 0.0159,0.1591 0.06272,0.31358 0.09407,0.47037 0.11943,0.59715 0.0553,0.31524 0.188148,0.84666 0.03136,0.12543 0.06272,0.25086 0.09407,0.37629 0.03136,0.12544 0.04314,0.25746 0.09408,0.3763 0.153474,0.35811 0.173992,0.20063 0.376293,0.47037 0.401217,0.53495 -0.293841,-0.19977 0.28222,0.37629"
       id="path38"
       inkscape:connector-curvature="0" />
    <path
       style="fill:none;stroke:#000000;stroke-width:0.26458332px;stroke-linecap:butt;stroke-linejoin:miter;stroke-opacity:1"
       d="m 99.247652,219.6715 c -0.06272,0.12543 -0.110358,0.25961 -0.188148,0.37629 -0.0492,0.0738 -0.125431,0.12543 -0.188148,0.18815 -0.156789,0.15679 -0.328417,0.30003 -0.470368,0.47037 -0.07238,0.0868 -0.115766,0.19536 -0.188145,0.28222 -0.08517,0.1022 -0.211712,0.1694 -0.282223,0.28222 -0.0895,0.1432 -0.119563,0.31605 -0.188146,0.47037 -0.369123,0.83052 -0.01331,-0.14826 -0.376295,0.94073 -0.06271,0.18815 -0.125431,0.3763 -0.188148,0.56444 -0.06271,0.18815 -0.140047,0.37204 -0.188145,0.56445 -0.04626,0.18504 -0.06272,0.37629 -0.09408,0.56444 -0.03136,0.18815 -0.07823,0.37436 -0.09407,0.56444 -0.01564,0.1875 0,0.37629 0,0.56444 0,0.18815 -0.01704,0.37707 0,0.56444 0.01447,0.15924 0.06271,0.31358 0.09407,0.47037 0.0099,0.0495 0.143865,0.75809 0.188148,0.84666 0.07012,0.14024 0.19109,0.24871 0.282221,0.3763 0.06572,0.092 0.12243,0.19021 0.188147,0.28222 0.04319,0.0605 0.336675,0.48422 0.470369,0.56444 0.08503,0.051 0.197188,0.0431 0.28222,0.0941 0.07605,0.0456 0.108818,0.14849 0.188148,0.18815 0.08414,0.0421 0.188145,0 0.282221,0"
       id="path40"
       inkscape:connector-curvature="0" />
    <path
       style="fill:none;stroke:#000000;stroke-width:0.26458332px;stroke-linecap:butt;stroke-linejoin:miter;stroke-opacity:1"
       d="m 94.732119,224.56333 c 0.125431,0.0627 0.243253,0.1438 0.376293,0.18814 0.04306,0.0144 0.417859,0 0.470369,0 0.03136,0 0.06432,-0.01 0.09407,0 0.532993,0.2665 -0.140234,-0.0351 0.376296,0.0941 0.06802,0.017 0.120121,0.0771 0.188148,0.0941 0.06084,0.0152 0.125431,0 0.188145,0 0.06272,0 0.125434,0 0.188148,0 0.09407,0 0.188148,0 0.28222,0 0.09408,0 0.189093,0.0133 0.282221,0 0.127992,-0.0183 0.248303,-0.0758 0.376295,-0.0941 0.09313,-0.0133 0.189093,0.0133 0.282221,0 0.818324,-0.11691 -0.01159,-0.0541 0.658516,-0.18815 0.0615,-0.0123 0.125431,0 0.188145,0"
       id="path42"
       inkscape:connector-curvature="0" />
    <path
       style="fill:none;stroke:#000000;stroke-width:0.26458332px;stroke-linecap:butt;stroke-linejoin:miter;stroke-opacity:1"
       d="m 104.0454,225.69221 c 0.12544,0.12543 0.25087,0.25086 0.3763,0.37629 0,0.0314 -0.014,0.066 0,0.0941 0.0198,0.0397 0.0695,0.0572 0.0941,0.0941 0.0389,0.0583 0.0627,0.12543 0.0941,0.18815 0.0314,0.0627 0.0825,0.11898 0.0941,0.18814 0.0206,0.12373 0,0.25087 0,0.3763 0,0.0941 0.0155,0.18942 0,0.28222 -0.0401,0.24068 -0.18876,0.44043 -0.28222,0.65851 -0.3696,0.8624 0.23431,-0.33949 -0.28222,0.56445 -0.0984,0.17216 -0.2235,0.50571 -0.3763,0.65851 -0.0799,0.0799 -0.19536,0.11577 -0.28222,0.18815 -0.1022,0.0852 -0.17152,0.20842 -0.28222,0.28222 -0.0825,0.055 -0.18814,0.0627 -0.28222,0.0941 -0.34874,0.11625 -0.19353,0.0497 -0.47037,0.18815"
       id="path44"
       inkscape:connector-curvature="0" />
    <path
       style="fill:none;stroke:#000000;stroke-width:0.26458332px;stroke-linecap:butt;stroke-linejoin:miter;stroke-opacity:1"
       d="m 108.46686,222.02334 c -0.0941,-0.12544 -0.18814,-0.25087 -0.28222,-0.3763 -0.0314,0 -0.0719,0.0222 -0.0941,0 -0.0222,-0.0222 0,-0.0627 0,-0.0941 0,-0.0492 -0.0124,-0.35156 0,-0.3763 0.0198,-0.0397 0.08,-0.052 0.0941,-0.0941 0.0199,-0.0595 -0.0198,-0.12865 0,-0.18815 0.004,-0.0117 0.26609,-0.27415 0.28222,-0.28222 0.0281,-0.014 0.0643,0.01 0.0941,0 0.0665,-0.0222 0.12012,-0.0771 0.18815,-0.0941 0.0608,-0.0152 0.12543,0 0.18814,0 0.0627,0 0.12865,-0.0198 0.18815,0 0.0421,0.014 0.052,0.08 0.0941,0.0941 0.0595,0.0198 0.12731,-0.0152 0.18815,0 0.099,0.0247 0.43665,0.2485 0.47037,0.28222 0.0799,0.0799 0.12543,0.18815 0.18814,0.28222 0.0627,0.0941 0.13206,0.18406 0.18815,0.28222 0.13916,0.24352 0.24009,0.50742 0.3763,0.75259 0.0888,0.15984 0.20045,0.30683 0.28222,0.47037 0.2237,0.44741 0.34074,0.9637 0.56444,1.41111 0.0818,0.16354 0.20045,0.30682 0.28222,0.47037 0.22302,0.44603 0.12692,0.44766 0.37629,0.84666 0.0831,0.13295 0.19109,0.24871 0.28223,0.37629 0.0657,0.092 0.12543,0.18815 0.18814,0.28222 0.0627,0.0941 0.13759,0.1811 0.18815,0.28222 0.0443,0.0887 0.0497,0.19353 0.0941,0.28222 0.0125,0.025 0.25725,0.26974 0.28223,0.28222 0.028,0.014 0.0627,0 0.0941,0"
       id="path46"
       inkscape:connector-curvature="0" />
    <path
       style="fill:none;stroke:#000000;stroke-width:0.26458332px;stroke-linecap:butt;stroke-linejoin:miter;stroke-opacity:1"
       d="m 114.7698,220.23594 c -0.12544,-0.0314 -0.24701,-0.0941 -0.3763,-0.0941 -0.0443,0 -0.0627,0.0627 -0.0941,0.0941 -0.0627,0.0627 -0.12543,0.12543 -0.18815,0.18815 -0.12543,0.12543 -0.26548,0.23777 -0.37629,0.37629 -0.0706,0.0883 -0.12243,0.19022 -0.18815,0.28222 -0.0911,0.12759 -0.19525,0.24584 -0.28222,0.37629 -0.20285,0.30428 -0.36811,0.63222 -0.56444,0.94074 -0.1214,0.19077 -0.25087,0.3763 -0.3763,0.56444 -0.12543,0.18815 -0.24758,0.37853 -0.37629,0.56445 -0.15355,0.22178 -0.3245,0.4316 -0.47037,0.65851 -0.13671,0.21266 -0.25086,0.43901 -0.3763,0.65852 -0.25086,0.43901 -0.48758,0.8864 -0.75258,1.31703 -0.11851,0.19258 -0.2549,0.37366 -0.3763,0.56444 -0.19633,0.30852 -0.38684,0.62106 -0.56444,0.94073 -0.0681,0.12259 -0.11857,0.25454 -0.18815,0.3763 -0.0561,0.0982 -0.13758,0.18109 -0.18814,0.28222 -0.0444,0.0887 -0.0573,0.19015 -0.0941,0.28222 -0.026,0.0651 -0.0627,0.12543 -0.0941,0.18815 -0.0314,0.0627 -0.0445,0.13856 -0.0941,0.18814 -0.0222,0.0222 -0.0627,0 -0.0941,0"
       id="path48"
       inkscape:connector-curvature="0" />
    <path
       style="fill:none;stroke:#000000;stroke-width:0.26458332px;stroke-linecap:butt;stroke-linejoin:miter;stroke-opacity:1"
       d="m 118.81496,216.75521 c 0.56732,0.3404 0.31823,0.1808 0.75259,0.47037 0.0941,0.0627 0.19393,0.11752 0.28222,0.18815 0.0693,0.0554 0.11889,0.13274 0.18815,0.18815 0.17657,0.14126 0.39073,0.23153 0.56444,0.37629 0.26206,0.21838 0.35681,0.38168 0.56444,0.65852 0.26916,0.35888 0.34718,0.39497 0.47037,0.84666 0.0894,0.32797 0.14092,0.89499 0.0941,1.22296 -0.0323,0.22599 -0.12543,0.43901 -0.18815,0.65851 -0.19313,0.67597 -0.18851,0.72661 -0.47036,1.41111 -0.11759,0.28557 -0.26436,0.55882 -0.3763,0.84666 -0.10782,0.27726 -0.16678,0.57249 -0.28222,0.84666 -0.13605,0.32312 -0.3265,0.62102 -0.47037,0.94074 -0.27718,0.61597 -0.4865,1.26061 -0.75258,1.88147 -0.81373,1.8987 -0.17293,0.24164 -0.75259,1.7874"
       id="path50"
       inkscape:connector-curvature="0" />
  </g>
</svg>
