<?xml version="1.0" encoding="UTF-8" standalone="no"?>
<!-- Created with Inkscape (http://www.inkscape.org/) -->

<svg
   xmlns:dc="http://purl.org/dc/elements/1.1/"
   xmlns:cc="http://creativecommons.org/ns#"
   xmlns:rdf="http://www.w3.org/1999/02/22-rdf-syntax-ns#"
   xmlns:svg="http://www.w3.org/2000/svg"
   xmlns="http://www.w3.org/2000/svg"
   xmlns:sodipodi="http://sodipodi.sourceforge.net/DTD/sodipodi-0.dtd"
   xmlns:inkscape="http://www.inkscape.org/namespaces/inkscape"
   width="240mm"
   height="120mm"
   viewBox="0 0 240 120"
   version="1.1"
   id="svg8"
   inkscape:version="0.92.3 (2405546, 2018-03-11)"
   sodipodi:docname="l2f2.svg">
  <defs
     id="defs2" />
  <sodipodi:namedview
     id="base"
     pagecolor="#ffffff"
     bordercolor="#666666"
     borderopacity="1.0"
     inkscape:pageopacity="0.0"
     inkscape:pageshadow="2"
     inkscape:zoom="2.8125141"
     inkscape:cx="477.02402"
     inkscape:cy="228.92913"
     inkscape:document-units="mm"
     inkscape:current-layer="layer1"
     showgrid="false"
     showborder="true"
     width="200mm"
     showguides="true"
     inkscape:guide-bbox="true"
     inkscape:window-width="2866"
     inkscape:window-height="1889"
     inkscape:window-x="134"
     inkscape:window-y="55"
     inkscape:window-maximized="1">
    <inkscape:grid
       type="xygrid"
       id="grid815"
       units="mm"
       spacingx="10"
       spacingy="10"
       empspacing="4"
       dotted="false" />
  </sodipodi:namedview>
  <metadata
     id="metadata5">
    <rdf:RDF>
      <cc:Work
         rdf:about="">
        <dc:format>image/svg+xml</dc:format>
        <dc:type
           rdf:resource="http://purl.org/dc/dcmitype/StillImage" />
        <dc:title />
      </cc:Work>
    </rdf:RDF>
  </metadata>
  <g
     inkscape:label="Layer 1"
     inkscape:groupmode="layer"
     id="layer1"
     transform="translate(0,-177)">
    <path
       style="fill:none;stroke:#000000;stroke-width:0.26458332px;stroke-linecap:butt;stroke-linejoin:miter;stroke-opacity:1"
       d="m 46.830138,250.9681 c 0.354775,0.0887 0.737235,0.10254 1.064321,0.26608 0.07933,0.0397 -0.06271,0.20337 0,0.26608 0.06272,0.0627 0.186751,-0.0397 0.266081,0 0.112188,0.0561 0.153889,0.20999 0.266081,0.26608 0.15866,0.0793 0.373499,-0.0793 0.532159,0 0.112191,0.0561 0.147087,0.22642 0.266081,0.26608 0.168285,0.0561 0.354774,0 0.532161,0 0.222811,0 1.128057,-0.0506 1.330402,0 0.192403,0.0481 0.339757,0.21798 0.532159,0.26608 0.172091,0.043 0.354775,0 0.532162,0 0.266081,0 0.532159,0 0.79824,0 0.354774,0 0.716439,0.0696 1.064321,0 0.275029,-0.055 0.521584,-0.21997 0.798242,-0.26608 0.262459,-0.0437 0.53216,0 0.79824,0 0.620856,0 1.246503,0.077 1.862564,0 0.362868,-0.0454 0.701453,-0.22072 1.064321,-0.26608 0.352033,-0.044 0.711718,0.0392 1.064321,0 0.449484,-0.0499 0.880919,-0.21613 1.330401,-0.26608 0.352605,-0.0392 0.709549,0 1.064321,0 0.354775,-0.0887 0.701453,-0.22072 1.064321,-0.26608 0.352036,-0.044 0.712287,0.044 1.064323,0 0.725737,-0.0907 1.401731,-0.45139 2.128642,-0.53216 3.508499,0 -0.594373,0.10756 2.394723,-0.26608 0.704069,-0.088 1.423434,0.0784 2.128644,0 0.449482,-0.0499 0.880917,-0.21614 1.330402,-0.26608 0.352602,-0.0392 0.709546,0 1.064321,0 0.354771,0 0.709546,0 1.06432,0 0.266081,0 0.534834,0.0376 0.79824,0 0.362019,-0.0517 0.701453,-0.22072 1.064321,-0.26608 0.352036,-0.044 0.709549,0 1.064324,0 0.975627,0 1.951254,0 2.926881,0 0.354775,0 0.712288,0.044 1.064324,0 0.362868,-0.0454 0.701453,-0.22072 1.064321,-0.26608 0.960617,-0.12008 1.966264,0.12008 2.926881,0 0.362871,-0.0454 0.701453,-0.22072 1.064324,-0.26608 0.352033,-0.044 0.709546,0 1.064321,0 0.975627,0 1.951254,0 2.926884,0 1.064321,0 2.128642,0 3.192962,0 0.354775,0 0.709549,0 1.064321,0 0.354775,0 0.712288,0.044 1.064321,0 0.362871,-0.0454 0.701456,-0.22072 1.064324,-0.26608 0.792075,-0.099 1.600443,0.0794 2.394722,0 0.450006,-0.045 0.880396,-0.22108 1.330397,-0.26608 0.44127,-0.0441 0.88694,0 1.33041,0 1.2417,0 2.48341,0 3.72512,0 0.35478,0 0.71229,0.044 1.06432,0 0.36287,-0.0454 0.70145,-0.22072 1.06432,-0.26608 0.35204,-0.044 0.70955,0 1.06432,0 0.70955,0 1.4191,0 2.12865,0 0.35477,0 0.71171,0.0392 1.06432,0 0.44948,-0.0499 0.88039,-0.22108 1.3304,-0.26608 0.79428,-0.0794 1.60136,0.0882 2.39472,0 0.44949,-0.0499 0.88092,-0.21614 1.3304,-0.26608 0.35261,-0.0392 0.71172,0.0392 1.06433,0 0.44948,-0.05 0.88164,-0.20999 1.3304,-0.26608 0.26402,-0.033 0.53483,0.0376 0.79824,0 0.36202,-0.0517 0.70145,-0.22072 1.06432,-0.26608 0.35203,-0.044 0.70955,0 1.06432,0 0.70955,0 1.4191,0 2.12864,0 2.79647,0 -0.68836,0.086 2.12865,-0.26608 0.35203,-0.044 0.70954,0 1.06432,0 0.44347,0 0.88693,0 1.3304,0 0.35477,0 0.71229,0.044 1.06432,0 0.36287,-0.0454 0.70087,-0.2257 1.06432,-0.26608 3.5085,0 -0.59437,0.10755 2.39472,-0.26608 0.35204,-0.044 0.70955,0 1.06433,0 0.44346,0 0.88693,0 1.3304,0 0.35477,0 0.71228,0.044 1.06432,0 0.36287,-0.0454 0.70145,-0.22073 1.06432,-0.26608 0.79208,-0.099 1.60137,0.0882 2.39472,0 0.36346,-0.0404 0.70087,-0.2257 1.06432,-0.26608 0.44076,-0.049 0.88965,0.049 1.33041,0 0.36345,-0.0404 0.70086,-0.2257 1.06432,-0.26608 0.44075,-0.049 0.88693,0 1.3304,0 0.35477,0 0.70955,0 1.06432,0 0.97563,0 1.95126,0 2.92688,0 0.35478,0 0.70955,0 1.06433,0 0.35477,0 0.71311,0.0502 1.06432,0 0.27765,-0.0397 0.52058,-0.22642 0.79824,-0.26609 0.85858,-0.12265 2.05479,0.10902 2.92688,0 0.36287,-0.0454 0.70231,-0.21436 1.06432,-0.26608 0.26341,-0.0376 0.53217,0 0.79824,0 0.62086,0 1.24171,0 1.86257,0 1.86256,0 3.72512,0 5.58768,0 0.88694,0 1.77387,0 2.66081,0 0.17738,0 0.35477,0 0.53216,0 0.17738,0 0.36007,-0.043 0.53216,0 0.1924,0.0481 0.34401,0.20337 0.53216,0.26608 0.22301,0.0743 0.88798,-0.0882 1.06432,0 0.11219,0.0561 0.15389,0.20999 0.26608,0.26609 0.0962,0.0481 1.14533,0 1.3304,0 0.0887,0 0.20337,0.0627 0.26608,0 0.19576,-0.19576 -0.21412,-0.48021 -0.26608,-0.53217"
       id="path8"
       inkscape:connector-curvature="0" />
    <path
       style="fill:none;stroke:#000000;stroke-width:0.26458332px;stroke-linecap:butt;stroke-linejoin:miter;stroke-opacity:1"
       d="m 162.57508,237.39801 c 3.3987,-0.94468 0.66275,0.92882 1.06432,1.3304 0.0627,0.0627 0.18675,-0.0397 0.26608,0 0.3193,0.15964 0.47895,0.63859 0.79824,0.79824 0.0793,0.0397 0.18675,-0.0397 0.26608,0 0.11219,0.0561 0.16172,0.1965 0.26609,0.26608 0.16501,0.11001 0.36714,0.15607 0.53215,0.26608 0.20874,0.13915 0.32344,0.39301 0.53217,0.53216 0.16501,0.11001 0.36714,0.15607 0.53216,0.26608 0.10436,0.0696 0.16171,0.1965 0.26608,0.26608 0.16501,0.11001 0.36714,0.15607 0.53216,0.26608 1.21895,0.81263 -1.131,-0.43246 0.79824,0.53216 0.17739,0.0887 0.3735,0.14709 0.53216,0.26608 0.30103,0.22578 0.48514,0.58951 0.79824,0.79824 0.16502,0.11001 0.35477,0.17739 0.53216,0.26608 0.17739,0.0887 0.36715,0.15607 0.53216,0.26608 0.20873,0.13915 0.30778,0.41997 0.53216,0.53216 0.36702,0.18351 0.238,-0.32223 0.53216,0.26608 0.0793,0.15866 -0.12543,0.40673 0,0.53216 0.0627,0.0627 0.20337,-0.0627 0.26608,0 0.0627,0.0627 0,0.17739 0,0.26609 0,0.0887 0.0397,0.18675 0,0.26607 -0.0561,0.11219 -0.20998,0.1539 -0.26608,0.26608 -0.0397,0.0793 0,0.17739 0,0.26609 -0.0887,0.0887 -0.20998,0.15389 -0.26608,0.26608 -0.0397,0.0793 0.0627,0.20336 0,0.26608 -0.0627,0.0627 -0.18675,-0.0397 -0.26608,0 -0.22438,0.11219 -0.32343,0.393 -0.53216,0.53216 -0.16501,0.11001 -0.36714,0.15607 -0.53216,0.26608 -0.10436,0.0696 -0.16171,0.1965 -0.26608,0.26608 -0.0496,0.033 -1.04727,0.51511 -1.06432,0.53216 -0.14024,0.14023 -0.12584,0.39192 -0.26608,0.53216 -0.14024,0.14024 -0.36715,0.15607 -0.53216,0.26608 -0.10437,0.0696 -0.16172,0.1965 -0.26608,0.26608 -0.16502,0.11001 -0.36715,0.15607 -0.53216,0.26608 -0.10437,0.0696 -0.16172,0.1965 -0.26608,0.26608 -0.16502,0.11001 -0.36715,0.15607 -0.53216,0.26608 -0.10437,0.0696 -0.17739,0.17739 -0.26608,0.26608 -0.26608,0.26608 -0.53217,0.53216 -0.79824,0.79824 -0.0887,0.0887 -0.17739,0.17739 -0.26608,0.26608 -0.0887,0.0887 -0.1539,0.20999 -0.26609,0.26608 -0.0793,0.0397 -0.20336,-0.0627 -0.26608,0 -0.0627,0.0627 0.0627,0.20337 0,0.26608 -0.35477,0.35478 -0.26608,-0.44346 -0.26608,0.26608"
       id="path10"
       inkscape:connector-curvature="0" />
    <path
       style="fill:none;stroke:#000000;stroke-width:0.26458332px;stroke-linecap:butt;stroke-linejoin:miter;stroke-opacity:1"
       d="m 112.2859,244.18305 c -0.85146,1.13528 -0.79824,0.62085 -0.79824,1.3304 0,0.0887 0.0281,0.18194 0,0.26608 -0.0627,0.18815 -0.20337,0.34402 -0.26608,0.53216 -0.0281,0.0842 0,0.17739 0,0.26608 0,0.44347 0,0.88694 0,1.33041 0,0.17738 0.043,0.36006 0,0.53216 -0.0481,0.1924 -0.20337,0.34401 -0.26608,0.53216 -0.0281,0.0841 0,0.17738 0,0.26608 0,0.17738 0,0.35477 0,0.53216 0,0.44346 0,0.88693 0,1.3304 0,1.41909 0,2.83819 0,4.25728"
       id="path16"
       inkscape:connector-curvature="0" />
    <text
       xml:space="preserve"
       style="font-style:normal;font-weight:normal;font-size:10.58333302px;line-height:1.25;font-family:sans-serif;letter-spacing:0px;word-spacing:0px;fill:#000000;fill-opacity:1;stroke:none;stroke-width:0.26458332"
       x="38.264149"
       y="228.69475"
       id="text64"><tspan
         sodipodi:role="line"
         id="tspan62"
         x="38.264149"
         y="228.69475"
         style="stroke-width:0.26458332">$M=\int_0^b u(t,x) \text{dx}$=amount of substance in $[0,b]$ at time t</tspan></text>
    <text
       xml:space="preserve"
       style="font-style:normal;font-weight:normal;font-size:10.58333302px;line-height:1.25;font-family:sans-serif;letter-spacing:0px;word-spacing:0px;fill:#000000;fill-opacity:1;stroke:none;stroke-width:0.26458332"
       x="47.601242"
       y="280.63116"
       id="text68"><tspan
         sodipodi:role="line"
         id="tspan66"
         x="47.601242"
         y="280.63116"
         style="stroke-width:0.26458332">at time $t+h$, the same molecule moved to the interval [ch,b+ch]</tspan></text>
    <path
       style="fill:none;stroke:#000000;stroke-width:0.26458332px;stroke-linecap:butt;stroke-linejoin:miter;stroke-opacity:1"
       d="m 78.227618,244.84825 c 0,0.22174 0,0.44347 0,0.6652 0,0.0443 0.03136,0.10169 0,0.13304 -0.03136,0.0314 -0.101683,-0.0314 -0.133041,0 -0.03136,0.0314 0.03136,0.10169 0,0.13304 -0.06272,0.0627 -0.186751,-0.0397 -0.266081,0 -0.05609,0.0281 -0.07695,0.105 -0.13304,0.13305 -0.03966,0.0198 -0.09097,-0.014 -0.133041,0 -0.188145,0.0627 -0.354772,0.17738 -0.532159,0.26608 -0.08869,0.0443 -0.169878,0.10899 -0.266081,0.13304 -0.08604,0.0215 -0.180035,-0.0215 -0.266081,0 -0.690819,0.1727 0.142026,0.13304 -0.532159,0.13304 -0.674187,0 0.158658,-0.0397 -0.532161,0.13304 -0.08604,0.0215 -0.177388,0 -0.266081,0 -0.266081,0 -0.532159,0 -0.79824,0 -0.04435,0 -0.09002,-0.0108 -0.133041,0 -0.13304,0.0443 -0.26608,0.0887 -0.399121,0.13304 -0.08869,0 -0.180036,-0.0215 -0.266081,0 -0.0962,0.024 -0.169878,0.10898 -0.266078,0.13304 -0.08604,0.0215 -0.180036,-0.0215 -0.266081,0 -0.0962,0.024 -0.169878,0.10899 -0.266081,0.13304 -0.10465,0.0262 -0.659889,0 -0.79824,0 -0.114194,0 -0.720402,-0.026 -0.798242,0 -0.493194,0.16439 0.162171,0.13304 -0.266081,0.13304 -0.354772,0 0.04435,-0.0444 -0.133038,0.13304 -0.03136,0.0314 -0.13304,0.0443 -0.13304,0 0,-0.0443 0.101682,-0.0314 0.13304,0 0.03136,0.0314 -0.01984,0.0934 0,0.13304 0.02805,0.0561 0.104992,0.0769 0.133038,0.13304 0.01984,0.0397 -0.03136,0.10168 0,0.13304 0.275267,0.27526 -0.01077,-0.42064 0.266081,0.13304 0.01984,0.0397 -0.01984,0.0934 0,0.13304 0.07105,0.1421 0.195032,0.12398 0.266081,0.26608 0.01984,0.0397 -0.01984,0.0934 0,0.13304 0.02805,0.0561 0.08869,0.0887 0.13304,0.13304 0,0.0887 -0.02151,0.18003 0,0.26608 0.02405,0.0962 0.10899,0.16988 0.13304,0.26608 0.02151,0.086 -0.02805,0.18194 0,0.26608 0.01984,0.0595 0.11783,0.0722 0.133041,0.13304 0.03227,0.12907 -0.03227,0.27005 0,0.39912 0.01521,0.0608 0.113207,0.0735 0.13304,0.13304 0.02805,0.0841 -0.02151,0.18004 0,0.26608 0.02405,0.0962 0.101682,0.17201 0.133041,0.26608 0.03991,0.11974 -0.03991,0.27939 0,0.39912 0.01984,0.0595 0.104992,0.077 0.133037,0.13304 0.01984,0.0397 0,0.0887 0,0.13304 0,0.0444 0,0.0887 0,0.13304 0,0.22174 0,0.44347 0,0.6652 0,0.0599 -0.02024,0.35863 0,0.39912 0.02805,0.0561 0.104995,0.077 0.133041,0.13304 0.01984,0.0397 -0.01984,0.0934 0,0.13304 0.02805,0.0561 0.104995,0.0769 0.13304,0.13304 0.04181,0.0836 -0.04181,0.44854 0,0.53216 0.05609,0.11219 0.209987,0.1539 0.266081,0.26608 0.01984,0.0397 -0.03136,0.10169 0,0.13304 0.03136,0.0314 0.101682,-0.0313 0.133041,0 0.03136,0.0314 -0.03136,0.10169 0,0.13304 0.03136,0.0314 0.09337,-0.0198 0.13304,0 0.03464,0.0173 0.162079,0.23705 0.266081,0.13305 0.03136,-0.0314 -0.03136,-0.10169 0,-0.13305 0.06271,-0.0627 0.186748,0.0397 0.266078,0 0.0561,-0.028 0.07354,-0.1132 0.133041,-0.13304 0.141369,-0.0471 0.390792,0.0471 0.532161,0 0.09407,-0.0313 0.172006,-0.10168 0.266081,-0.13304 0.04207,-0.014 0.08869,0 0.133041,0 0.142216,0 0.787207,0.0288 0.93128,0 0.137512,-0.0275 0.260792,-0.10998 0.399121,-0.13304 0.218716,-0.0365 0.447773,0.0435 0.6652,0 0.137514,-0.0275 0.26307,-0.099 0.399121,-0.13304 0.189267,-0.0473 0.488199,0.059 0.6652,0 0.0595,-0.0198 0.07695,-0.10499 0.13304,-0.13304 0.03967,-0.0198 0.08869,0 0.133041,0 0.04435,0 0.08869,0 0.13304,0 0.06957,0 0.497179,0.0175 0.532162,0 0.05609,-0.028 0.08869,-0.0887 0.133038,-0.13304"
       id="path72"
       inkscape:connector-curvature="0" />
    <path
       style="fill:none;stroke:#000000;stroke-width:0.26458332px;stroke-linecap:butt;stroke-linejoin:miter;stroke-opacity:1"
       d="m 120.40135,242.71961 c 0.17739,-0.0887 0.34802,-0.19242 0.53216,-0.26608 0.0706,-0.0282 0.56679,0 0.6652,0 0.0887,0 0.17739,0 0.26608,0 0.0443,0 0.0934,-0.0198 0.13304,0 0.0561,0.0281 0.077,0.10499 0.13304,0.13304 0.0793,0.0397 0.20337,-0.0627 0.26608,0 0.0314,0.0314 -0.0314,0.10168 0,0.13304 0.0665,0.0665 0.3326,-0.0665 0.39912,0 0.0314,0.0314 -0.0314,0.10168 0,0.13304 0.0314,0.0314 0.10169,0.0314 0.13304,0 0.0314,-0.0314 -0.0313,-0.10168 0,-0.13304 0.0314,-0.0314 0.0887,0 0.13304,0 0.0443,0 0.10168,-0.0314 0.13304,0 0.0314,0.0314 0,0.0887 0,0.13304 0,0.26608 0,0.53216 0,0.79824 0,0.88694 0,1.77387 0,2.66081 0,0.26608 0,0.53216 0,0.79824 0,0.13304 -0.0219,0.26789 0,0.39912 0.023,0.13832 0.10999,0.26079 0.13304,0.39912 0.0437,0.26246 -0.0437,0.53578 0,0.79824 0.023,0.13833 0.10999,0.26079 0.13304,0.39912 0.0219,0.13123 0,0.26608 0,0.39912 0,0.13304 0,0.26608 0,0.39912 0,0.57651 0,1.15301 0,1.72952 0,0.31043 0,0.62086 0,0.93128 0,0.0887 0,0.17739 0,0.26608 0,0.0887 0.0215,0.18004 0,0.26608 -0.0241,0.0962 -0.10168,0.17201 -0.13304,0.26608 -0.0421,0.12622 0.0421,0.27291 0,0.39912 -0.0198,0.0595 -0.10499,0.0769 -0.13304,0.13305 -0.0198,0.0397 0,0.0887 0,0.13304 0,0.0887 0.0281,0.18193 0,0.26608 -0.0198,0.0595 -0.10499,0.0769 -0.13304,0.13303 -0.0241,0.0481 0,0.57267 0,0.66521 0,0.0443 0.0314,0.10168 0,0.13304 -0.0113,0.0113 -0.33308,0.022 -0.39912,0 -0.0941,-0.0314 -0.17201,-0.10168 -0.26608,-0.13304 -0.0841,-0.0281 -0.18194,0.028 -0.26608,0 -0.0941,-0.0314 -0.172,-0.10169 -0.26608,-0.13304 -0.14137,-0.0471 -0.39079,0.0471 -0.53216,0 -0.0941,-0.0314 -0.17201,-0.10169 -0.26608,-0.13304 -0.0421,-0.014 -0.0887,0 -0.13304,0 -0.22173,0 -0.44347,0 -0.6652,0 -0.0887,0 -0.17739,0 -0.26608,0 -0.0443,0 -0.0934,-0.0198 -0.13304,0 -0.0561,0.028 -0.0769,0.10499 -0.13304,0.13304 -0.0397,0.0198 -0.0887,0 -0.13304,0 -0.0443,0 -0.0887,0 -0.13304,0"
       id="path74"
       inkscape:connector-curvature="0" />
    <path
       style="fill:none;stroke:#000000;stroke-width:0.26458332px;stroke-linecap:butt;stroke-linejoin:miter;stroke-opacity:1"
       d="m 61.335988,247.51728 c 0.40931,0.32841 0.09562,0.75879 0.188148,1.12889 0.03401,0.13605 0.160644,0.23878 0.188145,0.37629 0.0369,0.1845 0,0.3763 0,0.56444 0,0.0627 -0.01521,0.12731 0,0.18815 0.0481,0.1924 0.149254,0.36997 0.188148,0.56444 0.02461,0.123 0,0.25087 0,0.3763 0,0.25086 0,0.50172 0,0.75259 0,0.75258 0,1.50517 0,2.25776 0,0.3763 0,0.75259 0,1.12889 0,0.12543 -0.0034,0.50168 0,0.37629 0.0338,-1.24364 0.06419,-2.48738 0.09629,-3.73106"
       id="path47"
       inkscape:connector-curvature="0" />
    <text
       xml:space="preserve"
       style="font-style:normal;font-weight:normal;font-size:10.58333302px;line-height:1.25;font-family:sans-serif;letter-spacing:0px;word-spacing:0px;fill:#000000;fill-opacity:1;stroke:none;stroke-width:0.26458332"
       x="63.593197"
       y="269.8598"
       id="text51"><tspan
         sodipodi:role="line"
         id="tspan49"
         x="63.593197"
         y="279.22357"
         style="stroke-width:0.26458332" /></text>
    <text
       xml:space="preserve"
       style="font-style:normal;font-weight:normal;font-size:10.58333302px;line-height:1.25;font-family:sans-serif;letter-spacing:0px;word-spacing:0px;fill:#000000;fill-opacity:1;stroke:none;stroke-width:0.26458332"
       x="59.172295"
       y="261.91055"
       id="text55"><tspan
         sodipodi:role="line"
         id="tspan53"
         x="59.172295"
         y="261.91055"
         style="stroke-width:0.26458332">0</tspan></text>
    <text
       xml:space="preserve"
       style="font-style:normal;font-weight:normal;font-size:10.58333302px;line-height:1.25;font-family:sans-serif;letter-spacing:0px;word-spacing:0px;fill:#000000;fill-opacity:1;stroke:none;stroke-width:0.26458332"
       x="71.025574"
       y="261.62833"
       id="text59"><tspan
         sodipodi:role="line"
         id="tspan57"
         x="71.025574"
         y="261.62833"
         style="stroke-width:0.26458332">$ch$</tspan></text>
    <text
       xml:space="preserve"
       style="font-style:normal;font-weight:normal;font-size:10.58333302px;line-height:1.25;font-family:sans-serif;letter-spacing:0px;word-spacing:0px;fill:#000000;fill-opacity:1;stroke:none;stroke-width:0.26458332"
       x="107.33799"
       y="261.62833"
       id="text63"><tspan
         sodipodi:role="line"
         id="tspan61"
         x="107.33799"
         y="261.62833"
         style="stroke-width:0.26458332">$b$</tspan></text>
    <text
       xml:space="preserve"
       style="font-style:normal;font-weight:normal;font-size:10.58333302px;line-height:1.25;font-family:sans-serif;letter-spacing:0px;word-spacing:0px;fill:#000000;fill-opacity:1;stroke:none;stroke-width:0.26458332"
       x="120.32014"
       y="261.53424"
       id="text67"><tspan
         sodipodi:role="line"
         id="tspan65"
         x="120.32014"
         y="261.53424"
         style="stroke-width:0.26458332">$b+ch$</tspan></text>
  </g>
</svg>
